M48
; DRILL file {KiCad (6.0.6)} date Fri Mar 24 13:47:00 2023
; FORMAT={-:-/ absolute / metric / decimal}
; #@! TF.CreationDate,2023-03-24T13:47:00-05:00
; #@! TF.GenerationSoftware,Kicad,Pcbnew,(6.0.6)
; #@! TF.FileFunction,Plated,1,4,PTH
FMAT,2
METRIC
; #@! TA.AperFunction,Plated,PTH,ViaDrill
T1C0.200
; #@! TA.AperFunction,Plated,PTH,ComponentDrill
T2C0.200
; #@! TA.AperFunction,Plated,PTH,ViaDrill
T3C0.400
; #@! TA.AperFunction,Plated,PTH,ComponentDrill
T4C0.500
; #@! TA.AperFunction,Plated,PTH,ComponentDrill
T5C0.600
; #@! TA.AperFunction,Plated,PTH,ComponentDrill
T6C0.800
; #@! TA.AperFunction,Plated,PTH,ComponentDrill
T7C1.000
; #@! TA.AperFunction,Plated,PTH,ComponentDrill
T8C1.100
; #@! TA.AperFunction,Plated,PTH,ComponentDrill
T9C1.300
; #@! TA.AperFunction,Plated,PTH,ComponentDrill
T10C1.500
; #@! TA.AperFunction,Plated,PTH,ComponentDrill
T11C1.700
%
G90
G05
T1
X200.801Y-111.949
X201.163Y-112.449
X201.503Y-112.959
X213.851Y-112.508
X214.001Y-109.608
X214.151Y-114.958
T2
X164.2Y-88.204
X164.2Y-90.304
X166.3Y-88.204
X166.3Y-90.304
T3
X151.2Y-100.35
X153.75Y-100.4
X158.694Y-71.98
X161.974Y-71.879
X168.294Y-85.78
X173.594Y-87.426
X176.15Y-103.35
X176.157Y-104.514
X176.594Y-86.484
X178.05Y-95.75
X179.951Y-112.408
T4
X159.25Y-120.95
X159.25Y-121.95
X159.25Y-122.95
X159.25Y-123.95
T6
X190.562Y-130.544
X198.062Y-130.544
T7
X151.23Y-102.75
X153.77Y-102.75
X156.31Y-102.75
X158.85Y-102.75
T8
X203.951Y-122.05
X203.951Y-128.55
X208.451Y-122.05
X208.451Y-128.55
T9
X152.245Y-132.49
X152.245Y-137.57
T10
X160.45Y-56.936
T11
X157.91Y-54.396
X157.91Y-59.476
X162.99Y-54.396
X162.99Y-59.476
T5
X149.576Y-108.478G85X148.976Y-108.478
G05
X149.576Y-117.118G85X148.976Y-117.118
G05
X154.006Y-108.478G85X152.906Y-108.478
G05
X154.006Y-117.118G85X152.906Y-117.118
G05
T0
M30
