%TF.GenerationSoftware,KiCad,Pcbnew,(6.0.6)*%
%TF.CreationDate,2023-03-24T13:47:12-05:00*%
%TF.ProjectId,DSAT_Telemetry_Board,44534154-5f54-4656-9c65-6d657472795f,rev?*%
%TF.SameCoordinates,Original*%
%TF.FileFunction,Legend,Top*%
%TF.FilePolarity,Positive*%
%FSLAX46Y46*%
G04 Gerber Fmt 4.6, Leading zero omitted, Abs format (unit mm)*
G04 Created by KiCad (PCBNEW (6.0.6)) date 2023-03-24 13:47:12*
%MOMM*%
%LPD*%
G01*
G04 APERTURE LIST*
%ADD10C,0.125000*%
%ADD11C,0.300000*%
%ADD12C,0.150000*%
%ADD13C,0.098425*%
%ADD14C,0.120000*%
%ADD15C,0.250000*%
%ADD16C,0.100000*%
G04 APERTURE END LIST*
D10*
X168907142Y-88826190D02*
X169216666Y-88826190D01*
X169050000Y-89016666D01*
X169121428Y-89016666D01*
X169169047Y-89040476D01*
X169192857Y-89064285D01*
X169216666Y-89111904D01*
X169216666Y-89230952D01*
X169192857Y-89278571D01*
X169169047Y-89302380D01*
X169121428Y-89326190D01*
X168978571Y-89326190D01*
X168930952Y-89302380D01*
X168907142Y-89278571D01*
X169407142Y-88873809D02*
X169430952Y-88850000D01*
X169478571Y-88826190D01*
X169597619Y-88826190D01*
X169645238Y-88850000D01*
X169669047Y-88873809D01*
X169692857Y-88921428D01*
X169692857Y-88969047D01*
X169669047Y-89040476D01*
X169383333Y-89326190D01*
X169692857Y-89326190D01*
X169907142Y-89326190D02*
X169907142Y-88826190D01*
X170073809Y-89183333D01*
X170240476Y-88826190D01*
X170240476Y-89326190D01*
X170478571Y-89326190D02*
X170478571Y-88826190D01*
X170478571Y-89064285D02*
X170764285Y-89064285D01*
X170764285Y-89326190D02*
X170764285Y-88826190D01*
X170954761Y-88992857D02*
X171216666Y-88992857D01*
X170954761Y-89326190D01*
X171216666Y-89326190D01*
X172073809Y-89278571D02*
X172050000Y-89302380D01*
X171978571Y-89326190D01*
X171930952Y-89326190D01*
X171859523Y-89302380D01*
X171811904Y-89254761D01*
X171788095Y-89207142D01*
X171764285Y-89111904D01*
X171764285Y-89040476D01*
X171788095Y-88945238D01*
X171811904Y-88897619D01*
X171859523Y-88850000D01*
X171930952Y-88826190D01*
X171978571Y-88826190D01*
X172050000Y-88850000D01*
X172073809Y-88873809D01*
X172288095Y-89326190D02*
X172288095Y-88992857D01*
X172288095Y-89088095D02*
X172311904Y-89040476D01*
X172335714Y-89016666D01*
X172383333Y-88992857D01*
X172430952Y-88992857D01*
X172550000Y-88992857D02*
X172669047Y-89326190D01*
X172788095Y-88992857D02*
X172669047Y-89326190D01*
X172621428Y-89445238D01*
X172597619Y-89469047D01*
X172550000Y-89492857D01*
X172954761Y-89302380D02*
X173002380Y-89326190D01*
X173097619Y-89326190D01*
X173145238Y-89302380D01*
X173169047Y-89254761D01*
X173169047Y-89230952D01*
X173145238Y-89183333D01*
X173097619Y-89159523D01*
X173026190Y-89159523D01*
X172978571Y-89135714D01*
X172954761Y-89088095D01*
X172954761Y-89064285D01*
X172978571Y-89016666D01*
X173026190Y-88992857D01*
X173097619Y-88992857D01*
X173145238Y-89016666D01*
X173311904Y-88992857D02*
X173502380Y-88992857D01*
X173383333Y-88826190D02*
X173383333Y-89254761D01*
X173407142Y-89302380D01*
X173454761Y-89326190D01*
X173502380Y-89326190D01*
X173883333Y-89326190D02*
X173883333Y-89064285D01*
X173859523Y-89016666D01*
X173811904Y-88992857D01*
X173716666Y-88992857D01*
X173669047Y-89016666D01*
X173883333Y-89302380D02*
X173835714Y-89326190D01*
X173716666Y-89326190D01*
X173669047Y-89302380D01*
X173645238Y-89254761D01*
X173645238Y-89207142D01*
X173669047Y-89159523D01*
X173716666Y-89135714D01*
X173835714Y-89135714D01*
X173883333Y-89111904D01*
X174192857Y-89326190D02*
X174145238Y-89302380D01*
X174121428Y-89254761D01*
X174121428Y-88826190D01*
D11*
X183252142Y-136598571D02*
X183252142Y-135098571D01*
X183609285Y-135098571D01*
X183823571Y-135170000D01*
X183966428Y-135312857D01*
X184037857Y-135455714D01*
X184109285Y-135741428D01*
X184109285Y-135955714D01*
X184037857Y-136241428D01*
X183966428Y-136384285D01*
X183823571Y-136527142D01*
X183609285Y-136598571D01*
X183252142Y-136598571D01*
X184680714Y-136527142D02*
X184895000Y-136598571D01*
X185252142Y-136598571D01*
X185395000Y-136527142D01*
X185466428Y-136455714D01*
X185537857Y-136312857D01*
X185537857Y-136170000D01*
X185466428Y-136027142D01*
X185395000Y-135955714D01*
X185252142Y-135884285D01*
X184966428Y-135812857D01*
X184823571Y-135741428D01*
X184752142Y-135670000D01*
X184680714Y-135527142D01*
X184680714Y-135384285D01*
X184752142Y-135241428D01*
X184823571Y-135170000D01*
X184966428Y-135098571D01*
X185323571Y-135098571D01*
X185537857Y-135170000D01*
X186109285Y-136170000D02*
X186823571Y-136170000D01*
X185966428Y-136598571D02*
X186466428Y-135098571D01*
X186966428Y-136598571D01*
X187252142Y-135098571D02*
X188109285Y-135098571D01*
X187680714Y-136598571D02*
X187680714Y-135098571D01*
X189537857Y-135098571D02*
X190395000Y-135098571D01*
X189966428Y-136598571D02*
X189966428Y-135098571D01*
X191466428Y-136527142D02*
X191323571Y-136598571D01*
X191037857Y-136598571D01*
X190895000Y-136527142D01*
X190823571Y-136384285D01*
X190823571Y-135812857D01*
X190895000Y-135670000D01*
X191037857Y-135598571D01*
X191323571Y-135598571D01*
X191466428Y-135670000D01*
X191537857Y-135812857D01*
X191537857Y-135955714D01*
X190823571Y-136098571D01*
X192395000Y-136598571D02*
X192252142Y-136527142D01*
X192180714Y-136384285D01*
X192180714Y-135098571D01*
X193537857Y-136527142D02*
X193395000Y-136598571D01*
X193109285Y-136598571D01*
X192966428Y-136527142D01*
X192895000Y-136384285D01*
X192895000Y-135812857D01*
X192966428Y-135670000D01*
X193109285Y-135598571D01*
X193395000Y-135598571D01*
X193537857Y-135670000D01*
X193609285Y-135812857D01*
X193609285Y-135955714D01*
X192895000Y-136098571D01*
X194252142Y-136598571D02*
X194252142Y-135598571D01*
X194252142Y-135741428D02*
X194323571Y-135670000D01*
X194466428Y-135598571D01*
X194680714Y-135598571D01*
X194823571Y-135670000D01*
X194895000Y-135812857D01*
X194895000Y-136598571D01*
X194895000Y-135812857D02*
X194966428Y-135670000D01*
X195109285Y-135598571D01*
X195323571Y-135598571D01*
X195466428Y-135670000D01*
X195537857Y-135812857D01*
X195537857Y-136598571D01*
X196823571Y-136527142D02*
X196680714Y-136598571D01*
X196395000Y-136598571D01*
X196252142Y-136527142D01*
X196180714Y-136384285D01*
X196180714Y-135812857D01*
X196252142Y-135670000D01*
X196395000Y-135598571D01*
X196680714Y-135598571D01*
X196823571Y-135670000D01*
X196895000Y-135812857D01*
X196895000Y-135955714D01*
X196180714Y-136098571D01*
X197323571Y-135598571D02*
X197895000Y-135598571D01*
X197537857Y-135098571D02*
X197537857Y-136384285D01*
X197609285Y-136527142D01*
X197752142Y-136598571D01*
X197895000Y-136598571D01*
X198395000Y-136598571D02*
X198395000Y-135598571D01*
X198395000Y-135884285D02*
X198466428Y-135741428D01*
X198537857Y-135670000D01*
X198680714Y-135598571D01*
X198823571Y-135598571D01*
X199180714Y-135598571D02*
X199537857Y-136598571D01*
X199895000Y-135598571D02*
X199537857Y-136598571D01*
X199395000Y-136955714D01*
X199323571Y-137027142D01*
X199180714Y-137098571D01*
X202109285Y-135812857D02*
X202323571Y-135884285D01*
X202395000Y-135955714D01*
X202466428Y-136098571D01*
X202466428Y-136312857D01*
X202395000Y-136455714D01*
X202323571Y-136527142D01*
X202180714Y-136598571D01*
X201609285Y-136598571D01*
X201609285Y-135098571D01*
X202109285Y-135098571D01*
X202252142Y-135170000D01*
X202323571Y-135241428D01*
X202395000Y-135384285D01*
X202395000Y-135527142D01*
X202323571Y-135670000D01*
X202252142Y-135741428D01*
X202109285Y-135812857D01*
X201609285Y-135812857D01*
X203323571Y-136598571D02*
X203180714Y-136527142D01*
X203109285Y-136455714D01*
X203037857Y-136312857D01*
X203037857Y-135884285D01*
X203109285Y-135741428D01*
X203180714Y-135670000D01*
X203323571Y-135598571D01*
X203537857Y-135598571D01*
X203680714Y-135670000D01*
X203752142Y-135741428D01*
X203823571Y-135884285D01*
X203823571Y-136312857D01*
X203752142Y-136455714D01*
X203680714Y-136527142D01*
X203537857Y-136598571D01*
X203323571Y-136598571D01*
X205109285Y-136598571D02*
X205109285Y-135812857D01*
X205037857Y-135670000D01*
X204895000Y-135598571D01*
X204609285Y-135598571D01*
X204466428Y-135670000D01*
X205109285Y-136527142D02*
X204966428Y-136598571D01*
X204609285Y-136598571D01*
X204466428Y-136527142D01*
X204395000Y-136384285D01*
X204395000Y-136241428D01*
X204466428Y-136098571D01*
X204609285Y-136027142D01*
X204966428Y-136027142D01*
X205109285Y-135955714D01*
X205823571Y-136598571D02*
X205823571Y-135598571D01*
X205823571Y-135884285D02*
X205895000Y-135741428D01*
X205966428Y-135670000D01*
X206109285Y-135598571D01*
X206252142Y-135598571D01*
X207395000Y-136598571D02*
X207395000Y-135098571D01*
X207395000Y-136527142D02*
X207252142Y-136598571D01*
X206966428Y-136598571D01*
X206823571Y-136527142D01*
X206752142Y-136455714D01*
X206680714Y-136312857D01*
X206680714Y-135884285D01*
X206752142Y-135741428D01*
X206823571Y-135670000D01*
X206966428Y-135598571D01*
X207252142Y-135598571D01*
X207395000Y-135670000D01*
X183752142Y-138227857D02*
X183966428Y-138299285D01*
X184037857Y-138370714D01*
X184109285Y-138513571D01*
X184109285Y-138727857D01*
X184037857Y-138870714D01*
X183966428Y-138942142D01*
X183823571Y-139013571D01*
X183252142Y-139013571D01*
X183252142Y-137513571D01*
X183752142Y-137513571D01*
X183895000Y-137585000D01*
X183966428Y-137656428D01*
X184037857Y-137799285D01*
X184037857Y-137942142D01*
X183966428Y-138085000D01*
X183895000Y-138156428D01*
X183752142Y-138227857D01*
X183252142Y-138227857D01*
X185323571Y-138942142D02*
X185180714Y-139013571D01*
X184895000Y-139013571D01*
X184752142Y-138942142D01*
X184680714Y-138799285D01*
X184680714Y-138227857D01*
X184752142Y-138085000D01*
X184895000Y-138013571D01*
X185180714Y-138013571D01*
X185323571Y-138085000D01*
X185395000Y-138227857D01*
X185395000Y-138370714D01*
X184680714Y-138513571D01*
X186680714Y-138942142D02*
X186537857Y-139013571D01*
X186252142Y-139013571D01*
X186109285Y-138942142D01*
X186037857Y-138870714D01*
X185966428Y-138727857D01*
X185966428Y-138299285D01*
X186037857Y-138156428D01*
X186109285Y-138085000D01*
X186252142Y-138013571D01*
X186537857Y-138013571D01*
X186680714Y-138085000D01*
X187323571Y-139013571D02*
X187323571Y-137513571D01*
X187466428Y-138442142D02*
X187895000Y-139013571D01*
X187895000Y-138013571D02*
X187323571Y-138585000D01*
X189609285Y-138942142D02*
X189823571Y-139013571D01*
X190180714Y-139013571D01*
X190323571Y-138942142D01*
X190395000Y-138870714D01*
X190466428Y-138727857D01*
X190466428Y-138585000D01*
X190395000Y-138442142D01*
X190323571Y-138370714D01*
X190180714Y-138299285D01*
X189895000Y-138227857D01*
X189752142Y-138156428D01*
X189680714Y-138085000D01*
X189609285Y-137942142D01*
X189609285Y-137799285D01*
X189680714Y-137656428D01*
X189752142Y-137585000D01*
X189895000Y-137513571D01*
X190252142Y-137513571D01*
X190466428Y-137585000D01*
X191752142Y-139013571D02*
X191752142Y-138227857D01*
X191680714Y-138085000D01*
X191537857Y-138013571D01*
X191252142Y-138013571D01*
X191109285Y-138085000D01*
X191752142Y-138942142D02*
X191609285Y-139013571D01*
X191252142Y-139013571D01*
X191109285Y-138942142D01*
X191037857Y-138799285D01*
X191037857Y-138656428D01*
X191109285Y-138513571D01*
X191252142Y-138442142D01*
X191609285Y-138442142D01*
X191752142Y-138370714D01*
X193109285Y-138013571D02*
X193109285Y-139013571D01*
X192466428Y-138013571D02*
X192466428Y-138799285D01*
X192537857Y-138942142D01*
X192680714Y-139013571D01*
X192895000Y-139013571D01*
X193037857Y-138942142D01*
X193109285Y-138870714D01*
X193823571Y-138013571D02*
X193823571Y-139013571D01*
X193823571Y-138156428D02*
X193895000Y-138085000D01*
X194037857Y-138013571D01*
X194252142Y-138013571D01*
X194395000Y-138085000D01*
X194466428Y-138227857D01*
X194466428Y-139013571D01*
X195823571Y-139013571D02*
X195823571Y-137513571D01*
X195823571Y-138942142D02*
X195680714Y-139013571D01*
X195395000Y-139013571D01*
X195252142Y-138942142D01*
X195180714Y-138870714D01*
X195109285Y-138727857D01*
X195109285Y-138299285D01*
X195180714Y-138156428D01*
X195252142Y-138085000D01*
X195395000Y-138013571D01*
X195680714Y-138013571D01*
X195823571Y-138085000D01*
X197109285Y-138942142D02*
X196966428Y-139013571D01*
X196680714Y-139013571D01*
X196537857Y-138942142D01*
X196466428Y-138799285D01*
X196466428Y-138227857D01*
X196537857Y-138085000D01*
X196680714Y-138013571D01*
X196966428Y-138013571D01*
X197109285Y-138085000D01*
X197180714Y-138227857D01*
X197180714Y-138370714D01*
X196466428Y-138513571D01*
X197823571Y-139013571D02*
X197823571Y-138013571D01*
X197823571Y-138299285D02*
X197895000Y-138156428D01*
X197966428Y-138085000D01*
X198109285Y-138013571D01*
X198252142Y-138013571D01*
X198680714Y-138942142D02*
X198823571Y-139013571D01*
X199109285Y-139013571D01*
X199252142Y-138942142D01*
X199323571Y-138799285D01*
X199323571Y-138727857D01*
X199252142Y-138585000D01*
X199109285Y-138513571D01*
X198895000Y-138513571D01*
X198752142Y-138442142D01*
X198680714Y-138299285D01*
X198680714Y-138227857D01*
X198752142Y-138085000D01*
X198895000Y-138013571D01*
X199109285Y-138013571D01*
X199252142Y-138085000D01*
X183252142Y-141428571D02*
X183252142Y-139928571D01*
X183752142Y-141000000D01*
X184252142Y-139928571D01*
X184252142Y-141428571D01*
X185609285Y-141428571D02*
X185609285Y-140642857D01*
X185537857Y-140500000D01*
X185395000Y-140428571D01*
X185109285Y-140428571D01*
X184966428Y-140500000D01*
X185609285Y-141357142D02*
X185466428Y-141428571D01*
X185109285Y-141428571D01*
X184966428Y-141357142D01*
X184895000Y-141214285D01*
X184895000Y-141071428D01*
X184966428Y-140928571D01*
X185109285Y-140857142D01*
X185466428Y-140857142D01*
X185609285Y-140785714D01*
X186180714Y-140428571D02*
X186537857Y-141428571D01*
X186895000Y-140428571D02*
X186537857Y-141428571D01*
X186395000Y-141785714D01*
X186323571Y-141857142D01*
X186180714Y-141928571D01*
X187680714Y-141428571D02*
X187537857Y-141357142D01*
X187466428Y-141285714D01*
X187395000Y-141142857D01*
X187395000Y-140714285D01*
X187466428Y-140571428D01*
X187537857Y-140500000D01*
X187680714Y-140428571D01*
X187895000Y-140428571D01*
X188037857Y-140500000D01*
X188109285Y-140571428D01*
X188180714Y-140714285D01*
X188180714Y-141142857D01*
X188109285Y-141285714D01*
X188037857Y-141357142D01*
X187895000Y-141428571D01*
X187680714Y-141428571D01*
X188680714Y-140428571D02*
X188966428Y-141428571D01*
X189252142Y-140714285D01*
X189537857Y-141428571D01*
X189823571Y-140428571D01*
X191037857Y-141428571D02*
X191037857Y-140642857D01*
X190966428Y-140500000D01*
X190823571Y-140428571D01*
X190537857Y-140428571D01*
X190395000Y-140500000D01*
X191037857Y-141357142D02*
X190895000Y-141428571D01*
X190537857Y-141428571D01*
X190395000Y-141357142D01*
X190323571Y-141214285D01*
X190323571Y-141071428D01*
X190395000Y-140928571D01*
X190537857Y-140857142D01*
X190895000Y-140857142D01*
X191037857Y-140785714D01*
X192895000Y-141428571D02*
X192895000Y-139928571D01*
X193252142Y-139928571D01*
X193466428Y-140000000D01*
X193609285Y-140142857D01*
X193680714Y-140285714D01*
X193752142Y-140571428D01*
X193752142Y-140785714D01*
X193680714Y-141071428D01*
X193609285Y-141214285D01*
X193466428Y-141357142D01*
X193252142Y-141428571D01*
X192895000Y-141428571D01*
X195037857Y-141428571D02*
X195037857Y-140642857D01*
X194966428Y-140500000D01*
X194823571Y-140428571D01*
X194537857Y-140428571D01*
X194395000Y-140500000D01*
X195037857Y-141357142D02*
X194895000Y-141428571D01*
X194537857Y-141428571D01*
X194395000Y-141357142D01*
X194323571Y-141214285D01*
X194323571Y-141071428D01*
X194395000Y-140928571D01*
X194537857Y-140857142D01*
X194895000Y-140857142D01*
X195037857Y-140785714D01*
X195752142Y-140428571D02*
X195752142Y-141428571D01*
X195752142Y-140571428D02*
X195823571Y-140500000D01*
X195966428Y-140428571D01*
X196180714Y-140428571D01*
X196323571Y-140500000D01*
X196395000Y-140642857D01*
X196395000Y-141428571D01*
X197109285Y-141428571D02*
X197109285Y-140428571D01*
X197109285Y-139928571D02*
X197037857Y-140000000D01*
X197109285Y-140071428D01*
X197180714Y-140000000D01*
X197109285Y-139928571D01*
X197109285Y-140071428D01*
X198395000Y-141357142D02*
X198252142Y-141428571D01*
X197966428Y-141428571D01*
X197823571Y-141357142D01*
X197752142Y-141214285D01*
X197752142Y-140642857D01*
X197823571Y-140500000D01*
X197966428Y-140428571D01*
X198252142Y-140428571D01*
X198395000Y-140500000D01*
X198466428Y-140642857D01*
X198466428Y-140785714D01*
X197752142Y-140928571D01*
X199323571Y-141428571D02*
X199180714Y-141357142D01*
X199109285Y-141214285D01*
X199109285Y-139928571D01*
X183252142Y-143843571D02*
X183252142Y-142343571D01*
X183752142Y-143415000D01*
X184252142Y-142343571D01*
X184252142Y-143843571D01*
X184966428Y-143843571D02*
X184966428Y-142843571D01*
X184966428Y-142343571D02*
X184895000Y-142415000D01*
X184966428Y-142486428D01*
X185037857Y-142415000D01*
X184966428Y-142343571D01*
X184966428Y-142486428D01*
X185680714Y-143843571D02*
X185680714Y-142343571D01*
X185823571Y-143272142D02*
X186252142Y-143843571D01*
X186252142Y-142843571D02*
X185680714Y-143415000D01*
X187466428Y-143772142D02*
X187323571Y-143843571D01*
X187037857Y-143843571D01*
X186895000Y-143772142D01*
X186823571Y-143629285D01*
X186823571Y-143057857D01*
X186895000Y-142915000D01*
X187037857Y-142843571D01*
X187323571Y-142843571D01*
X187466428Y-142915000D01*
X187537857Y-143057857D01*
X187537857Y-143200714D01*
X186823571Y-143343571D01*
X189109285Y-142343571D02*
X189966428Y-142343571D01*
X189537857Y-143843571D02*
X189537857Y-142343571D01*
X190395000Y-143772142D02*
X190537857Y-143843571D01*
X190823571Y-143843571D01*
X190966428Y-143772142D01*
X191037857Y-143629285D01*
X191037857Y-143557857D01*
X190966428Y-143415000D01*
X190823571Y-143343571D01*
X190609285Y-143343571D01*
X190466428Y-143272142D01*
X190395000Y-143129285D01*
X190395000Y-143057857D01*
X190466428Y-142915000D01*
X190609285Y-142843571D01*
X190823571Y-142843571D01*
X190966428Y-142915000D01*
X192323571Y-143843571D02*
X192323571Y-143057857D01*
X192252142Y-142915000D01*
X192109285Y-142843571D01*
X191823571Y-142843571D01*
X191680714Y-142915000D01*
X192323571Y-143772142D02*
X192180714Y-143843571D01*
X191823571Y-143843571D01*
X191680714Y-143772142D01*
X191609285Y-143629285D01*
X191609285Y-143486428D01*
X191680714Y-143343571D01*
X191823571Y-143272142D01*
X192180714Y-143272142D01*
X192323571Y-143200714D01*
X193037857Y-143843571D02*
X193037857Y-142843571D01*
X193037857Y-142343571D02*
X192966428Y-142415000D01*
X193037857Y-142486428D01*
X193109285Y-142415000D01*
X193037857Y-142343571D01*
X193037857Y-142486428D01*
X183252142Y-146258571D02*
X183252142Y-144758571D01*
X184109285Y-146258571D02*
X183466428Y-145401428D01*
X184109285Y-144758571D02*
X183252142Y-145615714D01*
X184609285Y-145258571D02*
X184895000Y-146258571D01*
X185180714Y-145544285D01*
X185466428Y-146258571D01*
X185752142Y-145258571D01*
X186966428Y-146258571D02*
X186966428Y-145472857D01*
X186895000Y-145330000D01*
X186752142Y-145258571D01*
X186466428Y-145258571D01*
X186323571Y-145330000D01*
X186966428Y-146187142D02*
X186823571Y-146258571D01*
X186466428Y-146258571D01*
X186323571Y-146187142D01*
X186252142Y-146044285D01*
X186252142Y-145901428D01*
X186323571Y-145758571D01*
X186466428Y-145687142D01*
X186823571Y-145687142D01*
X186966428Y-145615714D01*
X187680714Y-146258571D02*
X187680714Y-144758571D01*
X187680714Y-145330000D02*
X187823571Y-145258571D01*
X188109285Y-145258571D01*
X188252142Y-145330000D01*
X188323571Y-145401428D01*
X188395000Y-145544285D01*
X188395000Y-145972857D01*
X188323571Y-146115714D01*
X188252142Y-146187142D01*
X188109285Y-146258571D01*
X187823571Y-146258571D01*
X187680714Y-146187142D01*
X189609285Y-146187142D02*
X189466428Y-146258571D01*
X189180714Y-146258571D01*
X189037857Y-146187142D01*
X188966428Y-146044285D01*
X188966428Y-145472857D01*
X189037857Y-145330000D01*
X189180714Y-145258571D01*
X189466428Y-145258571D01*
X189609285Y-145330000D01*
X189680714Y-145472857D01*
X189680714Y-145615714D01*
X188966428Y-145758571D01*
X190323571Y-145258571D02*
X190323571Y-146258571D01*
X190323571Y-145401428D02*
X190395000Y-145330000D01*
X190537857Y-145258571D01*
X190752142Y-145258571D01*
X190895000Y-145330000D01*
X190966428Y-145472857D01*
X190966428Y-146258571D01*
X192323571Y-146258571D02*
X192323571Y-145472857D01*
X192252142Y-145330000D01*
X192109285Y-145258571D01*
X191823571Y-145258571D01*
X191680714Y-145330000D01*
X192323571Y-146187142D02*
X192180714Y-146258571D01*
X191823571Y-146258571D01*
X191680714Y-146187142D01*
X191609285Y-146044285D01*
X191609285Y-145901428D01*
X191680714Y-145758571D01*
X191823571Y-145687142D01*
X192180714Y-145687142D01*
X192323571Y-145615714D01*
X194109285Y-145830000D02*
X194823571Y-145830000D01*
X193966428Y-146258571D02*
X194466428Y-144758571D01*
X194966428Y-146258571D01*
X195466428Y-145258571D02*
X195466428Y-146758571D01*
X195466428Y-145330000D02*
X195609285Y-145258571D01*
X195895000Y-145258571D01*
X196037857Y-145330000D01*
X196109285Y-145401428D01*
X196180714Y-145544285D01*
X196180714Y-145972857D01*
X196109285Y-146115714D01*
X196037857Y-146187142D01*
X195895000Y-146258571D01*
X195609285Y-146258571D01*
X195466428Y-146187142D01*
X196823571Y-145258571D02*
X196823571Y-146758571D01*
X196823571Y-145330000D02*
X196966428Y-145258571D01*
X197252142Y-145258571D01*
X197395000Y-145330000D01*
X197466428Y-145401428D01*
X197537857Y-145544285D01*
X197537857Y-145972857D01*
X197466428Y-146115714D01*
X197395000Y-146187142D01*
X197252142Y-146258571D01*
X196966428Y-146258571D01*
X196823571Y-146187142D01*
X198180714Y-146258571D02*
X198180714Y-145258571D01*
X198180714Y-144758571D02*
X198109285Y-144830000D01*
X198180714Y-144901428D01*
X198252142Y-144830000D01*
X198180714Y-144758571D01*
X198180714Y-144901428D01*
X199537857Y-146258571D02*
X199537857Y-145472857D01*
X199466428Y-145330000D01*
X199323571Y-145258571D01*
X199037857Y-145258571D01*
X198895000Y-145330000D01*
X199537857Y-146187142D02*
X199395000Y-146258571D01*
X199037857Y-146258571D01*
X198895000Y-146187142D01*
X198823571Y-146044285D01*
X198823571Y-145901428D01*
X198895000Y-145758571D01*
X199037857Y-145687142D01*
X199395000Y-145687142D01*
X199537857Y-145615714D01*
X200252142Y-146258571D02*
X200252142Y-144758571D01*
X200895000Y-146258571D02*
X200895000Y-145472857D01*
X200823571Y-145330000D01*
X200680714Y-145258571D01*
X200466428Y-145258571D01*
X200323571Y-145330000D01*
X200252142Y-145401428D01*
X201609285Y-145687142D02*
X202752142Y-145687142D01*
X203466428Y-146258571D02*
X203466428Y-144758571D01*
X204323571Y-146258571D02*
X203680714Y-145401428D01*
X204323571Y-144758571D02*
X203466428Y-145615714D01*
X204823571Y-145258571D02*
X205180714Y-146258571D01*
X205537857Y-145258571D02*
X205180714Y-146258571D01*
X205037857Y-146615714D01*
X204966428Y-146687142D01*
X204823571Y-146758571D01*
X206680714Y-146187142D02*
X206537857Y-146258571D01*
X206252142Y-146258571D01*
X206109285Y-146187142D01*
X206037857Y-146044285D01*
X206037857Y-145472857D01*
X206109285Y-145330000D01*
X206252142Y-145258571D01*
X206537857Y-145258571D01*
X206680714Y-145330000D01*
X206752142Y-145472857D01*
X206752142Y-145615714D01*
X206037857Y-145758571D01*
X207395000Y-146258571D02*
X207395000Y-145258571D01*
X207395000Y-144758571D02*
X207323571Y-144830000D01*
X207395000Y-144901428D01*
X207466428Y-144830000D01*
X207395000Y-144758571D01*
X207395000Y-144901428D01*
D12*
%TO.C,U1*%
X167138095Y-138752380D02*
X167138095Y-139561904D01*
X167185714Y-139657142D01*
X167233333Y-139704761D01*
X167328571Y-139752380D01*
X167519047Y-139752380D01*
X167614285Y-139704761D01*
X167661904Y-139657142D01*
X167709523Y-139561904D01*
X167709523Y-138752380D01*
X168709523Y-139752380D02*
X168138095Y-139752380D01*
X168423809Y-139752380D02*
X168423809Y-138752380D01*
X168328571Y-138895238D01*
X168233333Y-138990476D01*
X168138095Y-139038095D01*
D10*
%TO.C,C32*%
X158678571Y-65078571D02*
X158654761Y-65102380D01*
X158583333Y-65126190D01*
X158535714Y-65126190D01*
X158464285Y-65102380D01*
X158416666Y-65054761D01*
X158392857Y-65007142D01*
X158369047Y-64911904D01*
X158369047Y-64840476D01*
X158392857Y-64745238D01*
X158416666Y-64697619D01*
X158464285Y-64650000D01*
X158535714Y-64626190D01*
X158583333Y-64626190D01*
X158654761Y-64650000D01*
X158678571Y-64673809D01*
X158845238Y-64626190D02*
X159154761Y-64626190D01*
X158988095Y-64816666D01*
X159059523Y-64816666D01*
X159107142Y-64840476D01*
X159130952Y-64864285D01*
X159154761Y-64911904D01*
X159154761Y-65030952D01*
X159130952Y-65078571D01*
X159107142Y-65102380D01*
X159059523Y-65126190D01*
X158916666Y-65126190D01*
X158869047Y-65102380D01*
X158845238Y-65078571D01*
X159345238Y-64673809D02*
X159369047Y-64650000D01*
X159416666Y-64626190D01*
X159535714Y-64626190D01*
X159583333Y-64650000D01*
X159607142Y-64673809D01*
X159630952Y-64721428D01*
X159630952Y-64769047D01*
X159607142Y-64840476D01*
X159321428Y-65126190D01*
X159630952Y-65126190D01*
D12*
%TO.C,TX_~{SEL}*%
X183175016Y-93560380D02*
X183746445Y-93560380D01*
X183460730Y-94560380D02*
X183460730Y-93560380D01*
X183984540Y-93560380D02*
X184651207Y-94560380D01*
X184651207Y-93560380D02*
X183984540Y-94560380D01*
X184794064Y-94655619D02*
X185555968Y-94655619D01*
X185555968Y-93278000D02*
X186508349Y-93278000D01*
X185746445Y-94512761D02*
X185889302Y-94560380D01*
X186127397Y-94560380D01*
X186222635Y-94512761D01*
X186270254Y-94465142D01*
X186317873Y-94369904D01*
X186317873Y-94274666D01*
X186270254Y-94179428D01*
X186222635Y-94131809D01*
X186127397Y-94084190D01*
X185936921Y-94036571D01*
X185841683Y-93988952D01*
X185794064Y-93941333D01*
X185746445Y-93846095D01*
X185746445Y-93750857D01*
X185794064Y-93655619D01*
X185841683Y-93608000D01*
X185936921Y-93560380D01*
X186175016Y-93560380D01*
X186317873Y-93608000D01*
X186508349Y-93278000D02*
X187413111Y-93278000D01*
X186746445Y-94036571D02*
X187079778Y-94036571D01*
X187222635Y-94560380D02*
X186746445Y-94560380D01*
X186746445Y-93560380D01*
X187222635Y-93560380D01*
X187413111Y-93278000D02*
X188222635Y-93278000D01*
X188127397Y-94560380D02*
X187651207Y-94560380D01*
X187651207Y-93560380D01*
D10*
%TO.C,C18*%
X197996071Y-120528571D02*
X197972261Y-120552380D01*
X197900833Y-120576190D01*
X197853214Y-120576190D01*
X197781785Y-120552380D01*
X197734166Y-120504761D01*
X197710357Y-120457142D01*
X197686547Y-120361904D01*
X197686547Y-120290476D01*
X197710357Y-120195238D01*
X197734166Y-120147619D01*
X197781785Y-120100000D01*
X197853214Y-120076190D01*
X197900833Y-120076190D01*
X197972261Y-120100000D01*
X197996071Y-120123809D01*
X198472261Y-120576190D02*
X198186547Y-120576190D01*
X198329404Y-120576190D02*
X198329404Y-120076190D01*
X198281785Y-120147619D01*
X198234166Y-120195238D01*
X198186547Y-120219047D01*
X198757976Y-120290476D02*
X198710357Y-120266666D01*
X198686547Y-120242857D01*
X198662738Y-120195238D01*
X198662738Y-120171428D01*
X198686547Y-120123809D01*
X198710357Y-120100000D01*
X198757976Y-120076190D01*
X198853214Y-120076190D01*
X198900833Y-120100000D01*
X198924642Y-120123809D01*
X198948452Y-120171428D01*
X198948452Y-120195238D01*
X198924642Y-120242857D01*
X198900833Y-120266666D01*
X198853214Y-120290476D01*
X198757976Y-120290476D01*
X198710357Y-120314285D01*
X198686547Y-120338095D01*
X198662738Y-120385714D01*
X198662738Y-120480952D01*
X198686547Y-120528571D01*
X198710357Y-120552380D01*
X198757976Y-120576190D01*
X198853214Y-120576190D01*
X198900833Y-120552380D01*
X198924642Y-120528571D01*
X198948452Y-120480952D01*
X198948452Y-120385714D01*
X198924642Y-120338095D01*
X198900833Y-120314285D01*
X198853214Y-120290476D01*
%TO.C,C17*%
X191578571Y-122728571D02*
X191554761Y-122752380D01*
X191483333Y-122776190D01*
X191435714Y-122776190D01*
X191364285Y-122752380D01*
X191316666Y-122704761D01*
X191292857Y-122657142D01*
X191269047Y-122561904D01*
X191269047Y-122490476D01*
X191292857Y-122395238D01*
X191316666Y-122347619D01*
X191364285Y-122300000D01*
X191435714Y-122276190D01*
X191483333Y-122276190D01*
X191554761Y-122300000D01*
X191578571Y-122323809D01*
X192054761Y-122776190D02*
X191769047Y-122776190D01*
X191911904Y-122776190D02*
X191911904Y-122276190D01*
X191864285Y-122347619D01*
X191816666Y-122395238D01*
X191769047Y-122419047D01*
X192221428Y-122276190D02*
X192554761Y-122276190D01*
X192340476Y-122776190D01*
D12*
%TO.C,TX_~{IRQ}*%
X156095238Y-97402380D02*
X156666666Y-97402380D01*
X156380952Y-98402380D02*
X156380952Y-97402380D01*
X156904761Y-97402380D02*
X157571428Y-98402380D01*
X157571428Y-97402380D02*
X156904761Y-98402380D01*
X157714285Y-98497619D02*
X158476190Y-98497619D01*
X158476190Y-97120000D02*
X158952380Y-97120000D01*
X158714285Y-98402380D02*
X158714285Y-97402380D01*
X158952380Y-97120000D02*
X159952380Y-97120000D01*
X159761904Y-98402380D02*
X159428571Y-97926190D01*
X159190476Y-98402380D02*
X159190476Y-97402380D01*
X159571428Y-97402380D01*
X159666666Y-97450000D01*
X159714285Y-97497619D01*
X159761904Y-97592857D01*
X159761904Y-97735714D01*
X159714285Y-97830952D01*
X159666666Y-97878571D01*
X159571428Y-97926190D01*
X159190476Y-97926190D01*
X159952380Y-97120000D02*
X161000000Y-97120000D01*
X160857142Y-98497619D02*
X160761904Y-98450000D01*
X160666666Y-98354761D01*
X160523809Y-98211904D01*
X160428571Y-98164285D01*
X160333333Y-98164285D01*
X160380952Y-98402380D02*
X160285714Y-98354761D01*
X160190476Y-98259523D01*
X160142857Y-98069047D01*
X160142857Y-97735714D01*
X160190476Y-97545238D01*
X160285714Y-97450000D01*
X160380952Y-97402380D01*
X160571428Y-97402380D01*
X160666666Y-97450000D01*
X160761904Y-97545238D01*
X160809523Y-97735714D01*
X160809523Y-98069047D01*
X160761904Y-98259523D01*
X160666666Y-98354761D01*
X160571428Y-98402380D01*
X160380952Y-98402380D01*
D10*
%TO.C,C28*%
X160678571Y-75628571D02*
X160654761Y-75652380D01*
X160583333Y-75676190D01*
X160535714Y-75676190D01*
X160464285Y-75652380D01*
X160416666Y-75604761D01*
X160392857Y-75557142D01*
X160369047Y-75461904D01*
X160369047Y-75390476D01*
X160392857Y-75295238D01*
X160416666Y-75247619D01*
X160464285Y-75200000D01*
X160535714Y-75176190D01*
X160583333Y-75176190D01*
X160654761Y-75200000D01*
X160678571Y-75223809D01*
X160869047Y-75223809D02*
X160892857Y-75200000D01*
X160940476Y-75176190D01*
X161059523Y-75176190D01*
X161107142Y-75200000D01*
X161130952Y-75223809D01*
X161154761Y-75271428D01*
X161154761Y-75319047D01*
X161130952Y-75390476D01*
X160845238Y-75676190D01*
X161154761Y-75676190D01*
X161440476Y-75390476D02*
X161392857Y-75366666D01*
X161369047Y-75342857D01*
X161345238Y-75295238D01*
X161345238Y-75271428D01*
X161369047Y-75223809D01*
X161392857Y-75200000D01*
X161440476Y-75176190D01*
X161535714Y-75176190D01*
X161583333Y-75200000D01*
X161607142Y-75223809D01*
X161630952Y-75271428D01*
X161630952Y-75295238D01*
X161607142Y-75342857D01*
X161583333Y-75366666D01*
X161535714Y-75390476D01*
X161440476Y-75390476D01*
X161392857Y-75414285D01*
X161369047Y-75438095D01*
X161345238Y-75485714D01*
X161345238Y-75580952D01*
X161369047Y-75628571D01*
X161392857Y-75652380D01*
X161440476Y-75676190D01*
X161535714Y-75676190D01*
X161583333Y-75652380D01*
X161607142Y-75628571D01*
X161630952Y-75580952D01*
X161630952Y-75485714D01*
X161607142Y-75438095D01*
X161583333Y-75414285D01*
X161535714Y-75390476D01*
%TO.C,C15*%
X199978571Y-115428571D02*
X199954761Y-115452380D01*
X199883333Y-115476190D01*
X199835714Y-115476190D01*
X199764285Y-115452380D01*
X199716666Y-115404761D01*
X199692857Y-115357142D01*
X199669047Y-115261904D01*
X199669047Y-115190476D01*
X199692857Y-115095238D01*
X199716666Y-115047619D01*
X199764285Y-115000000D01*
X199835714Y-114976190D01*
X199883333Y-114976190D01*
X199954761Y-115000000D01*
X199978571Y-115023809D01*
X200454761Y-115476190D02*
X200169047Y-115476190D01*
X200311904Y-115476190D02*
X200311904Y-114976190D01*
X200264285Y-115047619D01*
X200216666Y-115095238D01*
X200169047Y-115119047D01*
X200907142Y-114976190D02*
X200669047Y-114976190D01*
X200645238Y-115214285D01*
X200669047Y-115190476D01*
X200716666Y-115166666D01*
X200835714Y-115166666D01*
X200883333Y-115190476D01*
X200907142Y-115214285D01*
X200930952Y-115261904D01*
X200930952Y-115380952D01*
X200907142Y-115428571D01*
X200883333Y-115452380D01*
X200835714Y-115476190D01*
X200716666Y-115476190D01*
X200669047Y-115452380D01*
X200645238Y-115428571D01*
D12*
%TO.C,~{RST}*%
X208342857Y-113720000D02*
X209342857Y-113720000D01*
X209152380Y-115002380D02*
X208819047Y-114526190D01*
X208580952Y-115002380D02*
X208580952Y-114002380D01*
X208961904Y-114002380D01*
X209057142Y-114050000D01*
X209104761Y-114097619D01*
X209152380Y-114192857D01*
X209152380Y-114335714D01*
X209104761Y-114430952D01*
X209057142Y-114478571D01*
X208961904Y-114526190D01*
X208580952Y-114526190D01*
X209342857Y-113720000D02*
X210295238Y-113720000D01*
X209533333Y-114954761D02*
X209676190Y-115002380D01*
X209914285Y-115002380D01*
X210009523Y-114954761D01*
X210057142Y-114907142D01*
X210104761Y-114811904D01*
X210104761Y-114716666D01*
X210057142Y-114621428D01*
X210009523Y-114573809D01*
X209914285Y-114526190D01*
X209723809Y-114478571D01*
X209628571Y-114430952D01*
X209580952Y-114383333D01*
X209533333Y-114288095D01*
X209533333Y-114192857D01*
X209580952Y-114097619D01*
X209628571Y-114050000D01*
X209723809Y-114002380D01*
X209961904Y-114002380D01*
X210104761Y-114050000D01*
X210295238Y-113720000D02*
X211057142Y-113720000D01*
X210390476Y-114002380D02*
X210961904Y-114002380D01*
X210676190Y-115002380D02*
X210676190Y-114002380D01*
D10*
%TO.C,C27*%
X162978571Y-80728571D02*
X162954761Y-80752380D01*
X162883333Y-80776190D01*
X162835714Y-80776190D01*
X162764285Y-80752380D01*
X162716666Y-80704761D01*
X162692857Y-80657142D01*
X162669047Y-80561904D01*
X162669047Y-80490476D01*
X162692857Y-80395238D01*
X162716666Y-80347619D01*
X162764285Y-80300000D01*
X162835714Y-80276190D01*
X162883333Y-80276190D01*
X162954761Y-80300000D01*
X162978571Y-80323809D01*
X163169047Y-80323809D02*
X163192857Y-80300000D01*
X163240476Y-80276190D01*
X163359523Y-80276190D01*
X163407142Y-80300000D01*
X163430952Y-80323809D01*
X163454761Y-80371428D01*
X163454761Y-80419047D01*
X163430952Y-80490476D01*
X163145238Y-80776190D01*
X163454761Y-80776190D01*
X163621428Y-80276190D02*
X163954761Y-80276190D01*
X163740476Y-80776190D01*
%TO.C,L3*%
X162316666Y-84276190D02*
X162078571Y-84276190D01*
X162078571Y-83776190D01*
X162435714Y-83776190D02*
X162745238Y-83776190D01*
X162578571Y-83966666D01*
X162650000Y-83966666D01*
X162697619Y-83990476D01*
X162721428Y-84014285D01*
X162745238Y-84061904D01*
X162745238Y-84180952D01*
X162721428Y-84228571D01*
X162697619Y-84252380D01*
X162650000Y-84276190D01*
X162507142Y-84276190D01*
X162459523Y-84252380D01*
X162435714Y-84228571D01*
D12*
%TO.C,U5*%
X187288095Y-112702380D02*
X187288095Y-113511904D01*
X187335714Y-113607142D01*
X187383333Y-113654761D01*
X187478571Y-113702380D01*
X187669047Y-113702380D01*
X187764285Y-113654761D01*
X187811904Y-113607142D01*
X187859523Y-113511904D01*
X187859523Y-112702380D01*
X188811904Y-112702380D02*
X188335714Y-112702380D01*
X188288095Y-113178571D01*
X188335714Y-113130952D01*
X188430952Y-113083333D01*
X188669047Y-113083333D01*
X188764285Y-113130952D01*
X188811904Y-113178571D01*
X188859523Y-113273809D01*
X188859523Y-113511904D01*
X188811904Y-113607142D01*
X188764285Y-113654761D01*
X188669047Y-113702380D01*
X188430952Y-113702380D01*
X188335714Y-113654761D01*
X188288095Y-113607142D01*
D10*
%TO.C,R10*%
X187632656Y-121337225D02*
X187346446Y-121286717D01*
X187430625Y-121539255D02*
X187077072Y-121185702D01*
X187211759Y-121051015D01*
X187262267Y-121034179D01*
X187295938Y-121034179D01*
X187346446Y-121051015D01*
X187396954Y-121101522D01*
X187413790Y-121152030D01*
X187413790Y-121185702D01*
X187396954Y-121236209D01*
X187262267Y-121370896D01*
X187969374Y-121000507D02*
X187767343Y-121202538D01*
X187868358Y-121101522D02*
X187514805Y-120747969D01*
X187531641Y-120832148D01*
X187531641Y-120899492D01*
X187514805Y-120950000D01*
X187834687Y-120428087D02*
X187868358Y-120394416D01*
X187918866Y-120377580D01*
X187952538Y-120377580D01*
X188003045Y-120394416D01*
X188087225Y-120444923D01*
X188171404Y-120529103D01*
X188221912Y-120613282D01*
X188238748Y-120663790D01*
X188238748Y-120697461D01*
X188221912Y-120747969D01*
X188188240Y-120781641D01*
X188137732Y-120798477D01*
X188104061Y-120798477D01*
X188053553Y-120781641D01*
X187969374Y-120731133D01*
X187885194Y-120646954D01*
X187834687Y-120562774D01*
X187817851Y-120512267D01*
X187817851Y-120478595D01*
X187834687Y-120428087D01*
%TO.C,R11*%
X205078571Y-115026190D02*
X204911904Y-114788095D01*
X204792857Y-115026190D02*
X204792857Y-114526190D01*
X204983333Y-114526190D01*
X205030952Y-114550000D01*
X205054761Y-114573809D01*
X205078571Y-114621428D01*
X205078571Y-114692857D01*
X205054761Y-114740476D01*
X205030952Y-114764285D01*
X204983333Y-114788095D01*
X204792857Y-114788095D01*
X205554761Y-115026190D02*
X205269047Y-115026190D01*
X205411904Y-115026190D02*
X205411904Y-114526190D01*
X205364285Y-114597619D01*
X205316666Y-114645238D01*
X205269047Y-114669047D01*
X206030952Y-115026190D02*
X205745238Y-115026190D01*
X205888095Y-115026190D02*
X205888095Y-114526190D01*
X205840476Y-114597619D01*
X205792857Y-114645238D01*
X205745238Y-114669047D01*
D12*
%TO.C,USB1*%
X149311904Y-106502380D02*
X149311904Y-107311904D01*
X149359523Y-107407142D01*
X149407142Y-107454761D01*
X149502380Y-107502380D01*
X149692857Y-107502380D01*
X149788095Y-107454761D01*
X149835714Y-107407142D01*
X149883333Y-107311904D01*
X149883333Y-106502380D01*
X150311904Y-107454761D02*
X150454761Y-107502380D01*
X150692857Y-107502380D01*
X150788095Y-107454761D01*
X150835714Y-107407142D01*
X150883333Y-107311904D01*
X150883333Y-107216666D01*
X150835714Y-107121428D01*
X150788095Y-107073809D01*
X150692857Y-107026190D01*
X150502380Y-106978571D01*
X150407142Y-106930952D01*
X150359523Y-106883333D01*
X150311904Y-106788095D01*
X150311904Y-106692857D01*
X150359523Y-106597619D01*
X150407142Y-106550000D01*
X150502380Y-106502380D01*
X150740476Y-106502380D01*
X150883333Y-106550000D01*
X151645238Y-106978571D02*
X151788095Y-107026190D01*
X151835714Y-107073809D01*
X151883333Y-107169047D01*
X151883333Y-107311904D01*
X151835714Y-107407142D01*
X151788095Y-107454761D01*
X151692857Y-107502380D01*
X151311904Y-107502380D01*
X151311904Y-106502380D01*
X151645238Y-106502380D01*
X151740476Y-106550000D01*
X151788095Y-106597619D01*
X151835714Y-106692857D01*
X151835714Y-106788095D01*
X151788095Y-106883333D01*
X151740476Y-106930952D01*
X151645238Y-106978571D01*
X151311904Y-106978571D01*
X152835714Y-107502380D02*
X152264285Y-107502380D01*
X152550000Y-107502380D02*
X152550000Y-106502380D01*
X152454761Y-106645238D01*
X152359523Y-106740476D01*
X152264285Y-106788095D01*
D10*
%TO.C,L6*%
X161216666Y-66826190D02*
X160978571Y-66826190D01*
X160978571Y-66326190D01*
X161597619Y-66326190D02*
X161502380Y-66326190D01*
X161454761Y-66350000D01*
X161430952Y-66373809D01*
X161383333Y-66445238D01*
X161359523Y-66540476D01*
X161359523Y-66730952D01*
X161383333Y-66778571D01*
X161407142Y-66802380D01*
X161454761Y-66826190D01*
X161550000Y-66826190D01*
X161597619Y-66802380D01*
X161621428Y-66778571D01*
X161645238Y-66730952D01*
X161645238Y-66611904D01*
X161621428Y-66564285D01*
X161597619Y-66540476D01*
X161550000Y-66516666D01*
X161454761Y-66516666D01*
X161407142Y-66540476D01*
X161383333Y-66564285D01*
X161359523Y-66611904D01*
D12*
%TO.C,U8*%
X204588095Y-108502380D02*
X204588095Y-109311904D01*
X204635714Y-109407142D01*
X204683333Y-109454761D01*
X204778571Y-109502380D01*
X204969047Y-109502380D01*
X205064285Y-109454761D01*
X205111904Y-109407142D01*
X205159523Y-109311904D01*
X205159523Y-108502380D01*
X205778571Y-108930952D02*
X205683333Y-108883333D01*
X205635714Y-108835714D01*
X205588095Y-108740476D01*
X205588095Y-108692857D01*
X205635714Y-108597619D01*
X205683333Y-108550000D01*
X205778571Y-108502380D01*
X205969047Y-108502380D01*
X206064285Y-108550000D01*
X206111904Y-108597619D01*
X206159523Y-108692857D01*
X206159523Y-108740476D01*
X206111904Y-108835714D01*
X206064285Y-108883333D01*
X205969047Y-108930952D01*
X205778571Y-108930952D01*
X205683333Y-108978571D01*
X205635714Y-109026190D01*
X205588095Y-109121428D01*
X205588095Y-109311904D01*
X205635714Y-109407142D01*
X205683333Y-109454761D01*
X205778571Y-109502380D01*
X205969047Y-109502380D01*
X206064285Y-109454761D01*
X206111904Y-109407142D01*
X206159523Y-109311904D01*
X206159523Y-109121428D01*
X206111904Y-109026190D01*
X206064285Y-108978571D01*
X205969047Y-108930952D01*
%TO.C,U6*%
X164538095Y-92202380D02*
X164538095Y-93011904D01*
X164585714Y-93107142D01*
X164633333Y-93154761D01*
X164728571Y-93202380D01*
X164919047Y-93202380D01*
X165014285Y-93154761D01*
X165061904Y-93107142D01*
X165109523Y-93011904D01*
X165109523Y-92202380D01*
X166014285Y-92202380D02*
X165823809Y-92202380D01*
X165728571Y-92250000D01*
X165680952Y-92297619D01*
X165585714Y-92440476D01*
X165538095Y-92630952D01*
X165538095Y-93011904D01*
X165585714Y-93107142D01*
X165633333Y-93154761D01*
X165728571Y-93202380D01*
X165919047Y-93202380D01*
X166014285Y-93154761D01*
X166061904Y-93107142D01*
X166109523Y-93011904D01*
X166109523Y-92773809D01*
X166061904Y-92678571D01*
X166014285Y-92630952D01*
X165919047Y-92583333D01*
X165728571Y-92583333D01*
X165633333Y-92630952D01*
X165585714Y-92678571D01*
X165538095Y-92773809D01*
D10*
%TO.C,C16*%
X195178571Y-119678571D02*
X195154761Y-119702380D01*
X195083333Y-119726190D01*
X195035714Y-119726190D01*
X194964285Y-119702380D01*
X194916666Y-119654761D01*
X194892857Y-119607142D01*
X194869047Y-119511904D01*
X194869047Y-119440476D01*
X194892857Y-119345238D01*
X194916666Y-119297619D01*
X194964285Y-119250000D01*
X195035714Y-119226190D01*
X195083333Y-119226190D01*
X195154761Y-119250000D01*
X195178571Y-119273809D01*
X195654761Y-119726190D02*
X195369047Y-119726190D01*
X195511904Y-119726190D02*
X195511904Y-119226190D01*
X195464285Y-119297619D01*
X195416666Y-119345238D01*
X195369047Y-119369047D01*
X196083333Y-119226190D02*
X195988095Y-119226190D01*
X195940476Y-119250000D01*
X195916666Y-119273809D01*
X195869047Y-119345238D01*
X195845238Y-119440476D01*
X195845238Y-119630952D01*
X195869047Y-119678571D01*
X195892857Y-119702380D01*
X195940476Y-119726190D01*
X196035714Y-119726190D01*
X196083333Y-119702380D01*
X196107142Y-119678571D01*
X196130952Y-119630952D01*
X196130952Y-119511904D01*
X196107142Y-119464285D01*
X196083333Y-119440476D01*
X196035714Y-119416666D01*
X195940476Y-119416666D01*
X195892857Y-119440476D01*
X195869047Y-119464285D01*
X195845238Y-119511904D01*
%TO.C,C30*%
X210878571Y-108878571D02*
X210854761Y-108902380D01*
X210783333Y-108926190D01*
X210735714Y-108926190D01*
X210664285Y-108902380D01*
X210616666Y-108854761D01*
X210592857Y-108807142D01*
X210569047Y-108711904D01*
X210569047Y-108640476D01*
X210592857Y-108545238D01*
X210616666Y-108497619D01*
X210664285Y-108450000D01*
X210735714Y-108426190D01*
X210783333Y-108426190D01*
X210854761Y-108450000D01*
X210878571Y-108473809D01*
X211045238Y-108426190D02*
X211354761Y-108426190D01*
X211188095Y-108616666D01*
X211259523Y-108616666D01*
X211307142Y-108640476D01*
X211330952Y-108664285D01*
X211354761Y-108711904D01*
X211354761Y-108830952D01*
X211330952Y-108878571D01*
X211307142Y-108902380D01*
X211259523Y-108926190D01*
X211116666Y-108926190D01*
X211069047Y-108902380D01*
X211045238Y-108878571D01*
X211664285Y-108426190D02*
X211711904Y-108426190D01*
X211759523Y-108450000D01*
X211783333Y-108473809D01*
X211807142Y-108521428D01*
X211830952Y-108616666D01*
X211830952Y-108735714D01*
X211807142Y-108830952D01*
X211783333Y-108878571D01*
X211759523Y-108902380D01*
X211711904Y-108926190D01*
X211664285Y-108926190D01*
X211616666Y-108902380D01*
X211592857Y-108878571D01*
X211569047Y-108830952D01*
X211545238Y-108735714D01*
X211545238Y-108616666D01*
X211569047Y-108521428D01*
X211592857Y-108473809D01*
X211616666Y-108450000D01*
X211664285Y-108426190D01*
%TO.C,C33*%
X162978571Y-68692319D02*
X162954761Y-68716128D01*
X162883333Y-68739938D01*
X162835714Y-68739938D01*
X162764285Y-68716128D01*
X162716666Y-68668509D01*
X162692857Y-68620890D01*
X162669047Y-68525652D01*
X162669047Y-68454224D01*
X162692857Y-68358986D01*
X162716666Y-68311367D01*
X162764285Y-68263748D01*
X162835714Y-68239938D01*
X162883333Y-68239938D01*
X162954761Y-68263748D01*
X162978571Y-68287557D01*
X163145238Y-68239938D02*
X163454761Y-68239938D01*
X163288095Y-68430414D01*
X163359523Y-68430414D01*
X163407142Y-68454224D01*
X163430952Y-68478033D01*
X163454761Y-68525652D01*
X163454761Y-68644700D01*
X163430952Y-68692319D01*
X163407142Y-68716128D01*
X163359523Y-68739938D01*
X163216666Y-68739938D01*
X163169047Y-68716128D01*
X163145238Y-68692319D01*
X163621428Y-68239938D02*
X163930952Y-68239938D01*
X163764285Y-68430414D01*
X163835714Y-68430414D01*
X163883333Y-68454224D01*
X163907142Y-68478033D01*
X163930952Y-68525652D01*
X163930952Y-68644700D01*
X163907142Y-68692319D01*
X163883333Y-68716128D01*
X163835714Y-68739938D01*
X163692857Y-68739938D01*
X163645238Y-68716128D01*
X163621428Y-68692319D01*
D12*
%TO.C,VBUS*%
X161716666Y-125952380D02*
X162050000Y-126952380D01*
X162383333Y-125952380D01*
X163050000Y-126428571D02*
X163192857Y-126476190D01*
X163240476Y-126523809D01*
X163288095Y-126619047D01*
X163288095Y-126761904D01*
X163240476Y-126857142D01*
X163192857Y-126904761D01*
X163097619Y-126952380D01*
X162716666Y-126952380D01*
X162716666Y-125952380D01*
X163050000Y-125952380D01*
X163145238Y-126000000D01*
X163192857Y-126047619D01*
X163240476Y-126142857D01*
X163240476Y-126238095D01*
X163192857Y-126333333D01*
X163145238Y-126380952D01*
X163050000Y-126428571D01*
X162716666Y-126428571D01*
X163716666Y-125952380D02*
X163716666Y-126761904D01*
X163764285Y-126857142D01*
X163811904Y-126904761D01*
X163907142Y-126952380D01*
X164097619Y-126952380D01*
X164192857Y-126904761D01*
X164240476Y-126857142D01*
X164288095Y-126761904D01*
X164288095Y-125952380D01*
X164716666Y-126904761D02*
X164859523Y-126952380D01*
X165097619Y-126952380D01*
X165192857Y-126904761D01*
X165240476Y-126857142D01*
X165288095Y-126761904D01*
X165288095Y-126666666D01*
X165240476Y-126571428D01*
X165192857Y-126523809D01*
X165097619Y-126476190D01*
X164907142Y-126428571D01*
X164811904Y-126380952D01*
X164764285Y-126333333D01*
X164716666Y-126238095D01*
X164716666Y-126142857D01*
X164764285Y-126047619D01*
X164811904Y-126000000D01*
X164907142Y-125952380D01*
X165145238Y-125952380D01*
X165288095Y-126000000D01*
%TO.C,TX_SCLK*%
X196876190Y-100152380D02*
X197447619Y-100152380D01*
X197161904Y-101152380D02*
X197161904Y-100152380D01*
X197685714Y-100152380D02*
X198352380Y-101152380D01*
X198352380Y-100152380D02*
X197685714Y-101152380D01*
X198495238Y-101247619D02*
X199257142Y-101247619D01*
X199447619Y-101104761D02*
X199590476Y-101152380D01*
X199828571Y-101152380D01*
X199923809Y-101104761D01*
X199971428Y-101057142D01*
X200019047Y-100961904D01*
X200019047Y-100866666D01*
X199971428Y-100771428D01*
X199923809Y-100723809D01*
X199828571Y-100676190D01*
X199638095Y-100628571D01*
X199542857Y-100580952D01*
X199495238Y-100533333D01*
X199447619Y-100438095D01*
X199447619Y-100342857D01*
X199495238Y-100247619D01*
X199542857Y-100200000D01*
X199638095Y-100152380D01*
X199876190Y-100152380D01*
X200019047Y-100200000D01*
X201019047Y-101057142D02*
X200971428Y-101104761D01*
X200828571Y-101152380D01*
X200733333Y-101152380D01*
X200590476Y-101104761D01*
X200495238Y-101009523D01*
X200447619Y-100914285D01*
X200400000Y-100723809D01*
X200400000Y-100580952D01*
X200447619Y-100390476D01*
X200495238Y-100295238D01*
X200590476Y-100200000D01*
X200733333Y-100152380D01*
X200828571Y-100152380D01*
X200971428Y-100200000D01*
X201019047Y-100247619D01*
X201923809Y-101152380D02*
X201447619Y-101152380D01*
X201447619Y-100152380D01*
X202257142Y-101152380D02*
X202257142Y-100152380D01*
X202828571Y-101152380D02*
X202400000Y-100580952D01*
X202828571Y-100152380D02*
X202257142Y-100723809D01*
%TO.C,~{WDO}*%
X214904761Y-109270000D02*
X216047619Y-109270000D01*
X215047619Y-109552380D02*
X215285714Y-110552380D01*
X215476190Y-109838095D01*
X215666666Y-110552380D01*
X215904761Y-109552380D01*
X216047619Y-109270000D02*
X217047619Y-109270000D01*
X216285714Y-110552380D02*
X216285714Y-109552380D01*
X216523809Y-109552380D01*
X216666666Y-109600000D01*
X216761904Y-109695238D01*
X216809523Y-109790476D01*
X216857142Y-109980952D01*
X216857142Y-110123809D01*
X216809523Y-110314285D01*
X216761904Y-110409523D01*
X216666666Y-110504761D01*
X216523809Y-110552380D01*
X216285714Y-110552380D01*
X217047619Y-109270000D02*
X218095238Y-109270000D01*
X217476190Y-109552380D02*
X217666666Y-109552380D01*
X217761904Y-109600000D01*
X217857142Y-109695238D01*
X217904761Y-109885714D01*
X217904761Y-110219047D01*
X217857142Y-110409523D01*
X217761904Y-110504761D01*
X217666666Y-110552380D01*
X217476190Y-110552380D01*
X217380952Y-110504761D01*
X217285714Y-110409523D01*
X217238095Y-110219047D01*
X217238095Y-109885714D01*
X217285714Y-109695238D01*
X217380952Y-109600000D01*
X217476190Y-109552380D01*
%TO.C,TP15*%
X177211904Y-98202380D02*
X177783333Y-98202380D01*
X177497619Y-99202380D02*
X177497619Y-98202380D01*
X178116666Y-99202380D02*
X178116666Y-98202380D01*
X178497619Y-98202380D01*
X178592857Y-98250000D01*
X178640476Y-98297619D01*
X178688095Y-98392857D01*
X178688095Y-98535714D01*
X178640476Y-98630952D01*
X178592857Y-98678571D01*
X178497619Y-98726190D01*
X178116666Y-98726190D01*
X179640476Y-99202380D02*
X179069047Y-99202380D01*
X179354761Y-99202380D02*
X179354761Y-98202380D01*
X179259523Y-98345238D01*
X179164285Y-98440476D01*
X179069047Y-98488095D01*
X180545238Y-98202380D02*
X180069047Y-98202380D01*
X180021428Y-98678571D01*
X180069047Y-98630952D01*
X180164285Y-98583333D01*
X180402380Y-98583333D01*
X180497619Y-98630952D01*
X180545238Y-98678571D01*
X180592857Y-98773809D01*
X180592857Y-99011904D01*
X180545238Y-99107142D01*
X180497619Y-99154761D01*
X180402380Y-99202380D01*
X180164285Y-99202380D01*
X180069047Y-99154761D01*
X180021428Y-99107142D01*
%TO.C,J2*%
X165266666Y-56452380D02*
X165266666Y-57166666D01*
X165219047Y-57309523D01*
X165123809Y-57404761D01*
X164980952Y-57452380D01*
X164885714Y-57452380D01*
X165695238Y-56547619D02*
X165742857Y-56500000D01*
X165838095Y-56452380D01*
X166076190Y-56452380D01*
X166171428Y-56500000D01*
X166219047Y-56547619D01*
X166266666Y-56642857D01*
X166266666Y-56738095D01*
X166219047Y-56880952D01*
X165647619Y-57452380D01*
X166266666Y-57452380D01*
D13*
%TO.C,FB1*%
X198715878Y-107608084D02*
X198715878Y-107739317D01*
X198922102Y-107739317D02*
X198528401Y-107739317D01*
X198528401Y-107551841D01*
X198715878Y-107270626D02*
X198734626Y-107214383D01*
X198753373Y-107195635D01*
X198790869Y-107176887D01*
X198847112Y-107176887D01*
X198884607Y-107195635D01*
X198903355Y-107214383D01*
X198922102Y-107251878D01*
X198922102Y-107401859D01*
X198528401Y-107401859D01*
X198528401Y-107270626D01*
X198547149Y-107233130D01*
X198565897Y-107214383D01*
X198603392Y-107195635D01*
X198640887Y-107195635D01*
X198678383Y-107214383D01*
X198697130Y-107233130D01*
X198715878Y-107270626D01*
X198715878Y-107401859D01*
X198922102Y-106801934D02*
X198922102Y-107026906D01*
X198922102Y-106914420D02*
X198528401Y-106914420D01*
X198584644Y-106951915D01*
X198622140Y-106989411D01*
X198640887Y-107026906D01*
D10*
%TO.C,C12*%
X181028571Y-105378571D02*
X181004761Y-105402380D01*
X180933333Y-105426190D01*
X180885714Y-105426190D01*
X180814285Y-105402380D01*
X180766666Y-105354761D01*
X180742857Y-105307142D01*
X180719047Y-105211904D01*
X180719047Y-105140476D01*
X180742857Y-105045238D01*
X180766666Y-104997619D01*
X180814285Y-104950000D01*
X180885714Y-104926190D01*
X180933333Y-104926190D01*
X181004761Y-104950000D01*
X181028571Y-104973809D01*
X181504761Y-105426190D02*
X181219047Y-105426190D01*
X181361904Y-105426190D02*
X181361904Y-104926190D01*
X181314285Y-104997619D01*
X181266666Y-105045238D01*
X181219047Y-105069047D01*
X181695238Y-104973809D02*
X181719047Y-104950000D01*
X181766666Y-104926190D01*
X181885714Y-104926190D01*
X181933333Y-104950000D01*
X181957142Y-104973809D01*
X181980952Y-105021428D01*
X181980952Y-105069047D01*
X181957142Y-105140476D01*
X181671428Y-105426190D01*
X181980952Y-105426190D01*
D12*
%TO.C,+3V3*%
X174238095Y-130071428D02*
X175000000Y-130071428D01*
X174619047Y-130452380D02*
X174619047Y-129690476D01*
X175380952Y-129452380D02*
X176000000Y-129452380D01*
X175666666Y-129833333D01*
X175809523Y-129833333D01*
X175904761Y-129880952D01*
X175952380Y-129928571D01*
X176000000Y-130023809D01*
X176000000Y-130261904D01*
X175952380Y-130357142D01*
X175904761Y-130404761D01*
X175809523Y-130452380D01*
X175523809Y-130452380D01*
X175428571Y-130404761D01*
X175380952Y-130357142D01*
X176285714Y-129452380D02*
X176619047Y-130452380D01*
X176952380Y-129452380D01*
X177190476Y-129452380D02*
X177809523Y-129452380D01*
X177476190Y-129833333D01*
X177619047Y-129833333D01*
X177714285Y-129880952D01*
X177761904Y-129928571D01*
X177809523Y-130023809D01*
X177809523Y-130261904D01*
X177761904Y-130357142D01*
X177714285Y-130404761D01*
X177619047Y-130452380D01*
X177333333Y-130452380D01*
X177238095Y-130404761D01*
X177190476Y-130357142D01*
%TO.C,RX_En*%
X181597619Y-83852380D02*
X181264285Y-83376190D01*
X181026190Y-83852380D02*
X181026190Y-82852380D01*
X181407142Y-82852380D01*
X181502380Y-82900000D01*
X181550000Y-82947619D01*
X181597619Y-83042857D01*
X181597619Y-83185714D01*
X181550000Y-83280952D01*
X181502380Y-83328571D01*
X181407142Y-83376190D01*
X181026190Y-83376190D01*
X181930952Y-82852380D02*
X182597619Y-83852380D01*
X182597619Y-82852380D02*
X181930952Y-83852380D01*
X182740476Y-83947619D02*
X183502380Y-83947619D01*
X183740476Y-83328571D02*
X184073809Y-83328571D01*
X184216666Y-83852380D02*
X183740476Y-83852380D01*
X183740476Y-82852380D01*
X184216666Y-82852380D01*
X184645238Y-83185714D02*
X184645238Y-83852380D01*
X184645238Y-83280952D02*
X184692857Y-83233333D01*
X184788095Y-83185714D01*
X184930952Y-83185714D01*
X185026190Y-83233333D01*
X185073809Y-83328571D01*
X185073809Y-83852380D01*
%TO.C,Y1*%
X200773809Y-117376190D02*
X200773809Y-117852380D01*
X200440476Y-116852380D02*
X200773809Y-117376190D01*
X201107142Y-116852380D01*
X201964285Y-117852380D02*
X201392857Y-117852380D01*
X201678571Y-117852380D02*
X201678571Y-116852380D01*
X201583333Y-116995238D01*
X201488095Y-117090476D01*
X201392857Y-117138095D01*
D10*
%TO.C,C34*%
X161478571Y-92278571D02*
X161454761Y-92302380D01*
X161383333Y-92326190D01*
X161335714Y-92326190D01*
X161264285Y-92302380D01*
X161216666Y-92254761D01*
X161192857Y-92207142D01*
X161169047Y-92111904D01*
X161169047Y-92040476D01*
X161192857Y-91945238D01*
X161216666Y-91897619D01*
X161264285Y-91850000D01*
X161335714Y-91826190D01*
X161383333Y-91826190D01*
X161454761Y-91850000D01*
X161478571Y-91873809D01*
X161645238Y-91826190D02*
X161954761Y-91826190D01*
X161788095Y-92016666D01*
X161859523Y-92016666D01*
X161907142Y-92040476D01*
X161930952Y-92064285D01*
X161954761Y-92111904D01*
X161954761Y-92230952D01*
X161930952Y-92278571D01*
X161907142Y-92302380D01*
X161859523Y-92326190D01*
X161716666Y-92326190D01*
X161669047Y-92302380D01*
X161645238Y-92278571D01*
X162383333Y-91992857D02*
X162383333Y-92326190D01*
X162264285Y-91802380D02*
X162145238Y-92159523D01*
X162454761Y-92159523D01*
%TO.C,IC1*%
X158111904Y-73176190D02*
X158111904Y-72676190D01*
X158635714Y-73128571D02*
X158611904Y-73152380D01*
X158540476Y-73176190D01*
X158492857Y-73176190D01*
X158421428Y-73152380D01*
X158373809Y-73104761D01*
X158350000Y-73057142D01*
X158326190Y-72961904D01*
X158326190Y-72890476D01*
X158350000Y-72795238D01*
X158373809Y-72747619D01*
X158421428Y-72700000D01*
X158492857Y-72676190D01*
X158540476Y-72676190D01*
X158611904Y-72700000D01*
X158635714Y-72723809D01*
X159111904Y-73176190D02*
X158826190Y-73176190D01*
X158969047Y-73176190D02*
X158969047Y-72676190D01*
X158921428Y-72747619D01*
X158873809Y-72795238D01*
X158826190Y-72819047D01*
%TO.C,C26*%
X174728571Y-91428571D02*
X174704761Y-91452380D01*
X174633333Y-91476190D01*
X174585714Y-91476190D01*
X174514285Y-91452380D01*
X174466666Y-91404761D01*
X174442857Y-91357142D01*
X174419047Y-91261904D01*
X174419047Y-91190476D01*
X174442857Y-91095238D01*
X174466666Y-91047619D01*
X174514285Y-91000000D01*
X174585714Y-90976190D01*
X174633333Y-90976190D01*
X174704761Y-91000000D01*
X174728571Y-91023809D01*
X174919047Y-91023809D02*
X174942857Y-91000000D01*
X174990476Y-90976190D01*
X175109523Y-90976190D01*
X175157142Y-91000000D01*
X175180952Y-91023809D01*
X175204761Y-91071428D01*
X175204761Y-91119047D01*
X175180952Y-91190476D01*
X174895238Y-91476190D01*
X175204761Y-91476190D01*
X175633333Y-90976190D02*
X175538095Y-90976190D01*
X175490476Y-91000000D01*
X175466666Y-91023809D01*
X175419047Y-91095238D01*
X175395238Y-91190476D01*
X175395238Y-91380952D01*
X175419047Y-91428571D01*
X175442857Y-91452380D01*
X175490476Y-91476190D01*
X175585714Y-91476190D01*
X175633333Y-91452380D01*
X175657142Y-91428571D01*
X175680952Y-91380952D01*
X175680952Y-91261904D01*
X175657142Y-91214285D01*
X175633333Y-91190476D01*
X175585714Y-91166666D01*
X175490476Y-91166666D01*
X175442857Y-91190476D01*
X175419047Y-91214285D01*
X175395238Y-91261904D01*
%TO.C,C9*%
X195366666Y-105628571D02*
X195342857Y-105652380D01*
X195271428Y-105676190D01*
X195223809Y-105676190D01*
X195152380Y-105652380D01*
X195104761Y-105604761D01*
X195080952Y-105557142D01*
X195057142Y-105461904D01*
X195057142Y-105390476D01*
X195080952Y-105295238D01*
X195104761Y-105247619D01*
X195152380Y-105200000D01*
X195223809Y-105176190D01*
X195271428Y-105176190D01*
X195342857Y-105200000D01*
X195366666Y-105223809D01*
X195604761Y-105676190D02*
X195700000Y-105676190D01*
X195747619Y-105652380D01*
X195771428Y-105628571D01*
X195819047Y-105557142D01*
X195842857Y-105461904D01*
X195842857Y-105271428D01*
X195819047Y-105223809D01*
X195795238Y-105200000D01*
X195747619Y-105176190D01*
X195652380Y-105176190D01*
X195604761Y-105200000D01*
X195580952Y-105223809D01*
X195557142Y-105271428D01*
X195557142Y-105390476D01*
X195580952Y-105438095D01*
X195604761Y-105461904D01*
X195652380Y-105485714D01*
X195747619Y-105485714D01*
X195795238Y-105461904D01*
X195819047Y-105438095D01*
X195842857Y-105390476D01*
D12*
%TO.C,TX_SDN*%
X178057142Y-91332380D02*
X178628571Y-91332380D01*
X178342857Y-92332380D02*
X178342857Y-91332380D01*
X178866666Y-91332380D02*
X179533333Y-92332380D01*
X179533333Y-91332380D02*
X178866666Y-92332380D01*
X179676190Y-92427619D02*
X180438095Y-92427619D01*
X180628571Y-92284761D02*
X180771428Y-92332380D01*
X181009523Y-92332380D01*
X181104761Y-92284761D01*
X181152380Y-92237142D01*
X181200000Y-92141904D01*
X181200000Y-92046666D01*
X181152380Y-91951428D01*
X181104761Y-91903809D01*
X181009523Y-91856190D01*
X180819047Y-91808571D01*
X180723809Y-91760952D01*
X180676190Y-91713333D01*
X180628571Y-91618095D01*
X180628571Y-91522857D01*
X180676190Y-91427619D01*
X180723809Y-91380000D01*
X180819047Y-91332380D01*
X181057142Y-91332380D01*
X181200000Y-91380000D01*
X181628571Y-92332380D02*
X181628571Y-91332380D01*
X181866666Y-91332380D01*
X182009523Y-91380000D01*
X182104761Y-91475238D01*
X182152380Y-91570476D01*
X182200000Y-91760952D01*
X182200000Y-91903809D01*
X182152380Y-92094285D01*
X182104761Y-92189523D01*
X182009523Y-92284761D01*
X181866666Y-92332380D01*
X181628571Y-92332380D01*
X182628571Y-92332380D02*
X182628571Y-91332380D01*
X183200000Y-92332380D01*
X183200000Y-91332380D01*
D10*
%TO.C,C22*%
X170878571Y-84728571D02*
X170854761Y-84752380D01*
X170783333Y-84776190D01*
X170735714Y-84776190D01*
X170664285Y-84752380D01*
X170616666Y-84704761D01*
X170592857Y-84657142D01*
X170569047Y-84561904D01*
X170569047Y-84490476D01*
X170592857Y-84395238D01*
X170616666Y-84347619D01*
X170664285Y-84300000D01*
X170735714Y-84276190D01*
X170783333Y-84276190D01*
X170854761Y-84300000D01*
X170878571Y-84323809D01*
X171069047Y-84323809D02*
X171092857Y-84300000D01*
X171140476Y-84276190D01*
X171259523Y-84276190D01*
X171307142Y-84300000D01*
X171330952Y-84323809D01*
X171354761Y-84371428D01*
X171354761Y-84419047D01*
X171330952Y-84490476D01*
X171045238Y-84776190D01*
X171354761Y-84776190D01*
X171545238Y-84323809D02*
X171569047Y-84300000D01*
X171616666Y-84276190D01*
X171735714Y-84276190D01*
X171783333Y-84300000D01*
X171807142Y-84323809D01*
X171830952Y-84371428D01*
X171830952Y-84419047D01*
X171807142Y-84490476D01*
X171521428Y-84776190D01*
X171830952Y-84776190D01*
D12*
%TO.C,GND*%
X208538095Y-103400000D02*
X208442857Y-103352380D01*
X208300000Y-103352380D01*
X208157142Y-103400000D01*
X208061904Y-103495238D01*
X208014285Y-103590476D01*
X207966666Y-103780952D01*
X207966666Y-103923809D01*
X208014285Y-104114285D01*
X208061904Y-104209523D01*
X208157142Y-104304761D01*
X208300000Y-104352380D01*
X208395238Y-104352380D01*
X208538095Y-104304761D01*
X208585714Y-104257142D01*
X208585714Y-103923809D01*
X208395238Y-103923809D01*
X209014285Y-104352380D02*
X209014285Y-103352380D01*
X209585714Y-104352380D01*
X209585714Y-103352380D01*
X210061904Y-104352380D02*
X210061904Y-103352380D01*
X210300000Y-103352380D01*
X210442857Y-103400000D01*
X210538095Y-103495238D01*
X210585714Y-103590476D01*
X210633333Y-103780952D01*
X210633333Y-103923809D01*
X210585714Y-104114285D01*
X210538095Y-104209523D01*
X210442857Y-104304761D01*
X210300000Y-104352380D01*
X210061904Y-104352380D01*
D10*
%TO.C,C25*%
X167628571Y-92628571D02*
X167604761Y-92652380D01*
X167533333Y-92676190D01*
X167485714Y-92676190D01*
X167414285Y-92652380D01*
X167366666Y-92604761D01*
X167342857Y-92557142D01*
X167319047Y-92461904D01*
X167319047Y-92390476D01*
X167342857Y-92295238D01*
X167366666Y-92247619D01*
X167414285Y-92200000D01*
X167485714Y-92176190D01*
X167533333Y-92176190D01*
X167604761Y-92200000D01*
X167628571Y-92223809D01*
X167819047Y-92223809D02*
X167842857Y-92200000D01*
X167890476Y-92176190D01*
X168009523Y-92176190D01*
X168057142Y-92200000D01*
X168080952Y-92223809D01*
X168104761Y-92271428D01*
X168104761Y-92319047D01*
X168080952Y-92390476D01*
X167795238Y-92676190D01*
X168104761Y-92676190D01*
X168557142Y-92176190D02*
X168319047Y-92176190D01*
X168295238Y-92414285D01*
X168319047Y-92390476D01*
X168366666Y-92366666D01*
X168485714Y-92366666D01*
X168533333Y-92390476D01*
X168557142Y-92414285D01*
X168580952Y-92461904D01*
X168580952Y-92580952D01*
X168557142Y-92628571D01*
X168533333Y-92652380D01*
X168485714Y-92676190D01*
X168366666Y-92676190D01*
X168319047Y-92652380D01*
X168295238Y-92628571D01*
%TO.C,C5*%
X174516666Y-138078571D02*
X174492857Y-138102380D01*
X174421428Y-138126190D01*
X174373809Y-138126190D01*
X174302380Y-138102380D01*
X174254761Y-138054761D01*
X174230952Y-138007142D01*
X174207142Y-137911904D01*
X174207142Y-137840476D01*
X174230952Y-137745238D01*
X174254761Y-137697619D01*
X174302380Y-137650000D01*
X174373809Y-137626190D01*
X174421428Y-137626190D01*
X174492857Y-137650000D01*
X174516666Y-137673809D01*
X174969047Y-137626190D02*
X174730952Y-137626190D01*
X174707142Y-137864285D01*
X174730952Y-137840476D01*
X174778571Y-137816666D01*
X174897619Y-137816666D01*
X174945238Y-137840476D01*
X174969047Y-137864285D01*
X174992857Y-137911904D01*
X174992857Y-138030952D01*
X174969047Y-138078571D01*
X174945238Y-138102380D01*
X174897619Y-138126190D01*
X174778571Y-138126190D01*
X174730952Y-138102380D01*
X174707142Y-138078571D01*
%TO.C,C20*%
X160178571Y-81528571D02*
X160154761Y-81552380D01*
X160083333Y-81576190D01*
X160035714Y-81576190D01*
X159964285Y-81552380D01*
X159916666Y-81504761D01*
X159892857Y-81457142D01*
X159869047Y-81361904D01*
X159869047Y-81290476D01*
X159892857Y-81195238D01*
X159916666Y-81147619D01*
X159964285Y-81100000D01*
X160035714Y-81076190D01*
X160083333Y-81076190D01*
X160154761Y-81100000D01*
X160178571Y-81123809D01*
X160369047Y-81123809D02*
X160392857Y-81100000D01*
X160440476Y-81076190D01*
X160559523Y-81076190D01*
X160607142Y-81100000D01*
X160630952Y-81123809D01*
X160654761Y-81171428D01*
X160654761Y-81219047D01*
X160630952Y-81290476D01*
X160345238Y-81576190D01*
X160654761Y-81576190D01*
X160964285Y-81076190D02*
X161011904Y-81076190D01*
X161059523Y-81100000D01*
X161083333Y-81123809D01*
X161107142Y-81171428D01*
X161130952Y-81266666D01*
X161130952Y-81385714D01*
X161107142Y-81480952D01*
X161083333Y-81528571D01*
X161059523Y-81552380D01*
X161011904Y-81576190D01*
X160964285Y-81576190D01*
X160916666Y-81552380D01*
X160892857Y-81528571D01*
X160869047Y-81480952D01*
X160845238Y-81385714D01*
X160845238Y-81266666D01*
X160869047Y-81171428D01*
X160892857Y-81123809D01*
X160916666Y-81100000D01*
X160964285Y-81076190D01*
%TO.C,C21*%
X169178571Y-82128571D02*
X169154761Y-82152380D01*
X169083333Y-82176190D01*
X169035714Y-82176190D01*
X168964285Y-82152380D01*
X168916666Y-82104761D01*
X168892857Y-82057142D01*
X168869047Y-81961904D01*
X168869047Y-81890476D01*
X168892857Y-81795238D01*
X168916666Y-81747619D01*
X168964285Y-81700000D01*
X169035714Y-81676190D01*
X169083333Y-81676190D01*
X169154761Y-81700000D01*
X169178571Y-81723809D01*
X169369047Y-81723809D02*
X169392857Y-81700000D01*
X169440476Y-81676190D01*
X169559523Y-81676190D01*
X169607142Y-81700000D01*
X169630952Y-81723809D01*
X169654761Y-81771428D01*
X169654761Y-81819047D01*
X169630952Y-81890476D01*
X169345238Y-82176190D01*
X169654761Y-82176190D01*
X170130952Y-82176190D02*
X169845238Y-82176190D01*
X169988095Y-82176190D02*
X169988095Y-81676190D01*
X169940476Y-81747619D01*
X169892857Y-81795238D01*
X169845238Y-81819047D01*
%TO.C,L2*%
X168616666Y-84776190D02*
X168378571Y-84776190D01*
X168378571Y-84276190D01*
X168759523Y-84323809D02*
X168783333Y-84300000D01*
X168830952Y-84276190D01*
X168950000Y-84276190D01*
X168997619Y-84300000D01*
X169021428Y-84323809D01*
X169045238Y-84371428D01*
X169045238Y-84419047D01*
X169021428Y-84490476D01*
X168735714Y-84776190D01*
X169045238Y-84776190D01*
D12*
%TO.C,GND*%
X188888095Y-97300000D02*
X188792857Y-97252380D01*
X188650000Y-97252380D01*
X188507142Y-97300000D01*
X188411904Y-97395238D01*
X188364285Y-97490476D01*
X188316666Y-97680952D01*
X188316666Y-97823809D01*
X188364285Y-98014285D01*
X188411904Y-98109523D01*
X188507142Y-98204761D01*
X188650000Y-98252380D01*
X188745238Y-98252380D01*
X188888095Y-98204761D01*
X188935714Y-98157142D01*
X188935714Y-97823809D01*
X188745238Y-97823809D01*
X189364285Y-98252380D02*
X189364285Y-97252380D01*
X189935714Y-98252380D01*
X189935714Y-97252380D01*
X190411904Y-98252380D02*
X190411904Y-97252380D01*
X190650000Y-97252380D01*
X190792857Y-97300000D01*
X190888095Y-97395238D01*
X190935714Y-97490476D01*
X190983333Y-97680952D01*
X190983333Y-97823809D01*
X190935714Y-98014285D01*
X190888095Y-98109523D01*
X190792857Y-98204761D01*
X190650000Y-98252380D01*
X190411904Y-98252380D01*
D10*
%TO.C,L1*%
X165116666Y-82476190D02*
X164878571Y-82476190D01*
X164878571Y-81976190D01*
X165545238Y-82476190D02*
X165259523Y-82476190D01*
X165402380Y-82476190D02*
X165402380Y-81976190D01*
X165354761Y-82047619D01*
X165307142Y-82095238D01*
X165259523Y-82119047D01*
D12*
%TO.C,SW1*%
X205066666Y-120204761D02*
X205209523Y-120252380D01*
X205447619Y-120252380D01*
X205542857Y-120204761D01*
X205590476Y-120157142D01*
X205638095Y-120061904D01*
X205638095Y-119966666D01*
X205590476Y-119871428D01*
X205542857Y-119823809D01*
X205447619Y-119776190D01*
X205257142Y-119728571D01*
X205161904Y-119680952D01*
X205114285Y-119633333D01*
X205066666Y-119538095D01*
X205066666Y-119442857D01*
X205114285Y-119347619D01*
X205161904Y-119300000D01*
X205257142Y-119252380D01*
X205495238Y-119252380D01*
X205638095Y-119300000D01*
X205971428Y-119252380D02*
X206209523Y-120252380D01*
X206400000Y-119538095D01*
X206590476Y-120252380D01*
X206828571Y-119252380D01*
X207733333Y-120252380D02*
X207161904Y-120252380D01*
X207447619Y-120252380D02*
X207447619Y-119252380D01*
X207352380Y-119395238D01*
X207257142Y-119490476D01*
X207161904Y-119538095D01*
D10*
%TO.C,L7*%
X161166666Y-70576190D02*
X160928571Y-70576190D01*
X160928571Y-70076190D01*
X161285714Y-70076190D02*
X161619047Y-70076190D01*
X161404761Y-70576190D01*
%TO.C,R8*%
X176366666Y-138126190D02*
X176200000Y-137888095D01*
X176080952Y-138126190D02*
X176080952Y-137626190D01*
X176271428Y-137626190D01*
X176319047Y-137650000D01*
X176342857Y-137673809D01*
X176366666Y-137721428D01*
X176366666Y-137792857D01*
X176342857Y-137840476D01*
X176319047Y-137864285D01*
X176271428Y-137888095D01*
X176080952Y-137888095D01*
X176652380Y-137840476D02*
X176604761Y-137816666D01*
X176580952Y-137792857D01*
X176557142Y-137745238D01*
X176557142Y-137721428D01*
X176580952Y-137673809D01*
X176604761Y-137650000D01*
X176652380Y-137626190D01*
X176747619Y-137626190D01*
X176795238Y-137650000D01*
X176819047Y-137673809D01*
X176842857Y-137721428D01*
X176842857Y-137745238D01*
X176819047Y-137792857D01*
X176795238Y-137816666D01*
X176747619Y-137840476D01*
X176652380Y-137840476D01*
X176604761Y-137864285D01*
X176580952Y-137888095D01*
X176557142Y-137935714D01*
X176557142Y-138030952D01*
X176580952Y-138078571D01*
X176604761Y-138102380D01*
X176652380Y-138126190D01*
X176747619Y-138126190D01*
X176795238Y-138102380D01*
X176819047Y-138078571D01*
X176842857Y-138030952D01*
X176842857Y-137935714D01*
X176819047Y-137888095D01*
X176795238Y-137864285D01*
X176747619Y-137840476D01*
D12*
%TO.C,C2*%
X194016333Y-123022142D02*
X193968714Y-123069761D01*
X193825857Y-123117380D01*
X193730619Y-123117380D01*
X193587761Y-123069761D01*
X193492523Y-122974523D01*
X193444904Y-122879285D01*
X193397285Y-122688809D01*
X193397285Y-122545952D01*
X193444904Y-122355476D01*
X193492523Y-122260238D01*
X193587761Y-122165000D01*
X193730619Y-122117380D01*
X193825857Y-122117380D01*
X193968714Y-122165000D01*
X194016333Y-122212619D01*
X194397285Y-122212619D02*
X194444904Y-122165000D01*
X194540142Y-122117380D01*
X194778238Y-122117380D01*
X194873476Y-122165000D01*
X194921095Y-122212619D01*
X194968714Y-122307857D01*
X194968714Y-122403095D01*
X194921095Y-122545952D01*
X194349666Y-123117380D01*
X194968714Y-123117380D01*
%TO.C,SW2*%
X179616666Y-125654761D02*
X179759523Y-125702380D01*
X179997619Y-125702380D01*
X180092857Y-125654761D01*
X180140476Y-125607142D01*
X180188095Y-125511904D01*
X180188095Y-125416666D01*
X180140476Y-125321428D01*
X180092857Y-125273809D01*
X179997619Y-125226190D01*
X179807142Y-125178571D01*
X179711904Y-125130952D01*
X179664285Y-125083333D01*
X179616666Y-124988095D01*
X179616666Y-124892857D01*
X179664285Y-124797619D01*
X179711904Y-124750000D01*
X179807142Y-124702380D01*
X180045238Y-124702380D01*
X180188095Y-124750000D01*
X180521428Y-124702380D02*
X180759523Y-125702380D01*
X180950000Y-124988095D01*
X181140476Y-125702380D01*
X181378571Y-124702380D01*
X181711904Y-124797619D02*
X181759523Y-124750000D01*
X181854761Y-124702380D01*
X182092857Y-124702380D01*
X182188095Y-124750000D01*
X182235714Y-124797619D01*
X182283333Y-124892857D01*
X182283333Y-124988095D01*
X182235714Y-125130952D01*
X181664285Y-125702380D01*
X182283333Y-125702380D01*
D10*
%TO.C,C13*%
X205528571Y-132328571D02*
X205504761Y-132352380D01*
X205433333Y-132376190D01*
X205385714Y-132376190D01*
X205314285Y-132352380D01*
X205266666Y-132304761D01*
X205242857Y-132257142D01*
X205219047Y-132161904D01*
X205219047Y-132090476D01*
X205242857Y-131995238D01*
X205266666Y-131947619D01*
X205314285Y-131900000D01*
X205385714Y-131876190D01*
X205433333Y-131876190D01*
X205504761Y-131900000D01*
X205528571Y-131923809D01*
X206004761Y-132376190D02*
X205719047Y-132376190D01*
X205861904Y-132376190D02*
X205861904Y-131876190D01*
X205814285Y-131947619D01*
X205766666Y-131995238D01*
X205719047Y-132019047D01*
X206171428Y-131876190D02*
X206480952Y-131876190D01*
X206314285Y-132066666D01*
X206385714Y-132066666D01*
X206433333Y-132090476D01*
X206457142Y-132114285D01*
X206480952Y-132161904D01*
X206480952Y-132280952D01*
X206457142Y-132328571D01*
X206433333Y-132352380D01*
X206385714Y-132376190D01*
X206242857Y-132376190D01*
X206195238Y-132352380D01*
X206171428Y-132328571D01*
D12*
%TO.C,J3*%
X151766666Y-128102380D02*
X151766666Y-128816666D01*
X151719047Y-128959523D01*
X151623809Y-129054761D01*
X151480952Y-129102380D01*
X151385714Y-129102380D01*
X152147619Y-128102380D02*
X152766666Y-128102380D01*
X152433333Y-128483333D01*
X152576190Y-128483333D01*
X152671428Y-128530952D01*
X152719047Y-128578571D01*
X152766666Y-128673809D01*
X152766666Y-128911904D01*
X152719047Y-129007142D01*
X152671428Y-129054761D01*
X152576190Y-129102380D01*
X152290476Y-129102380D01*
X152195238Y-129054761D01*
X152147619Y-129007142D01*
D10*
%TO.C,C14*%
X188978571Y-104278571D02*
X188954761Y-104302380D01*
X188883333Y-104326190D01*
X188835714Y-104326190D01*
X188764285Y-104302380D01*
X188716666Y-104254761D01*
X188692857Y-104207142D01*
X188669047Y-104111904D01*
X188669047Y-104040476D01*
X188692857Y-103945238D01*
X188716666Y-103897619D01*
X188764285Y-103850000D01*
X188835714Y-103826190D01*
X188883333Y-103826190D01*
X188954761Y-103850000D01*
X188978571Y-103873809D01*
X189454761Y-104326190D02*
X189169047Y-104326190D01*
X189311904Y-104326190D02*
X189311904Y-103826190D01*
X189264285Y-103897619D01*
X189216666Y-103945238D01*
X189169047Y-103969047D01*
X189883333Y-103992857D02*
X189883333Y-104326190D01*
X189764285Y-103802380D02*
X189645238Y-104159523D01*
X189954761Y-104159523D01*
%TO.C,R13*%
X158828571Y-106476190D02*
X158661904Y-106238095D01*
X158542857Y-106476190D02*
X158542857Y-105976190D01*
X158733333Y-105976190D01*
X158780952Y-106000000D01*
X158804761Y-106023809D01*
X158828571Y-106071428D01*
X158828571Y-106142857D01*
X158804761Y-106190476D01*
X158780952Y-106214285D01*
X158733333Y-106238095D01*
X158542857Y-106238095D01*
X159304761Y-106476190D02*
X159019047Y-106476190D01*
X159161904Y-106476190D02*
X159161904Y-105976190D01*
X159114285Y-106047619D01*
X159066666Y-106095238D01*
X159019047Y-106119047D01*
X159471428Y-105976190D02*
X159780952Y-105976190D01*
X159614285Y-106166666D01*
X159685714Y-106166666D01*
X159733333Y-106190476D01*
X159757142Y-106214285D01*
X159780952Y-106261904D01*
X159780952Y-106380952D01*
X159757142Y-106428571D01*
X159733333Y-106452380D01*
X159685714Y-106476190D01*
X159542857Y-106476190D01*
X159495238Y-106452380D01*
X159471428Y-106428571D01*
%TO.C,C35*%
X158728571Y-88578571D02*
X158704761Y-88602380D01*
X158633333Y-88626190D01*
X158585714Y-88626190D01*
X158514285Y-88602380D01*
X158466666Y-88554761D01*
X158442857Y-88507142D01*
X158419047Y-88411904D01*
X158419047Y-88340476D01*
X158442857Y-88245238D01*
X158466666Y-88197619D01*
X158514285Y-88150000D01*
X158585714Y-88126190D01*
X158633333Y-88126190D01*
X158704761Y-88150000D01*
X158728571Y-88173809D01*
X158895238Y-88126190D02*
X159204761Y-88126190D01*
X159038095Y-88316666D01*
X159109523Y-88316666D01*
X159157142Y-88340476D01*
X159180952Y-88364285D01*
X159204761Y-88411904D01*
X159204761Y-88530952D01*
X159180952Y-88578571D01*
X159157142Y-88602380D01*
X159109523Y-88626190D01*
X158966666Y-88626190D01*
X158919047Y-88602380D01*
X158895238Y-88578571D01*
X159657142Y-88126190D02*
X159419047Y-88126190D01*
X159395238Y-88364285D01*
X159419047Y-88340476D01*
X159466666Y-88316666D01*
X159585714Y-88316666D01*
X159633333Y-88340476D01*
X159657142Y-88364285D01*
X159680952Y-88411904D01*
X159680952Y-88530952D01*
X159657142Y-88578571D01*
X159633333Y-88602380D01*
X159585714Y-88626190D01*
X159466666Y-88626190D01*
X159419047Y-88602380D01*
X159395238Y-88578571D01*
D12*
%TO.C,WEN*%
X214345238Y-103644380D02*
X214583333Y-104644380D01*
X214773809Y-103930095D01*
X214964285Y-104644380D01*
X215202380Y-103644380D01*
X215583333Y-104120571D02*
X215916666Y-104120571D01*
X216059523Y-104644380D02*
X215583333Y-104644380D01*
X215583333Y-103644380D01*
X216059523Y-103644380D01*
X216488095Y-104644380D02*
X216488095Y-103644380D01*
X217059523Y-104644380D01*
X217059523Y-103644380D01*
%TO.C,C3*%
X173633333Y-95507142D02*
X173585714Y-95554761D01*
X173442857Y-95602380D01*
X173347619Y-95602380D01*
X173204761Y-95554761D01*
X173109523Y-95459523D01*
X173061904Y-95364285D01*
X173014285Y-95173809D01*
X173014285Y-95030952D01*
X173061904Y-94840476D01*
X173109523Y-94745238D01*
X173204761Y-94650000D01*
X173347619Y-94602380D01*
X173442857Y-94602380D01*
X173585714Y-94650000D01*
X173633333Y-94697619D01*
X173966666Y-94602380D02*
X174585714Y-94602380D01*
X174252380Y-94983333D01*
X174395238Y-94983333D01*
X174490476Y-95030952D01*
X174538095Y-95078571D01*
X174585714Y-95173809D01*
X174585714Y-95411904D01*
X174538095Y-95507142D01*
X174490476Y-95554761D01*
X174395238Y-95602380D01*
X174109523Y-95602380D01*
X174014285Y-95554761D01*
X173966666Y-95507142D01*
%TO.C,J1*%
X149516666Y-99552380D02*
X149516666Y-100266666D01*
X149469047Y-100409523D01*
X149373809Y-100504761D01*
X149230952Y-100552380D01*
X149135714Y-100552380D01*
X150516666Y-100552380D02*
X149945238Y-100552380D01*
X150230952Y-100552380D02*
X150230952Y-99552380D01*
X150135714Y-99695238D01*
X150040476Y-99790476D01*
X149945238Y-99838095D01*
D10*
%TO.C,C29*%
X154128571Y-76778571D02*
X154104761Y-76802380D01*
X154033333Y-76826190D01*
X153985714Y-76826190D01*
X153914285Y-76802380D01*
X153866666Y-76754761D01*
X153842857Y-76707142D01*
X153819047Y-76611904D01*
X153819047Y-76540476D01*
X153842857Y-76445238D01*
X153866666Y-76397619D01*
X153914285Y-76350000D01*
X153985714Y-76326190D01*
X154033333Y-76326190D01*
X154104761Y-76350000D01*
X154128571Y-76373809D01*
X154319047Y-76373809D02*
X154342857Y-76350000D01*
X154390476Y-76326190D01*
X154509523Y-76326190D01*
X154557142Y-76350000D01*
X154580952Y-76373809D01*
X154604761Y-76421428D01*
X154604761Y-76469047D01*
X154580952Y-76540476D01*
X154295238Y-76826190D01*
X154604761Y-76826190D01*
X154842857Y-76826190D02*
X154938095Y-76826190D01*
X154985714Y-76802380D01*
X155009523Y-76778571D01*
X155057142Y-76707142D01*
X155080952Y-76611904D01*
X155080952Y-76421428D01*
X155057142Y-76373809D01*
X155033333Y-76350000D01*
X154985714Y-76326190D01*
X154890476Y-76326190D01*
X154842857Y-76350000D01*
X154819047Y-76373809D01*
X154795238Y-76421428D01*
X154795238Y-76540476D01*
X154819047Y-76588095D01*
X154842857Y-76611904D01*
X154890476Y-76635714D01*
X154985714Y-76635714D01*
X155033333Y-76611904D01*
X155057142Y-76588095D01*
X155080952Y-76540476D01*
D12*
%TO.C,TX_En*%
X180952380Y-77102380D02*
X181523809Y-77102380D01*
X181238095Y-78102380D02*
X181238095Y-77102380D01*
X181761904Y-77102380D02*
X182428571Y-78102380D01*
X182428571Y-77102380D02*
X181761904Y-78102380D01*
X182571428Y-78197619D02*
X183333333Y-78197619D01*
X183571428Y-77578571D02*
X183904761Y-77578571D01*
X184047619Y-78102380D02*
X183571428Y-78102380D01*
X183571428Y-77102380D01*
X184047619Y-77102380D01*
X184476190Y-77435714D02*
X184476190Y-78102380D01*
X184476190Y-77530952D02*
X184523809Y-77483333D01*
X184619047Y-77435714D01*
X184761904Y-77435714D01*
X184857142Y-77483333D01*
X184904761Y-77578571D01*
X184904761Y-78102380D01*
D10*
%TO.C,C23*%
X164978571Y-84278571D02*
X164954761Y-84302380D01*
X164883333Y-84326190D01*
X164835714Y-84326190D01*
X164764285Y-84302380D01*
X164716666Y-84254761D01*
X164692857Y-84207142D01*
X164669047Y-84111904D01*
X164669047Y-84040476D01*
X164692857Y-83945238D01*
X164716666Y-83897619D01*
X164764285Y-83850000D01*
X164835714Y-83826190D01*
X164883333Y-83826190D01*
X164954761Y-83850000D01*
X164978571Y-83873809D01*
X165169047Y-83873809D02*
X165192857Y-83850000D01*
X165240476Y-83826190D01*
X165359523Y-83826190D01*
X165407142Y-83850000D01*
X165430952Y-83873809D01*
X165454761Y-83921428D01*
X165454761Y-83969047D01*
X165430952Y-84040476D01*
X165145238Y-84326190D01*
X165454761Y-84326190D01*
X165621428Y-83826190D02*
X165930952Y-83826190D01*
X165764285Y-84016666D01*
X165835714Y-84016666D01*
X165883333Y-84040476D01*
X165907142Y-84064285D01*
X165930952Y-84111904D01*
X165930952Y-84230952D01*
X165907142Y-84278571D01*
X165883333Y-84302380D01*
X165835714Y-84326190D01*
X165692857Y-84326190D01*
X165645238Y-84302380D01*
X165621428Y-84278571D01*
D12*
%TO.C,D+*%
X169419047Y-116002380D02*
X169419047Y-115002380D01*
X169657142Y-115002380D01*
X169800000Y-115050000D01*
X169895238Y-115145238D01*
X169942857Y-115240476D01*
X169990476Y-115430952D01*
X169990476Y-115573809D01*
X169942857Y-115764285D01*
X169895238Y-115859523D01*
X169800000Y-115954761D01*
X169657142Y-116002380D01*
X169419047Y-116002380D01*
X170419047Y-115621428D02*
X171180952Y-115621428D01*
X170800000Y-116002380D02*
X170800000Y-115240476D01*
%TO.C,J5*%
X158866666Y-118702380D02*
X158866666Y-119416666D01*
X158819047Y-119559523D01*
X158723809Y-119654761D01*
X158580952Y-119702380D01*
X158485714Y-119702380D01*
X159819047Y-118702380D02*
X159342857Y-118702380D01*
X159295238Y-119178571D01*
X159342857Y-119130952D01*
X159438095Y-119083333D01*
X159676190Y-119083333D01*
X159771428Y-119130952D01*
X159819047Y-119178571D01*
X159866666Y-119273809D01*
X159866666Y-119511904D01*
X159819047Y-119607142D01*
X159771428Y-119654761D01*
X159676190Y-119702380D01*
X159438095Y-119702380D01*
X159342857Y-119654761D01*
X159295238Y-119607142D01*
%TO.C,TP16*%
X173561904Y-98102380D02*
X174133333Y-98102380D01*
X173847619Y-99102380D02*
X173847619Y-98102380D01*
X174466666Y-99102380D02*
X174466666Y-98102380D01*
X174847619Y-98102380D01*
X174942857Y-98150000D01*
X174990476Y-98197619D01*
X175038095Y-98292857D01*
X175038095Y-98435714D01*
X174990476Y-98530952D01*
X174942857Y-98578571D01*
X174847619Y-98626190D01*
X174466666Y-98626190D01*
X175990476Y-99102380D02*
X175419047Y-99102380D01*
X175704761Y-99102380D02*
X175704761Y-98102380D01*
X175609523Y-98245238D01*
X175514285Y-98340476D01*
X175419047Y-98388095D01*
X176847619Y-98102380D02*
X176657142Y-98102380D01*
X176561904Y-98150000D01*
X176514285Y-98197619D01*
X176419047Y-98340476D01*
X176371428Y-98530952D01*
X176371428Y-98911904D01*
X176419047Y-99007142D01*
X176466666Y-99054761D01*
X176561904Y-99102380D01*
X176752380Y-99102380D01*
X176847619Y-99054761D01*
X176895238Y-99007142D01*
X176942857Y-98911904D01*
X176942857Y-98673809D01*
X176895238Y-98578571D01*
X176847619Y-98530952D01*
X176752380Y-98483333D01*
X176561904Y-98483333D01*
X176466666Y-98530952D01*
X176419047Y-98578571D01*
X176371428Y-98673809D01*
D10*
%TO.C,C31*%
X207878571Y-108828571D02*
X207854761Y-108852380D01*
X207783333Y-108876190D01*
X207735714Y-108876190D01*
X207664285Y-108852380D01*
X207616666Y-108804761D01*
X207592857Y-108757142D01*
X207569047Y-108661904D01*
X207569047Y-108590476D01*
X207592857Y-108495238D01*
X207616666Y-108447619D01*
X207664285Y-108400000D01*
X207735714Y-108376190D01*
X207783333Y-108376190D01*
X207854761Y-108400000D01*
X207878571Y-108423809D01*
X208045238Y-108376190D02*
X208354761Y-108376190D01*
X208188095Y-108566666D01*
X208259523Y-108566666D01*
X208307142Y-108590476D01*
X208330952Y-108614285D01*
X208354761Y-108661904D01*
X208354761Y-108780952D01*
X208330952Y-108828571D01*
X208307142Y-108852380D01*
X208259523Y-108876190D01*
X208116666Y-108876190D01*
X208069047Y-108852380D01*
X208045238Y-108828571D01*
X208830952Y-108876190D02*
X208545238Y-108876190D01*
X208688095Y-108876190D02*
X208688095Y-108376190D01*
X208640476Y-108447619D01*
X208592857Y-108495238D01*
X208545238Y-108519047D01*
%TO.C,C10*%
X194678571Y-109028571D02*
X194654761Y-109052380D01*
X194583333Y-109076190D01*
X194535714Y-109076190D01*
X194464285Y-109052380D01*
X194416666Y-109004761D01*
X194392857Y-108957142D01*
X194369047Y-108861904D01*
X194369047Y-108790476D01*
X194392857Y-108695238D01*
X194416666Y-108647619D01*
X194464285Y-108600000D01*
X194535714Y-108576190D01*
X194583333Y-108576190D01*
X194654761Y-108600000D01*
X194678571Y-108623809D01*
X195154761Y-109076190D02*
X194869047Y-109076190D01*
X195011904Y-109076190D02*
X195011904Y-108576190D01*
X194964285Y-108647619D01*
X194916666Y-108695238D01*
X194869047Y-108719047D01*
X195464285Y-108576190D02*
X195511904Y-108576190D01*
X195559523Y-108600000D01*
X195583333Y-108623809D01*
X195607142Y-108671428D01*
X195630952Y-108766666D01*
X195630952Y-108885714D01*
X195607142Y-108980952D01*
X195583333Y-109028571D01*
X195559523Y-109052380D01*
X195511904Y-109076190D01*
X195464285Y-109076190D01*
X195416666Y-109052380D01*
X195392857Y-109028571D01*
X195369047Y-108980952D01*
X195345238Y-108885714D01*
X195345238Y-108766666D01*
X195369047Y-108671428D01*
X195392857Y-108623809D01*
X195416666Y-108600000D01*
X195464285Y-108576190D01*
D12*
%TO.C,WDI*%
X215283333Y-115152380D02*
X215521428Y-116152380D01*
X215711904Y-115438095D01*
X215902380Y-116152380D01*
X216140476Y-115152380D01*
X216521428Y-116152380D02*
X216521428Y-115152380D01*
X216759523Y-115152380D01*
X216902380Y-115200000D01*
X216997619Y-115295238D01*
X217045238Y-115390476D01*
X217092857Y-115580952D01*
X217092857Y-115723809D01*
X217045238Y-115914285D01*
X216997619Y-116009523D01*
X216902380Y-116104761D01*
X216759523Y-116152380D01*
X216521428Y-116152380D01*
X217521428Y-116152380D02*
X217521428Y-115152380D01*
D10*
%TO.C,C19*%
X177778571Y-117628571D02*
X177754761Y-117652380D01*
X177683333Y-117676190D01*
X177635714Y-117676190D01*
X177564285Y-117652380D01*
X177516666Y-117604761D01*
X177492857Y-117557142D01*
X177469047Y-117461904D01*
X177469047Y-117390476D01*
X177492857Y-117295238D01*
X177516666Y-117247619D01*
X177564285Y-117200000D01*
X177635714Y-117176190D01*
X177683333Y-117176190D01*
X177754761Y-117200000D01*
X177778571Y-117223809D01*
X178254761Y-117676190D02*
X177969047Y-117676190D01*
X178111904Y-117676190D02*
X178111904Y-117176190D01*
X178064285Y-117247619D01*
X178016666Y-117295238D01*
X177969047Y-117319047D01*
X178492857Y-117676190D02*
X178588095Y-117676190D01*
X178635714Y-117652380D01*
X178659523Y-117628571D01*
X178707142Y-117557142D01*
X178730952Y-117461904D01*
X178730952Y-117271428D01*
X178707142Y-117223809D01*
X178683333Y-117200000D01*
X178635714Y-117176190D01*
X178540476Y-117176190D01*
X178492857Y-117200000D01*
X178469047Y-117223809D01*
X178445238Y-117271428D01*
X178445238Y-117390476D01*
X178469047Y-117438095D01*
X178492857Y-117461904D01*
X178540476Y-117485714D01*
X178635714Y-117485714D01*
X178683333Y-117461904D01*
X178707142Y-117438095D01*
X178730952Y-117390476D01*
D12*
%TO.C,GND*%
X153988095Y-94450000D02*
X153892857Y-94402380D01*
X153750000Y-94402380D01*
X153607142Y-94450000D01*
X153511904Y-94545238D01*
X153464285Y-94640476D01*
X153416666Y-94830952D01*
X153416666Y-94973809D01*
X153464285Y-95164285D01*
X153511904Y-95259523D01*
X153607142Y-95354761D01*
X153750000Y-95402380D01*
X153845238Y-95402380D01*
X153988095Y-95354761D01*
X154035714Y-95307142D01*
X154035714Y-94973809D01*
X153845238Y-94973809D01*
X154464285Y-95402380D02*
X154464285Y-94402380D01*
X155035714Y-95402380D01*
X155035714Y-94402380D01*
X155511904Y-95402380D02*
X155511904Y-94402380D01*
X155750000Y-94402380D01*
X155892857Y-94450000D01*
X155988095Y-94545238D01*
X156035714Y-94640476D01*
X156083333Y-94830952D01*
X156083333Y-94973809D01*
X156035714Y-95164285D01*
X155988095Y-95259523D01*
X155892857Y-95354761D01*
X155750000Y-95402380D01*
X155511904Y-95402380D01*
D10*
%TO.C,C24*%
X158828571Y-84778571D02*
X158804761Y-84802380D01*
X158733333Y-84826190D01*
X158685714Y-84826190D01*
X158614285Y-84802380D01*
X158566666Y-84754761D01*
X158542857Y-84707142D01*
X158519047Y-84611904D01*
X158519047Y-84540476D01*
X158542857Y-84445238D01*
X158566666Y-84397619D01*
X158614285Y-84350000D01*
X158685714Y-84326190D01*
X158733333Y-84326190D01*
X158804761Y-84350000D01*
X158828571Y-84373809D01*
X159019047Y-84373809D02*
X159042857Y-84350000D01*
X159090476Y-84326190D01*
X159209523Y-84326190D01*
X159257142Y-84350000D01*
X159280952Y-84373809D01*
X159304761Y-84421428D01*
X159304761Y-84469047D01*
X159280952Y-84540476D01*
X158995238Y-84826190D01*
X159304761Y-84826190D01*
X159733333Y-84492857D02*
X159733333Y-84826190D01*
X159614285Y-84302380D02*
X159495238Y-84659523D01*
X159804761Y-84659523D01*
%TO.C,C11*%
X197878571Y-110378571D02*
X197854761Y-110402380D01*
X197783333Y-110426190D01*
X197735714Y-110426190D01*
X197664285Y-110402380D01*
X197616666Y-110354761D01*
X197592857Y-110307142D01*
X197569047Y-110211904D01*
X197569047Y-110140476D01*
X197592857Y-110045238D01*
X197616666Y-109997619D01*
X197664285Y-109950000D01*
X197735714Y-109926190D01*
X197783333Y-109926190D01*
X197854761Y-109950000D01*
X197878571Y-109973809D01*
X198354761Y-110426190D02*
X198069047Y-110426190D01*
X198211904Y-110426190D02*
X198211904Y-109926190D01*
X198164285Y-109997619D01*
X198116666Y-110045238D01*
X198069047Y-110069047D01*
X198830952Y-110426190D02*
X198545238Y-110426190D01*
X198688095Y-110426190D02*
X198688095Y-109926190D01*
X198640476Y-109997619D01*
X198592857Y-110045238D01*
X198545238Y-110069047D01*
%TO.C,C1*%
X160466666Y-135378571D02*
X160442857Y-135402380D01*
X160371428Y-135426190D01*
X160323809Y-135426190D01*
X160252380Y-135402380D01*
X160204761Y-135354761D01*
X160180952Y-135307142D01*
X160157142Y-135211904D01*
X160157142Y-135140476D01*
X160180952Y-135045238D01*
X160204761Y-134997619D01*
X160252380Y-134950000D01*
X160323809Y-134926190D01*
X160371428Y-134926190D01*
X160442857Y-134950000D01*
X160466666Y-134973809D01*
X160942857Y-135426190D02*
X160657142Y-135426190D01*
X160800000Y-135426190D02*
X160800000Y-134926190D01*
X160752380Y-134997619D01*
X160704761Y-135045238D01*
X160657142Y-135069047D01*
D12*
%TO.C,C4*%
X194145333Y-128481142D02*
X194097714Y-128528761D01*
X193954857Y-128576380D01*
X193859619Y-128576380D01*
X193716761Y-128528761D01*
X193621523Y-128433523D01*
X193573904Y-128338285D01*
X193526285Y-128147809D01*
X193526285Y-128004952D01*
X193573904Y-127814476D01*
X193621523Y-127719238D01*
X193716761Y-127624000D01*
X193859619Y-127576380D01*
X193954857Y-127576380D01*
X194097714Y-127624000D01*
X194145333Y-127671619D01*
X195002476Y-127909714D02*
X195002476Y-128576380D01*
X194764380Y-127528761D02*
X194526285Y-128243047D01*
X195145333Y-128243047D01*
D10*
%TO.C,R12*%
X159928571Y-114926190D02*
X159761904Y-114688095D01*
X159642857Y-114926190D02*
X159642857Y-114426190D01*
X159833333Y-114426190D01*
X159880952Y-114450000D01*
X159904761Y-114473809D01*
X159928571Y-114521428D01*
X159928571Y-114592857D01*
X159904761Y-114640476D01*
X159880952Y-114664285D01*
X159833333Y-114688095D01*
X159642857Y-114688095D01*
X160404761Y-114926190D02*
X160119047Y-114926190D01*
X160261904Y-114926190D02*
X160261904Y-114426190D01*
X160214285Y-114497619D01*
X160166666Y-114545238D01*
X160119047Y-114569047D01*
X160595238Y-114473809D02*
X160619047Y-114450000D01*
X160666666Y-114426190D01*
X160785714Y-114426190D01*
X160833333Y-114450000D01*
X160857142Y-114473809D01*
X160880952Y-114521428D01*
X160880952Y-114569047D01*
X160857142Y-114640476D01*
X160571428Y-114926190D01*
X160880952Y-114926190D01*
%TO.C,L5*%
X161416666Y-63312438D02*
X161178571Y-63312438D01*
X161178571Y-62812438D01*
X161821428Y-62812438D02*
X161583333Y-62812438D01*
X161559523Y-63050533D01*
X161583333Y-63026724D01*
X161630952Y-63002914D01*
X161750000Y-63002914D01*
X161797619Y-63026724D01*
X161821428Y-63050533D01*
X161845238Y-63098152D01*
X161845238Y-63217200D01*
X161821428Y-63264819D01*
X161797619Y-63288628D01*
X161750000Y-63312438D01*
X161630952Y-63312438D01*
X161583333Y-63288628D01*
X161559523Y-63264819D01*
D12*
%TO.C,D-*%
X169319047Y-110152380D02*
X169319047Y-109152380D01*
X169557142Y-109152380D01*
X169700000Y-109200000D01*
X169795238Y-109295238D01*
X169842857Y-109390476D01*
X169890476Y-109580952D01*
X169890476Y-109723809D01*
X169842857Y-109914285D01*
X169795238Y-110009523D01*
X169700000Y-110104761D01*
X169557142Y-110152380D01*
X169319047Y-110152380D01*
X170319047Y-109771428D02*
X171080952Y-109771428D01*
D10*
%TO.C,L4*%
X157366666Y-76576190D02*
X157128571Y-76576190D01*
X157128571Y-76076190D01*
X157747619Y-76242857D02*
X157747619Y-76576190D01*
X157628571Y-76052380D02*
X157509523Y-76409523D01*
X157819047Y-76409523D01*
%TO.C,D4*%
X177880952Y-138126190D02*
X177880952Y-137626190D01*
X178000000Y-137626190D01*
X178071428Y-137650000D01*
X178119047Y-137697619D01*
X178142857Y-137745238D01*
X178166666Y-137840476D01*
X178166666Y-137911904D01*
X178142857Y-138007142D01*
X178119047Y-138054761D01*
X178071428Y-138102380D01*
X178000000Y-138126190D01*
X177880952Y-138126190D01*
X178595238Y-137792857D02*
X178595238Y-138126190D01*
X178476190Y-137602380D02*
X178357142Y-137959523D01*
X178666666Y-137959523D01*
D12*
%TO.C,GND*%
X158588095Y-143500000D02*
X158492857Y-143452380D01*
X158350000Y-143452380D01*
X158207142Y-143500000D01*
X158111904Y-143595238D01*
X158064285Y-143690476D01*
X158016666Y-143880952D01*
X158016666Y-144023809D01*
X158064285Y-144214285D01*
X158111904Y-144309523D01*
X158207142Y-144404761D01*
X158350000Y-144452380D01*
X158445238Y-144452380D01*
X158588095Y-144404761D01*
X158635714Y-144357142D01*
X158635714Y-144023809D01*
X158445238Y-144023809D01*
X159064285Y-144452380D02*
X159064285Y-143452380D01*
X159635714Y-144452380D01*
X159635714Y-143452380D01*
X160111904Y-144452380D02*
X160111904Y-143452380D01*
X160350000Y-143452380D01*
X160492857Y-143500000D01*
X160588095Y-143595238D01*
X160635714Y-143690476D01*
X160683333Y-143880952D01*
X160683333Y-144023809D01*
X160635714Y-144214285D01*
X160588095Y-144309523D01*
X160492857Y-144404761D01*
X160350000Y-144452380D01*
X160111904Y-144452380D01*
D14*
%TO.C,U1*%
X168870000Y-131350000D02*
X170370000Y-131350000D01*
X170370000Y-131350000D02*
X170370000Y-131620000D01*
X170370000Y-137980000D02*
X173200000Y-137980000D01*
X170370000Y-131620000D02*
X171470000Y-131620000D01*
X168870000Y-138250000D02*
X170370000Y-138250000D01*
X170370000Y-138250000D02*
X170370000Y-137980000D01*
%TO.C,U7*%
X161885008Y-76811248D02*
X159985008Y-76811248D01*
X160485008Y-79131248D02*
X161885008Y-79131248D01*
%TO.C,C32*%
X161065837Y-65296248D02*
X160834167Y-65296248D01*
X161065837Y-64576248D02*
X160834167Y-64576248D01*
%TO.C,TX_~{SEL}*%
X187051207Y-96808000D02*
G75*
G03*
X187051207Y-96808000I-1450000J0D01*
G01*
%TO.C,C18*%
X198201665Y-119082500D02*
X198433335Y-119082500D01*
X198201665Y-119802500D02*
X198433335Y-119802500D01*
%TO.C,C17*%
X192067042Y-120298000D02*
X191835372Y-120298000D01*
X192067042Y-121018000D02*
X191835372Y-121018000D01*
%TO.C,TX_~{IRQ}*%
X159994002Y-95080248D02*
G75*
G03*
X159994002Y-95080248I-1450000J0D01*
G01*
%TO.C,C28*%
X159425008Y-75469576D02*
X159425008Y-75237906D01*
X160145008Y-75469576D02*
X160145008Y-75237906D01*
%TO.C,C15*%
X198301665Y-114832500D02*
X198533335Y-114832500D01*
X198301665Y-115552500D02*
X198533335Y-115552500D01*
%TO.C,~{RST}*%
X211300000Y-117100000D02*
G75*
G03*
X211300000Y-117100000I-1450000J0D01*
G01*
%TO.C,C27*%
X161707512Y-80619583D02*
X161707512Y-80387913D01*
X162427512Y-80619583D02*
X162427512Y-80387913D01*
%TO.C,L3*%
X162367712Y-84543748D02*
X162167312Y-84543748D01*
X162367712Y-85263748D02*
X162167312Y-85263748D01*
%TO.C,U5*%
X183040000Y-118310000D02*
X183040000Y-117360000D01*
X192310000Y-108090000D02*
X193260000Y-108090000D01*
X183990000Y-118310000D02*
X183040000Y-118310000D01*
X193260000Y-108090000D02*
X193260000Y-109040000D01*
X183040000Y-108090000D02*
X183040000Y-109040000D01*
X193260000Y-117360000D02*
X194600000Y-117360000D01*
X192310000Y-118310000D02*
X193260000Y-118310000D01*
X183990000Y-108090000D02*
X183040000Y-108090000D01*
X193260000Y-118310000D02*
X193260000Y-117360000D01*
%TO.C,G\u002A\u002A\u002A*%
G36*
X212316394Y-139774100D02*
G01*
X212316497Y-139772549D01*
X212330073Y-139765749D01*
X212366215Y-139749064D01*
X212422507Y-139723559D01*
X212496537Y-139690301D01*
X212585888Y-139650357D01*
X212688146Y-139604793D01*
X212731112Y-139585695D01*
X212876088Y-139585695D01*
X212930234Y-139597106D01*
X212989530Y-139625692D01*
X213043820Y-139666023D01*
X213063129Y-139685663D01*
X213110254Y-139758944D01*
X213132406Y-139840792D01*
X213128588Y-139926758D01*
X213122716Y-139951003D01*
X213116307Y-139980584D01*
X213117258Y-139994998D01*
X213118074Y-139995271D01*
X213131793Y-139989890D01*
X213167966Y-139974472D01*
X213224120Y-139950101D01*
X213297780Y-139917864D01*
X213386473Y-139878846D01*
X213487726Y-139834132D01*
X213599063Y-139784809D01*
X213714246Y-139733637D01*
X213833163Y-139680649D01*
X213944467Y-139630886D01*
X214045666Y-139585475D01*
X214134271Y-139545541D01*
X214207789Y-139512210D01*
X214263728Y-139486608D01*
X214299598Y-139469860D01*
X214312842Y-139463155D01*
X214310654Y-139448590D01*
X214298093Y-139413673D01*
X214276859Y-139362532D01*
X214248654Y-139299295D01*
X214220597Y-139239382D01*
X214182048Y-139159806D01*
X214152727Y-139102247D01*
X214130832Y-139063749D01*
X214114561Y-139041360D01*
X214102111Y-139032126D01*
X214094107Y-139032084D01*
X214066363Y-139042554D01*
X214019075Y-139062177D01*
X213955056Y-139089676D01*
X213877120Y-139123770D01*
X213788079Y-139163183D01*
X213690747Y-139206635D01*
X213587936Y-139252847D01*
X213482460Y-139300542D01*
X213377131Y-139348440D01*
X213274763Y-139395264D01*
X213178169Y-139439734D01*
X213090161Y-139480571D01*
X213013553Y-139516498D01*
X212951158Y-139546236D01*
X212905789Y-139568506D01*
X212880258Y-139582029D01*
X212876088Y-139585695D01*
X212731112Y-139585695D01*
X212800897Y-139554676D01*
X212921727Y-139501072D01*
X213048220Y-139445049D01*
X213177962Y-139387671D01*
X213308538Y-139330007D01*
X213437534Y-139273123D01*
X213562536Y-139218084D01*
X213681128Y-139165958D01*
X213790897Y-139117812D01*
X213889427Y-139074711D01*
X213974304Y-139037722D01*
X214043114Y-139007913D01*
X214093441Y-138986349D01*
X214122872Y-138974096D01*
X214129706Y-138971628D01*
X214138097Y-138983235D01*
X214155906Y-139015078D01*
X214180935Y-139062692D01*
X214210985Y-139121611D01*
X214243856Y-139187369D01*
X214277351Y-139255501D01*
X214309270Y-139321542D01*
X214337416Y-139381025D01*
X214359589Y-139429485D01*
X214373590Y-139462457D01*
X214377432Y-139474775D01*
X214365409Y-139482420D01*
X214331220Y-139499744D01*
X214277681Y-139525430D01*
X214207611Y-139558160D01*
X214123826Y-139596616D01*
X214029145Y-139639481D01*
X213937265Y-139680597D01*
X213818675Y-139733432D01*
X213693852Y-139789128D01*
X213568574Y-139845099D01*
X213448620Y-139898764D01*
X213339768Y-139947537D01*
X213247795Y-139988836D01*
X213217303Y-140002559D01*
X213066872Y-140070152D01*
X212934608Y-140129237D01*
X212821552Y-140179359D01*
X212728746Y-140220061D01*
X212657229Y-140250888D01*
X212608045Y-140271385D01*
X212582233Y-140281097D01*
X212578820Y-140281865D01*
X212569904Y-140270284D01*
X212550627Y-140237948D01*
X212522980Y-140188444D01*
X212488955Y-140125360D01*
X212450544Y-140052282D01*
X212439334Y-140030635D01*
X212400845Y-139955141D01*
X212367555Y-139888062D01*
X212341216Y-139833077D01*
X212323587Y-139793881D01*
X212376851Y-139793881D01*
X212380365Y-139807860D01*
X212394878Y-139841891D01*
X212418506Y-139891960D01*
X212449362Y-139954056D01*
X212480715Y-140014921D01*
X212521181Y-140092836D01*
X212551574Y-140149499D01*
X212575561Y-140187246D01*
X212596808Y-140208412D01*
X212618981Y-140215334D01*
X212645746Y-140210348D01*
X212680769Y-140195789D01*
X212727716Y-140173993D01*
X212729266Y-140173288D01*
X212813327Y-140135130D01*
X212768125Y-140125202D01*
X212721098Y-140104279D01*
X212670981Y-140065312D01*
X212624854Y-140015585D01*
X212589796Y-139962385D01*
X212575685Y-139927170D01*
X212566431Y-139862777D01*
X212568405Y-139821437D01*
X212609788Y-139821437D01*
X212611413Y-139892954D01*
X212635601Y-139960074D01*
X212680130Y-140018617D01*
X212742778Y-140064401D01*
X212814670Y-140091697D01*
X212843469Y-140099041D01*
X212856508Y-140103019D01*
X212856550Y-140103063D01*
X212868906Y-140100324D01*
X212899682Y-140091793D01*
X212927181Y-140083762D01*
X212995202Y-140051368D01*
X213045093Y-140003133D01*
X213076545Y-139943893D01*
X213089249Y-139878485D01*
X213082895Y-139811747D01*
X213057174Y-139748515D01*
X213011775Y-139693626D01*
X212954571Y-139655710D01*
X212874016Y-139629140D01*
X212797480Y-139627573D01*
X212728428Y-139649996D01*
X212670325Y-139695396D01*
X212632948Y-139749707D01*
X212609788Y-139821437D01*
X212568405Y-139821437D01*
X212569627Y-139795833D01*
X212584206Y-139737426D01*
X212596164Y-139713757D01*
X212603533Y-139700334D01*
X212600439Y-139695303D01*
X212583181Y-139699469D01*
X212548063Y-139713635D01*
X212500456Y-139734563D01*
X212448963Y-139757925D01*
X212407421Y-139777586D01*
X212381830Y-139790669D01*
X212376851Y-139793881D01*
X212323587Y-139793881D01*
X212323579Y-139793863D01*
X212316394Y-139774100D01*
G37*
G36*
X213050607Y-140315369D02*
G01*
X213088896Y-140236502D01*
X213146382Y-140172440D01*
X213154368Y-140166109D01*
X213186398Y-140145625D01*
X213238117Y-140117162D01*
X213305294Y-140082672D01*
X213383696Y-140044106D01*
X213469093Y-140003415D01*
X213557252Y-139962549D01*
X213643942Y-139923459D01*
X213724930Y-139888096D01*
X213795986Y-139858412D01*
X213852877Y-139836356D01*
X213891371Y-139823880D01*
X213900820Y-139821991D01*
X213983735Y-139823592D01*
X214069337Y-139844933D01*
X214151097Y-139882609D01*
X214222485Y-139933215D01*
X214276974Y-139993347D01*
X214297095Y-140028631D01*
X214319865Y-140109215D01*
X214321141Y-140196225D01*
X214302537Y-140282479D01*
X214265668Y-140360791D01*
X214212146Y-140423978D01*
X214207374Y-140428016D01*
X214181140Y-140445087D01*
X214133953Y-140471174D01*
X214069822Y-140504249D01*
X213992756Y-140542285D01*
X213906765Y-140583254D01*
X213833689Y-140617028D01*
X213734805Y-140661944D01*
X213656921Y-140696731D01*
X213596269Y-140722731D01*
X213549080Y-140741286D01*
X213511582Y-140753737D01*
X213480008Y-140761424D01*
X213450586Y-140765691D01*
X213419549Y-140767876D01*
X213408383Y-140768367D01*
X213347670Y-140768194D01*
X213294994Y-140763288D01*
X213263539Y-140755819D01*
X213175772Y-140707747D01*
X213107051Y-140641038D01*
X213059319Y-140557968D01*
X213039930Y-140493728D01*
X213036488Y-140444503D01*
X213075370Y-140444503D01*
X213086185Y-140504104D01*
X213124053Y-140589762D01*
X213181101Y-140657080D01*
X213254598Y-140704000D01*
X213341811Y-140728461D01*
X213387910Y-140731621D01*
X213414321Y-140730992D01*
X213440428Y-140727982D01*
X213469740Y-140721324D01*
X213505762Y-140709751D01*
X213552002Y-140691997D01*
X213611966Y-140666795D01*
X213689162Y-140632879D01*
X213787095Y-140588982D01*
X213804192Y-140581277D01*
X213917430Y-140529681D01*
X214008372Y-140486667D01*
X214079931Y-140450350D01*
X214135020Y-140418842D01*
X214176552Y-140390258D01*
X214207440Y-140362710D01*
X214230599Y-140334312D01*
X214248940Y-140303178D01*
X214255962Y-140288716D01*
X214275635Y-140222598D01*
X214280597Y-140148722D01*
X214270432Y-140079922D01*
X214263330Y-140059664D01*
X214222280Y-139995203D01*
X214160701Y-139940228D01*
X214084711Y-139898316D01*
X214000430Y-139873040D01*
X213933853Y-139867164D01*
X213907144Y-139868186D01*
X213880967Y-139871619D01*
X213851767Y-139878828D01*
X213815988Y-139891174D01*
X213770074Y-139910020D01*
X213710468Y-139936730D01*
X213633614Y-139972664D01*
X213535957Y-140019188D01*
X213531220Y-140021454D01*
X213442458Y-140064611D01*
X213360071Y-140105944D01*
X213287856Y-140143445D01*
X213229612Y-140175108D01*
X213189138Y-140198928D01*
X213171695Y-140211365D01*
X213114675Y-140281580D01*
X213082231Y-140360442D01*
X213075370Y-140444503D01*
X213036488Y-140444503D01*
X213033593Y-140403093D01*
X213050607Y-140315369D01*
G37*
G36*
X209788020Y-142013965D02*
G01*
X209810798Y-141901866D01*
X209811487Y-141899248D01*
X209880223Y-141689946D01*
X209975069Y-141480679D01*
X210094887Y-141273117D01*
X210238539Y-141068930D01*
X210404886Y-140869789D01*
X210592790Y-140677364D01*
X210726438Y-140556258D01*
X210777070Y-140511562D01*
X210819200Y-140472581D01*
X210848966Y-140443026D01*
X210862503Y-140426605D01*
X210862923Y-140425214D01*
X210851034Y-140415134D01*
X210818827Y-140397919D01*
X210771496Y-140376148D01*
X210724985Y-140356683D01*
X210518973Y-140259732D01*
X210328022Y-140141287D01*
X210153584Y-140003059D01*
X209997110Y-139846756D01*
X209860051Y-139674088D01*
X209743859Y-139486765D01*
X209649985Y-139286496D01*
X209579881Y-139074990D01*
X209557539Y-138981642D01*
X209538324Y-138859554D01*
X209527855Y-138721716D01*
X209527179Y-138665003D01*
X209556411Y-138665003D01*
X209569299Y-138853651D01*
X209579921Y-138923858D01*
X209631028Y-139135378D01*
X209707177Y-139338341D01*
X209806922Y-139530790D01*
X209928818Y-139710769D01*
X210071421Y-139876321D01*
X210233285Y-140025491D01*
X210412964Y-140156321D01*
X210549569Y-140236478D01*
X210616134Y-140270159D01*
X210686152Y-140302547D01*
X210754775Y-140331743D01*
X210817158Y-140355848D01*
X210868453Y-140372963D01*
X210903812Y-140381189D01*
X210916951Y-140380388D01*
X210932988Y-140369355D01*
X210966092Y-140345850D01*
X211011249Y-140313453D01*
X211057560Y-140280008D01*
X211114630Y-140237397D01*
X211150425Y-140207345D01*
X211166861Y-140188014D01*
X211165854Y-140177567D01*
X211164978Y-140177003D01*
X211138071Y-140151835D01*
X211113692Y-140112741D01*
X211094801Y-140067665D01*
X211087090Y-140035825D01*
X211130405Y-140035825D01*
X211131920Y-140052658D01*
X211140688Y-140071583D01*
X211154504Y-140094262D01*
X211158373Y-140100526D01*
X211185246Y-140144362D01*
X211256111Y-140113277D01*
X211290576Y-140098196D01*
X211344922Y-140074465D01*
X211414000Y-140044327D01*
X211492662Y-140010028D01*
X211575761Y-139973816D01*
X211586298Y-139969225D01*
X211845621Y-139856260D01*
X211853135Y-139831843D01*
X211916356Y-139831843D01*
X211920952Y-139844885D01*
X211936810Y-139880274D01*
X211962920Y-139935974D01*
X211998270Y-140009950D01*
X212041851Y-140100166D01*
X212092649Y-140204586D01*
X212149656Y-140321176D01*
X212211859Y-140447900D01*
X212278248Y-140582722D01*
X212347811Y-140723607D01*
X212419539Y-140868519D01*
X212492419Y-141015422D01*
X212565441Y-141162282D01*
X212637593Y-141307062D01*
X212707866Y-141447728D01*
X212775247Y-141582243D01*
X212838727Y-141708573D01*
X212897293Y-141824681D01*
X212949936Y-141928532D01*
X212995643Y-142018091D01*
X213033404Y-142091321D01*
X213062209Y-142146189D01*
X213081045Y-142180657D01*
X213088903Y-142192692D01*
X213088914Y-142192692D01*
X213102235Y-142187243D01*
X213138799Y-142171390D01*
X213196933Y-142145878D01*
X213274961Y-142111449D01*
X213371210Y-142068846D01*
X213484005Y-142018812D01*
X213611672Y-141962091D01*
X213752537Y-141899426D01*
X213904925Y-141831559D01*
X214067162Y-141759234D01*
X214237574Y-141683194D01*
X214354804Y-141630845D01*
X214529835Y-141552621D01*
X214697843Y-141477457D01*
X214857148Y-141406108D01*
X215006070Y-141339330D01*
X215142930Y-141277879D01*
X215266048Y-141222511D01*
X215373743Y-141173982D01*
X215464337Y-141133048D01*
X215536149Y-141100464D01*
X215587500Y-141076987D01*
X215616710Y-141063371D01*
X215623045Y-141060154D01*
X215618432Y-141047163D01*
X215602623Y-141011786D01*
X215576621Y-140956055D01*
X215541430Y-140882004D01*
X215498051Y-140791666D01*
X215447488Y-140687075D01*
X215390743Y-140570263D01*
X215328818Y-140443265D01*
X215262718Y-140308113D01*
X215228466Y-140238263D01*
X215690197Y-140238263D01*
X215691680Y-140249480D01*
X215705654Y-140254587D01*
X215742295Y-140266285D01*
X215798066Y-140283524D01*
X215869428Y-140305252D01*
X215952844Y-140330421D01*
X216044775Y-140357977D01*
X216141683Y-140386872D01*
X216240030Y-140416054D01*
X216336279Y-140444473D01*
X216426890Y-140471077D01*
X216508327Y-140494817D01*
X216577050Y-140514641D01*
X216629522Y-140529499D01*
X216662206Y-140538340D01*
X216671200Y-140540366D01*
X216679178Y-140529027D01*
X216682618Y-140520741D01*
X216724987Y-140520741D01*
X216731811Y-140527566D01*
X216738635Y-140520741D01*
X216731811Y-140513917D01*
X216724987Y-140520741D01*
X216682618Y-140520741D01*
X216691677Y-140498918D01*
X216695902Y-140486620D01*
X216738635Y-140486620D01*
X216743629Y-140497854D01*
X216747735Y-140495719D01*
X216749368Y-140479521D01*
X216747735Y-140477521D01*
X216739620Y-140479394D01*
X216738635Y-140486620D01*
X216695902Y-140486620D01*
X216701509Y-140470297D01*
X216708624Y-140445674D01*
X216752284Y-140445674D01*
X216757278Y-140456909D01*
X216761383Y-140454773D01*
X216763017Y-140438576D01*
X216761383Y-140436575D01*
X216753269Y-140438449D01*
X216752284Y-140445674D01*
X216708624Y-140445674D01*
X216713097Y-140430193D01*
X216718920Y-140402024D01*
X216718592Y-140393784D01*
X216704681Y-140388668D01*
X216667623Y-140376619D01*
X216610411Y-140358568D01*
X216536037Y-140335446D01*
X216447493Y-140308184D01*
X216347772Y-140277713D01*
X216251527Y-140248492D01*
X216143087Y-140215649D01*
X216042027Y-140185009D01*
X215951549Y-140157545D01*
X215874854Y-140134231D01*
X215815144Y-140116040D01*
X215775621Y-140103944D01*
X215760248Y-140099169D01*
X215742548Y-140096471D01*
X215729706Y-140105839D01*
X215717412Y-140132568D01*
X215706625Y-140165078D01*
X215695199Y-140207196D01*
X215690197Y-140238263D01*
X215228466Y-140238263D01*
X215193444Y-140166841D01*
X215121998Y-140021482D01*
X215049385Y-139874069D01*
X214976606Y-139726636D01*
X214904664Y-139581216D01*
X214834562Y-139439843D01*
X214767303Y-139304549D01*
X214703890Y-139177368D01*
X214645324Y-139060333D01*
X214592609Y-138955478D01*
X214546748Y-138864835D01*
X214508743Y-138790439D01*
X214479598Y-138734322D01*
X214460314Y-138698518D01*
X214451894Y-138685061D01*
X214451745Y-138685008D01*
X214438187Y-138690503D01*
X214401802Y-138706377D01*
X214344612Y-138731717D01*
X214268641Y-138765605D01*
X214175913Y-138807128D01*
X214068450Y-138855369D01*
X213948277Y-138909415D01*
X213817415Y-138968349D01*
X213677889Y-139031256D01*
X213531722Y-139097221D01*
X213380936Y-139165330D01*
X213227556Y-139234666D01*
X213073605Y-139304315D01*
X212921105Y-139373362D01*
X212772081Y-139440890D01*
X212628555Y-139505986D01*
X212492550Y-139567733D01*
X212366091Y-139625217D01*
X212251200Y-139677523D01*
X212149900Y-139723735D01*
X212064215Y-139762938D01*
X211996168Y-139794217D01*
X211947782Y-139816657D01*
X211921081Y-139829342D01*
X211916356Y-139831843D01*
X211853135Y-139831843D01*
X211874632Y-139761982D01*
X211875391Y-139759405D01*
X211921459Y-139759405D01*
X211930430Y-139769720D01*
X211944461Y-139766915D01*
X211959995Y-139760112D01*
X211998685Y-139742815D01*
X212058821Y-139715798D01*
X212138694Y-139679830D01*
X212236596Y-139635685D01*
X212350816Y-139584132D01*
X212479647Y-139525945D01*
X212621378Y-139461894D01*
X212774301Y-139392751D01*
X212936707Y-139319287D01*
X213106886Y-139242275D01*
X213208748Y-139196163D01*
X214449263Y-138634534D01*
X214533509Y-138390364D01*
X214800659Y-138390364D01*
X214806976Y-138410311D01*
X214822806Y-138440864D01*
X214843115Y-138474011D01*
X214862871Y-138501737D01*
X214877039Y-138516029D01*
X214879786Y-138516352D01*
X214894166Y-138509856D01*
X214930674Y-138493939D01*
X214986327Y-138469886D01*
X215058143Y-138438979D01*
X215143139Y-138402504D01*
X215238332Y-138361745D01*
X215312359Y-138330104D01*
X215414645Y-138286327D01*
X215510244Y-138245239D01*
X215595911Y-138208249D01*
X215668399Y-138176766D01*
X215724462Y-138152198D01*
X215760853Y-138135953D01*
X215772684Y-138130392D01*
X215809903Y-138111392D01*
X215782971Y-138067222D01*
X215765069Y-138031813D01*
X215756196Y-138002413D01*
X215755989Y-137999167D01*
X215753700Y-137993417D01*
X215801496Y-137993417D01*
X215801909Y-138009096D01*
X215810532Y-138029876D01*
X215824783Y-138049811D01*
X215833217Y-138052687D01*
X215832804Y-138037008D01*
X215824181Y-138016228D01*
X215809930Y-137996293D01*
X215801496Y-137993417D01*
X215753700Y-137993417D01*
X215747926Y-137978915D01*
X215738877Y-137975237D01*
X215721317Y-137980528D01*
X215682820Y-137995443D01*
X215626737Y-138018501D01*
X215556417Y-138048219D01*
X215475212Y-138083114D01*
X215386471Y-138121704D01*
X215293545Y-138162506D01*
X215199784Y-138204039D01*
X215108539Y-138244820D01*
X215023160Y-138283366D01*
X214946997Y-138318194D01*
X214883400Y-138347824D01*
X214835721Y-138370771D01*
X214807310Y-138385555D01*
X214800659Y-138390364D01*
X214533509Y-138390364D01*
X214625141Y-138124786D01*
X214663708Y-138012492D01*
X214699169Y-137908238D01*
X214730593Y-137814845D01*
X214757044Y-137735132D01*
X214777590Y-137671920D01*
X214791297Y-137628030D01*
X214797232Y-137606280D01*
X214797366Y-137604516D01*
X214784349Y-137605818D01*
X214751394Y-137616914D01*
X214703277Y-137636006D01*
X214644773Y-137661298D01*
X214636066Y-137665213D01*
X214478419Y-137736432D01*
X214532087Y-137829747D01*
X214585755Y-137923063D01*
X214374907Y-138503127D01*
X213308549Y-138985122D01*
X213147486Y-139057875D01*
X212993308Y-139127426D01*
X212847861Y-139192946D01*
X212712993Y-139253608D01*
X212590550Y-139308584D01*
X212482380Y-139357047D01*
X212390328Y-139398168D01*
X212316243Y-139431121D01*
X212261971Y-139455076D01*
X212229360Y-139469208D01*
X212220271Y-139472850D01*
X212205756Y-139468439D01*
X212187797Y-139446131D01*
X212164316Y-139402889D01*
X212146423Y-139365003D01*
X212094494Y-139251424D01*
X212008362Y-139497098D01*
X211981377Y-139574795D01*
X211957771Y-139644154D01*
X211938968Y-139700871D01*
X211926395Y-139740643D01*
X211921477Y-139759168D01*
X211921459Y-139759405D01*
X211875391Y-139759405D01*
X211888101Y-139716229D01*
X211896803Y-139682719D01*
X211899079Y-139667918D01*
X211898819Y-139667705D01*
X211885603Y-139672982D01*
X211850461Y-139687929D01*
X211796454Y-139711218D01*
X211726641Y-139741525D01*
X211644082Y-139777523D01*
X211551837Y-139817885D01*
X211508121Y-139837057D01*
X211397118Y-139885754D01*
X211308806Y-139924915D01*
X211240978Y-139956201D01*
X211191429Y-139981274D01*
X211157954Y-140001795D01*
X211138348Y-140019425D01*
X211130405Y-140035825D01*
X211087090Y-140035825D01*
X211084359Y-140024549D01*
X211085329Y-139991336D01*
X211091644Y-139980311D01*
X211107989Y-139971063D01*
X211146274Y-139952381D01*
X211203391Y-139925687D01*
X211276237Y-139892406D01*
X211361705Y-139853962D01*
X211456689Y-139811780D01*
X211517143Y-139785186D01*
X211925274Y-139606287D01*
X212055094Y-139230596D01*
X212149039Y-139230596D01*
X212149759Y-139245712D01*
X212159481Y-139277563D01*
X212175002Y-139318468D01*
X212193116Y-139360743D01*
X212210621Y-139396709D01*
X212224311Y-139418684D01*
X212228888Y-139422031D01*
X212242212Y-139416547D01*
X212278564Y-139400645D01*
X212336100Y-139375151D01*
X212412974Y-139340894D01*
X212507340Y-139298698D01*
X212617355Y-139249392D01*
X212741173Y-139193800D01*
X212876947Y-139132751D01*
X213022835Y-139067070D01*
X213176989Y-138997585D01*
X213269456Y-138955868D01*
X213427689Y-138884404D01*
X213578779Y-138816068D01*
X213720872Y-138751702D01*
X213852113Y-138692153D01*
X213970651Y-138638263D01*
X214074630Y-138590878D01*
X214162197Y-138550841D01*
X214231498Y-138518996D01*
X214280681Y-138496189D01*
X214307891Y-138483262D01*
X214312864Y-138480634D01*
X214312144Y-138465518D01*
X214302421Y-138433667D01*
X214286901Y-138392763D01*
X214268787Y-138350487D01*
X214251282Y-138314521D01*
X214237592Y-138292547D01*
X214233015Y-138289199D01*
X214219441Y-138294675D01*
X214183247Y-138310431D01*
X214126669Y-138335457D01*
X214051940Y-138368744D01*
X213961295Y-138409283D01*
X213856968Y-138456063D01*
X213741192Y-138508077D01*
X213616204Y-138564315D01*
X213484236Y-138623767D01*
X213347524Y-138685424D01*
X213208301Y-138748277D01*
X213068802Y-138811317D01*
X212931260Y-138873534D01*
X212797912Y-138933918D01*
X212670989Y-138991462D01*
X212552728Y-139045154D01*
X212445362Y-139093987D01*
X212351125Y-139136951D01*
X212272252Y-139173035D01*
X212210978Y-139201232D01*
X212169535Y-139220532D01*
X212150160Y-139229926D01*
X212149039Y-139230596D01*
X212055094Y-139230596D01*
X212076720Y-139168011D01*
X212152375Y-139168011D01*
X212152392Y-139170045D01*
X212154311Y-139170946D01*
X212159682Y-139170035D01*
X212170051Y-139166630D01*
X212186968Y-139160051D01*
X212211979Y-139149617D01*
X212246634Y-139134648D01*
X212292480Y-139114461D01*
X212351064Y-139088377D01*
X212423936Y-139055714D01*
X212512643Y-139015792D01*
X212618734Y-138967931D01*
X212743755Y-138911448D01*
X212889256Y-138845664D01*
X213056783Y-138769897D01*
X213215901Y-138697932D01*
X214231474Y-138238635D01*
X214312989Y-138004031D01*
X214338634Y-137929058D01*
X214360334Y-137863365D01*
X214376778Y-137811116D01*
X214386652Y-137776477D01*
X214388753Y-137763677D01*
X214375718Y-137768249D01*
X214339643Y-137783223D01*
X214282375Y-137807784D01*
X214205759Y-137841119D01*
X214111642Y-137882412D01*
X214001871Y-137930851D01*
X213878293Y-137985621D01*
X213742754Y-138045909D01*
X213597100Y-138110901D01*
X213443179Y-138179782D01*
X213355001Y-138219329D01*
X212326999Y-138680731D01*
X212239856Y-138918143D01*
X212212289Y-138993761D01*
X212188311Y-139060518D01*
X212169402Y-139114211D01*
X212157043Y-139150635D01*
X212152714Y-139165527D01*
X212152375Y-139168011D01*
X212076720Y-139168011D01*
X212078322Y-139163374D01*
X212125512Y-139028185D01*
X212165228Y-138917519D01*
X212198075Y-138829824D01*
X212224663Y-138763550D01*
X212245599Y-138717145D01*
X212261489Y-138689060D01*
X212266692Y-138682475D01*
X212293024Y-138662500D01*
X212341810Y-138634000D01*
X212410134Y-138598521D01*
X212495079Y-138557606D01*
X212551517Y-138531674D01*
X212801021Y-138418861D01*
X212801440Y-138354304D01*
X212833701Y-138354304D01*
X212835957Y-138387709D01*
X212840316Y-138398388D01*
X212854052Y-138392945D01*
X212890560Y-138377246D01*
X212947715Y-138352231D01*
X213023395Y-138318842D01*
X213115477Y-138278021D01*
X213221837Y-138230709D01*
X213340352Y-138177849D01*
X213468900Y-138120382D01*
X213605356Y-138059249D01*
X213640409Y-138043525D01*
X213779006Y-137981511D01*
X213910655Y-137922942D01*
X214033178Y-137868765D01*
X214144398Y-137819927D01*
X214242136Y-137777375D01*
X214324216Y-137742055D01*
X214388460Y-137714915D01*
X214432689Y-137696903D01*
X214454727Y-137688963D01*
X214456439Y-137688662D01*
X214477442Y-137683184D01*
X214517944Y-137668135D01*
X214572756Y-137645597D01*
X214636691Y-137617648D01*
X214660706Y-137606770D01*
X214725261Y-137577594D01*
X214781076Y-137553004D01*
X214823422Y-137535036D01*
X214847569Y-137525725D01*
X214851025Y-137524879D01*
X214859869Y-137536593D01*
X214879046Y-137569601D01*
X214906846Y-137620700D01*
X214941558Y-137686688D01*
X214981470Y-137764363D01*
X215022622Y-137846015D01*
X215071752Y-137943887D01*
X215110523Y-138019700D01*
X215140438Y-138075977D01*
X215163005Y-138115244D01*
X215179728Y-138140023D01*
X215192113Y-138152839D01*
X215201665Y-138156217D01*
X215206742Y-138154722D01*
X215250000Y-138133467D01*
X215308253Y-138106842D01*
X215377167Y-138076621D01*
X215452409Y-138044578D01*
X215529644Y-138012489D01*
X215604539Y-137982126D01*
X215672759Y-137955264D01*
X215729970Y-137933678D01*
X215771838Y-137919141D01*
X215794030Y-137913429D01*
X215795866Y-137913540D01*
X215821148Y-137932837D01*
X215846382Y-137969796D01*
X215868088Y-138016012D01*
X215882783Y-138063077D01*
X215886988Y-138102587D01*
X215881861Y-138121190D01*
X215866748Y-138131034D01*
X215830168Y-138149696D01*
X215775831Y-138175440D01*
X215707444Y-138206530D01*
X215628717Y-138241231D01*
X215585028Y-138260082D01*
X215503409Y-138295434D01*
X215431114Y-138327493D01*
X215371623Y-138354655D01*
X215328417Y-138375316D01*
X215304974Y-138387869D01*
X215301766Y-138390736D01*
X215308253Y-138404024D01*
X215325928Y-138439633D01*
X215353748Y-138495476D01*
X215390672Y-138569469D01*
X215435659Y-138659528D01*
X215487666Y-138763568D01*
X215545653Y-138879503D01*
X215608578Y-139005250D01*
X215675399Y-139138722D01*
X215690552Y-139168982D01*
X216076283Y-139939219D01*
X216142266Y-139901124D01*
X216183203Y-139875799D01*
X216237013Y-139840209D01*
X216294669Y-139800389D01*
X216319837Y-139782428D01*
X216405054Y-139715092D01*
X216498280Y-139631663D01*
X216592960Y-139538768D01*
X216682536Y-139443032D01*
X216760453Y-139351081D01*
X216804390Y-139292737D01*
X216923930Y-139100744D01*
X217024394Y-138893020D01*
X217103251Y-138675541D01*
X217156919Y-138459806D01*
X217170325Y-138363988D01*
X217178305Y-138250420D01*
X217180857Y-138128107D01*
X217177980Y-138006053D01*
X217169670Y-137893261D01*
X217157084Y-137804675D01*
X217100608Y-137578883D01*
X217020207Y-137364867D01*
X216917133Y-137163859D01*
X216792641Y-136977090D01*
X216647983Y-136805793D01*
X216484414Y-136651200D01*
X216303186Y-136514543D01*
X216105552Y-136397054D01*
X215892767Y-136299966D01*
X215666083Y-136224510D01*
X215512254Y-136187724D01*
X215261877Y-136150202D01*
X215012473Y-136139550D01*
X214765537Y-136155575D01*
X214522562Y-136198084D01*
X214285042Y-136266885D01*
X214054473Y-136361786D01*
X214015745Y-136380665D01*
X213801553Y-136502153D01*
X213606241Y-136643066D01*
X213430568Y-136802438D01*
X213275293Y-136979302D01*
X213141175Y-137172691D01*
X213028976Y-137381638D01*
X212939453Y-137605175D01*
X212875693Y-137831972D01*
X212867361Y-137877968D01*
X212859320Y-137938926D01*
X212851864Y-138010122D01*
X212845290Y-138086830D01*
X212839891Y-138164327D01*
X212835963Y-138237888D01*
X212833802Y-138302788D01*
X212833701Y-138354304D01*
X212801440Y-138354304D01*
X212802482Y-138193659D01*
X212806768Y-138047688D01*
X212818713Y-137918541D01*
X212840014Y-137796405D01*
X212872368Y-137671467D01*
X212915745Y-137538806D01*
X212968539Y-137388928D01*
X212870182Y-137295499D01*
X212815683Y-137247391D01*
X212748092Y-137193046D01*
X212677605Y-137140465D01*
X212635526Y-137111332D01*
X212433309Y-136992659D01*
X212222094Y-136899064D01*
X212003917Y-136830656D01*
X211780811Y-136787543D01*
X211554808Y-136769834D01*
X211327943Y-136777638D01*
X211102250Y-136811063D01*
X210879762Y-136870218D01*
X210662513Y-136955211D01*
X210568952Y-137000902D01*
X210381417Y-137112904D01*
X210207743Y-137245871D01*
X210050131Y-137397221D01*
X209910784Y-137564372D01*
X209791903Y-137744742D01*
X209695690Y-137935747D01*
X209636466Y-138094644D01*
X209590551Y-138277339D01*
X209563681Y-138470178D01*
X209556411Y-138665003D01*
X209527179Y-138665003D01*
X209526137Y-138577633D01*
X209533175Y-138436811D01*
X209548974Y-138308758D01*
X209557188Y-138265829D01*
X209617470Y-138047386D01*
X209701972Y-137841431D01*
X209810830Y-137647716D01*
X209944178Y-137465991D01*
X210071210Y-137326437D01*
X210244286Y-137171686D01*
X210432147Y-137039876D01*
X210634805Y-136931001D01*
X210852272Y-136845054D01*
X211084559Y-136782030D01*
X211099952Y-136778772D01*
X211240772Y-136756400D01*
X211396206Y-136743618D01*
X211556419Y-136740595D01*
X211711577Y-136747498D01*
X211851846Y-136764496D01*
X211859270Y-136765787D01*
X212072674Y-136816033D01*
X212283074Y-136889634D01*
X212485637Y-136984237D01*
X212675532Y-137097489D01*
X212847925Y-137227036D01*
X212899457Y-137272327D01*
X212997892Y-137362364D01*
X213038315Y-137282287D01*
X213135415Y-137116046D01*
X213255900Y-136953025D01*
X213395859Y-136796944D01*
X213551385Y-136651520D01*
X213718569Y-136520475D01*
X213893503Y-136407526D01*
X214036233Y-136332775D01*
X214268053Y-136238713D01*
X214505966Y-136170189D01*
X214747848Y-136127045D01*
X214991577Y-136109122D01*
X215235028Y-136116262D01*
X215476080Y-136148306D01*
X215712608Y-136205095D01*
X215942491Y-136286470D01*
X216163604Y-136392274D01*
X216349500Y-136505635D01*
X216428419Y-136564625D01*
X216516008Y-136639346D01*
X216606757Y-136724289D01*
X216695158Y-136813940D01*
X216775701Y-136902788D01*
X216842877Y-136985322D01*
X216877132Y-137033530D01*
X216996086Y-137235944D01*
X217088484Y-137441360D01*
X217155057Y-137652010D01*
X217196533Y-137870122D01*
X217212373Y-138057173D01*
X217208076Y-138286772D01*
X217176938Y-138514249D01*
X217119413Y-138737715D01*
X217035956Y-138955278D01*
X216959565Y-139108114D01*
X216931770Y-139158640D01*
X216909208Y-139199878D01*
X216894953Y-139226195D01*
X216891682Y-139232449D01*
X216901226Y-139240456D01*
X216929914Y-139251787D01*
X216953101Y-139258823D01*
X217012565Y-139277610D01*
X217089748Y-139305423D01*
X217177759Y-139339482D01*
X217269705Y-139377007D01*
X217358694Y-139415219D01*
X217437833Y-139451337D01*
X217473502Y-139468718D01*
X217694033Y-139591275D01*
X217892686Y-139726194D01*
X218068767Y-139872752D01*
X218221580Y-140030224D01*
X218350431Y-140197887D01*
X218454625Y-140375017D01*
X218533466Y-140560890D01*
X218539661Y-140579123D01*
X218573692Y-140698388D01*
X218595369Y-140817773D01*
X218605680Y-140945396D01*
X218605617Y-141089370D01*
X218604773Y-141112902D01*
X218587010Y-141298902D01*
X218548018Y-141481197D01*
X218486652Y-141663346D01*
X218401765Y-141848908D01*
X218321275Y-141993636D01*
X218217270Y-142152176D01*
X218091867Y-142316064D01*
X217949126Y-142480797D01*
X217793107Y-142641871D01*
X217627869Y-142794782D01*
X217509780Y-142893837D01*
X217425089Y-142959036D01*
X217322741Y-143033308D01*
X217208951Y-143112487D01*
X217089934Y-143192409D01*
X216971906Y-143268909D01*
X216861082Y-143337823D01*
X216763678Y-143394986D01*
X216752655Y-143401153D01*
X216391491Y-143587141D01*
X216012140Y-143753997D01*
X215616412Y-143901168D01*
X215206120Y-144028102D01*
X214783075Y-144134245D01*
X214349090Y-144219044D01*
X213905974Y-144281947D01*
X213845137Y-144288776D01*
X213768310Y-144295420D01*
X213669868Y-144301308D01*
X213554841Y-144306357D01*
X213428262Y-144310485D01*
X213295161Y-144313609D01*
X213160569Y-144315648D01*
X213029517Y-144316520D01*
X212907036Y-144316141D01*
X212798158Y-144314431D01*
X212707913Y-144311307D01*
X212657711Y-144308169D01*
X212312643Y-144271452D01*
X211985980Y-144218793D01*
X211678329Y-144150424D01*
X211390294Y-144066576D01*
X211122483Y-143967481D01*
X210875501Y-143853369D01*
X210649954Y-143724472D01*
X210446448Y-143581021D01*
X210265589Y-143423246D01*
X210220742Y-143378247D01*
X210079346Y-143214949D01*
X209963601Y-143044303D01*
X209873810Y-142866893D01*
X209810274Y-142683303D01*
X209776992Y-142521810D01*
X209766616Y-142406140D01*
X209765369Y-142276207D01*
X209768811Y-142213165D01*
X209796259Y-142213165D01*
X209798267Y-142410341D01*
X209826155Y-142601039D01*
X209879148Y-142784668D01*
X209956470Y-142960640D01*
X210057348Y-143128365D01*
X210181005Y-143287255D01*
X210326669Y-143436720D01*
X210493563Y-143576171D01*
X210680914Y-143705020D01*
X210887946Y-143822677D01*
X211113884Y-143928553D01*
X211357955Y-144022058D01*
X211619382Y-144102605D01*
X211897392Y-144169604D01*
X212191210Y-144222465D01*
X212487373Y-144259359D01*
X212814578Y-144284436D01*
X213129537Y-144293266D01*
X213441796Y-144286045D01*
X213538044Y-144280672D01*
X213952900Y-144243594D01*
X214363062Y-144185478D01*
X214766675Y-144106998D01*
X215161882Y-144008829D01*
X215546827Y-143891647D01*
X215919653Y-143756125D01*
X216278504Y-143602940D01*
X216621523Y-143432764D01*
X216946854Y-143246274D01*
X217252641Y-143044145D01*
X217537026Y-142827050D01*
X217537077Y-142827008D01*
X217612675Y-142761721D01*
X217697973Y-142682763D01*
X217788087Y-142595117D01*
X217878134Y-142503764D01*
X217963228Y-142413686D01*
X218038486Y-142329867D01*
X218099024Y-142257288D01*
X218112063Y-142240462D01*
X218256240Y-142034201D01*
X218373545Y-141830521D01*
X218464217Y-141628844D01*
X218528496Y-141428590D01*
X218566625Y-141229178D01*
X218576445Y-141121279D01*
X218574520Y-140921895D01*
X218546443Y-140729033D01*
X218492705Y-140543269D01*
X218413796Y-140365179D01*
X218310207Y-140195340D01*
X218182428Y-140034329D01*
X218030949Y-139882722D01*
X217856261Y-139741095D01*
X217658854Y-139610026D01*
X217439219Y-139490090D01*
X217197845Y-139381865D01*
X217048522Y-139324846D01*
X216988987Y-139303816D01*
X216938719Y-139286741D01*
X216903356Y-139275493D01*
X216888917Y-139271897D01*
X216875816Y-139282123D01*
X216851012Y-139309514D01*
X216818829Y-139349135D01*
X216801911Y-139371206D01*
X216666893Y-139531232D01*
X216509177Y-139683919D01*
X216333156Y-139825300D01*
X216195326Y-139919278D01*
X216139507Y-139955370D01*
X216102137Y-139982385D01*
X216078250Y-140005283D01*
X216062880Y-140029022D01*
X216051064Y-140058559D01*
X216048635Y-140065764D01*
X216036841Y-140104367D01*
X216030812Y-140130465D01*
X216030931Y-140136923D01*
X216044722Y-140141572D01*
X216081354Y-140153050D01*
X216137522Y-140170344D01*
X216209921Y-140192444D01*
X216295244Y-140218336D01*
X216390187Y-140247011D01*
X216414818Y-140254429D01*
X216529145Y-140288857D01*
X216619878Y-140316758D01*
X216689492Y-140339694D01*
X216740465Y-140359228D01*
X216775271Y-140376924D01*
X216796388Y-140394345D01*
X216806292Y-140413053D01*
X216807459Y-140434611D01*
X216802364Y-140460584D01*
X216793485Y-140492533D01*
X216793266Y-140493315D01*
X216784251Y-140525458D01*
X216775257Y-140550556D01*
X216763408Y-140568577D01*
X216745830Y-140579489D01*
X216719648Y-140583261D01*
X216681988Y-140579859D01*
X216629976Y-140569252D01*
X216560737Y-140551407D01*
X216471396Y-140526293D01*
X216359079Y-140493877D01*
X216339601Y-140488247D01*
X216241577Y-140460015D01*
X216152166Y-140434435D01*
X216074695Y-140412444D01*
X216012494Y-140394983D01*
X215968889Y-140382989D01*
X215947211Y-140377400D01*
X215945504Y-140377112D01*
X215938914Y-140389522D01*
X215924507Y-140424380D01*
X215903539Y-140478391D01*
X215877265Y-140548257D01*
X215846941Y-140630681D01*
X215813823Y-140722367D01*
X215811064Y-140730078D01*
X215684962Y-141082725D01*
X214394401Y-141660018D01*
X214216861Y-141739397D01*
X214046131Y-141815656D01*
X213883887Y-141888052D01*
X213731803Y-141955839D01*
X213591555Y-142018275D01*
X213464819Y-142074614D01*
X213353269Y-142124112D01*
X213258581Y-142166025D01*
X213182430Y-142199609D01*
X213126492Y-142224120D01*
X213092442Y-142238814D01*
X213082072Y-142243004D01*
X213067315Y-142238099D01*
X213047947Y-142214752D01*
X213022058Y-142170281D01*
X213001094Y-142129312D01*
X212941885Y-142009927D01*
X212852215Y-142196850D01*
X212762545Y-142383772D01*
X212707915Y-142383772D01*
X212666203Y-142377552D01*
X212620374Y-142361538D01*
X212578096Y-142339696D01*
X212547040Y-142315992D01*
X212534875Y-142294393D01*
X212534874Y-142294276D01*
X212536973Y-142287794D01*
X212592478Y-142287794D01*
X212595783Y-142299055D01*
X212596079Y-142299387D01*
X212616378Y-142312855D01*
X212651315Y-142330009D01*
X212689647Y-142345844D01*
X212720135Y-142355358D01*
X212722976Y-142355876D01*
X212729817Y-142344426D01*
X212746261Y-142312385D01*
X212770270Y-142263853D01*
X212799808Y-142202931D01*
X212821561Y-142157468D01*
X212916299Y-141958462D01*
X212870191Y-141867436D01*
X212824082Y-141776410D01*
X212701743Y-142028909D01*
X212659310Y-142117444D01*
X212628310Y-142184676D01*
X212607599Y-142233528D01*
X212596036Y-142266926D01*
X212592478Y-142287794D01*
X212536973Y-142287794D01*
X212540605Y-142276575D01*
X212556652Y-142238188D01*
X212581299Y-142182930D01*
X212612827Y-142114616D01*
X212649520Y-142037061D01*
X212667269Y-142000144D01*
X212799664Y-141726115D01*
X212340110Y-140806885D01*
X211880555Y-139887655D01*
X211648596Y-139988847D01*
X211414555Y-140103672D01*
X211185656Y-140241957D01*
X210960562Y-140404665D01*
X210737938Y-140592761D01*
X210521332Y-140802184D01*
X210337371Y-141004583D01*
X210180501Y-141206212D01*
X210050541Y-141407428D01*
X209947307Y-141608585D01*
X209870618Y-141810037D01*
X209820291Y-142012141D01*
X209796259Y-142213165D01*
X209768811Y-142213165D01*
X209772690Y-142142113D01*
X209788020Y-142013965D01*
G37*
%TO.C,R10*%
X188791227Y-121732175D02*
X188554175Y-121969227D01*
X188253825Y-121194773D02*
X188016773Y-121431825D01*
%TO.C,R11*%
X205618828Y-113788000D02*
X205283586Y-113788000D01*
X205618828Y-113028000D02*
X205283586Y-113028000D01*
%TO.C,L6*%
X160660002Y-66481048D02*
X160660002Y-66681448D01*
X159940002Y-66481048D02*
X159940002Y-66681448D01*
%TO.C,U8*%
X206991207Y-112748000D02*
X204091207Y-112748000D01*
X204091207Y-112748000D02*
X204091207Y-109948000D01*
X204091207Y-109948000D02*
X206991207Y-109948000D01*
X206991207Y-109948000D02*
X206991207Y-112748000D01*
%TO.C,U6*%
X167359994Y-90638759D02*
X167359994Y-91363759D01*
X167359994Y-91363759D02*
X166634994Y-91363759D01*
X163139994Y-90638759D02*
X163139994Y-91363759D01*
X163139994Y-87868759D02*
X163139994Y-87143759D01*
X163139994Y-91363759D02*
X163864994Y-91363759D01*
X167359994Y-87868759D02*
X167359994Y-87143759D01*
X163139994Y-87143759D02*
X163864994Y-87143759D01*
%TO.C,C16*%
X194561207Y-118709665D02*
X194561207Y-118941335D01*
X193841207Y-118709665D02*
X193841207Y-118941335D01*
%TO.C,C30*%
X210841207Y-110142165D02*
X210841207Y-110373835D01*
X211561207Y-110142165D02*
X211561207Y-110373835D01*
%TO.C,C33*%
X160915837Y-68153748D02*
X160684167Y-68153748D01*
X160915837Y-68873748D02*
X160684167Y-68873748D01*
%TO.C,VBUS*%
X160700000Y-128100000D02*
G75*
G03*
X160700000Y-128100000I-1450000J0D01*
G01*
%TO.C,TX_SCLK*%
X196251207Y-100358000D02*
G75*
G03*
X196251207Y-100358000I-1450000J0D01*
G01*
%TO.C,~{WDO}*%
X217251207Y-112508000D02*
G75*
G03*
X217251207Y-112508000I-1450000J0D01*
G01*
%TO.C,TP15*%
X181250000Y-101150000D02*
G75*
G03*
X181250000Y-101150000I-1450000J0D01*
G01*
%TO.C,J2*%
X164130002Y-55136248D02*
X164130002Y-58736248D01*
X158650002Y-60616248D02*
X162250002Y-60616248D01*
X156770002Y-55136248D02*
X156770002Y-58736248D01*
X158650002Y-53256248D02*
X162250002Y-53256248D01*
%TO.C,C12*%
X183210000Y-106665835D02*
X183210000Y-106434165D01*
X182490000Y-106665835D02*
X182490000Y-106434165D01*
%TO.C,+3V3*%
X177850000Y-132450000D02*
G75*
G03*
X177850000Y-132450000I-1450000J0D01*
G01*
%TO.C,RX_En*%
X183954002Y-85840248D02*
G75*
G03*
X183954002Y-85840248I-1450000J0D01*
G01*
%TO.C,Y1*%
X200142500Y-115875000D02*
X196842500Y-115875000D01*
X200142500Y-118675000D02*
X200142500Y-115875000D01*
%TO.C,C34*%
X161484002Y-90646083D02*
X161484002Y-90414413D01*
X162204002Y-90646083D02*
X162204002Y-90414413D01*
D15*
%TO.C,IC1*%
X159300002Y-73961248D02*
G75*
G03*
X159300002Y-73961248I-125000J0D01*
G01*
D14*
%TO.C,Y2*%
X169764000Y-92945500D02*
X173064000Y-92945500D01*
X169764000Y-90145500D02*
X169764000Y-92945500D01*
%TO.C,C26*%
X174024000Y-91429665D02*
X174024000Y-91661335D01*
X173304000Y-91429665D02*
X173304000Y-91661335D01*
%TO.C,C9*%
X195159835Y-106690000D02*
X194928165Y-106690000D01*
X195159835Y-105970000D02*
X194928165Y-105970000D01*
%TO.C,TX_SDN*%
X182000000Y-94350000D02*
G75*
G03*
X182000000Y-94350000I-1450000J0D01*
G01*
%TO.C,C22*%
X171234167Y-83261248D02*
X171465837Y-83261248D01*
X171234167Y-83981248D02*
X171465837Y-83981248D01*
%TO.C,GND*%
X210651207Y-106408000D02*
G75*
G03*
X210651207Y-106408000I-1450000J0D01*
G01*
%TO.C,C25*%
X168804000Y-91129665D02*
X168804000Y-91361335D01*
X169524000Y-91129665D02*
X169524000Y-91361335D01*
%TO.C,C5*%
X175060000Y-136065835D02*
X175060000Y-135834165D01*
X174340000Y-136065835D02*
X174340000Y-135834165D01*
%TO.C,C20*%
X160751677Y-81861248D02*
X160983347Y-81861248D01*
X160751677Y-82581248D02*
X160983347Y-82581248D01*
%TO.C,C21*%
X168610002Y-81770413D02*
X168610002Y-82002083D01*
X167890002Y-81770413D02*
X167890002Y-82002083D01*
%TO.C,L2*%
X168749802Y-83261248D02*
X168950202Y-83261248D01*
X168749802Y-83981248D02*
X168950202Y-83981248D01*
%TO.C,GND*%
X191150000Y-100250000D02*
G75*
G03*
X191150000Y-100250000I-1450000J0D01*
G01*
%TO.C,L1*%
X163567712Y-81861248D02*
X163367312Y-81861248D01*
X163567712Y-82581248D02*
X163367312Y-82581248D01*
%TO.C,SW1*%
X205451207Y-128800000D02*
X206951207Y-128800000D01*
X209451207Y-127550000D02*
X209451207Y-123050000D01*
X202951207Y-123050000D02*
X202951207Y-127550000D01*
X206951207Y-121800000D02*
X205451207Y-121800000D01*
%TO.C,L7*%
X160610002Y-70163548D02*
X160610002Y-70363948D01*
X159890002Y-70163548D02*
X159890002Y-70363948D01*
%TO.C,R8*%
X176617621Y-136170000D02*
X176282379Y-136170000D01*
X176617621Y-136930000D02*
X176282379Y-136930000D01*
%TO.C,C2*%
X194067165Y-123465000D02*
X194298835Y-123465000D01*
X194067165Y-124185000D02*
X194298835Y-124185000D01*
%TO.C,SW2*%
X177351207Y-123708000D02*
X177351207Y-123708000D01*
X183051207Y-123408000D02*
X183051207Y-123408000D01*
X183051207Y-129808000D02*
X179251207Y-129808000D01*
X178951207Y-127308000D02*
X179251207Y-127308000D01*
X179251207Y-129808000D02*
X179251207Y-128108000D01*
X177351207Y-124808000D02*
X177351207Y-124808000D01*
X177351207Y-125908000D02*
X177351207Y-125908000D01*
X177351207Y-125608000D02*
X177351207Y-124808000D01*
X178651207Y-127208000D02*
X178651207Y-127208000D01*
X177351207Y-126408000D02*
X177351207Y-125908000D01*
X183051207Y-124508000D02*
X183051207Y-123408000D01*
X179251207Y-124808000D02*
X179251207Y-123108000D01*
X179251207Y-120608000D02*
X183051207Y-120608000D01*
X177351207Y-124508000D02*
X177351207Y-124508000D01*
X178951207Y-128108000D02*
X178951207Y-127308000D01*
X178151207Y-127208000D02*
X178651207Y-127208000D01*
X177351207Y-127208000D02*
X177851207Y-127208000D01*
X177351207Y-127208000D02*
X177351207Y-126708000D01*
X177351207Y-124008000D02*
X177351207Y-124508000D01*
X179251207Y-125608000D02*
X178951207Y-125608000D01*
X179251207Y-122308000D02*
X179251207Y-120608000D01*
X178651207Y-123208000D02*
X178651207Y-123208000D01*
X179251207Y-123108000D02*
X178951207Y-123108000D01*
X178951207Y-122308000D02*
X179251207Y-122308000D01*
X179251207Y-128108000D02*
X178951207Y-128108000D01*
X179251207Y-127308000D02*
X179251207Y-125608000D01*
X179251207Y-120608000D02*
X179251207Y-120608000D01*
X177351207Y-123208000D02*
X177851207Y-123208000D01*
X177351207Y-126708000D02*
X177351207Y-126708000D01*
X178951207Y-124808000D02*
X179251207Y-124808000D01*
X178151207Y-123208000D02*
X178651207Y-123208000D01*
X183051207Y-120608000D02*
X183051207Y-122008000D01*
X183051207Y-128408000D02*
X183051207Y-129808000D01*
X178951207Y-125608000D02*
X178951207Y-124808000D01*
X183051207Y-127008000D02*
X183051207Y-125908000D01*
X183051207Y-125908000D02*
X183051207Y-125908000D01*
X178951207Y-123108000D02*
X178951207Y-122308000D01*
X177351207Y-123208000D02*
X177351207Y-123708000D01*
X177851207Y-127208000D02*
X177851207Y-127208000D01*
X177851207Y-123208000D02*
X177851207Y-123208000D01*
%TO.C,C13*%
X205985372Y-130648000D02*
X206217042Y-130648000D01*
X205985372Y-131368000D02*
X206217042Y-131368000D01*
%TO.C,J3*%
X153925000Y-137570000D02*
G75*
G03*
X153925000Y-137570000I-1680000J0D01*
G01*
X150565000Y-132490000D02*
G75*
G03*
X150710244Y-133173318I1680000J0D01*
G01*
X151561000Y-134025001D02*
G75*
G03*
X152928042Y-134025427I684000J1535001D01*
G01*
X152929000Y-130955000D02*
G75*
G03*
X151561958Y-130954573I-684001J-1534993D01*
G01*
X153780000Y-133174000D02*
G75*
G03*
X153780427Y-131806958I-1534993J684001D01*
G01*
X150710000Y-131806000D02*
G75*
G03*
X150564747Y-132518805I1535001J-683999D01*
G01*
X153520000Y-138640000D02*
X153484000Y-138605000D01*
X147585000Y-129890000D02*
X147585000Y-140170000D01*
X147345000Y-129650000D02*
X147345000Y-130150000D01*
X148145000Y-129890000D02*
X148145000Y-140170000D01*
X154546000Y-129890000D02*
X154546000Y-140170000D01*
X151006000Y-136536000D02*
X150971000Y-136501000D01*
X148085000Y-129650000D02*
X147345000Y-129650000D01*
X157506000Y-140170000D02*
X147585000Y-140170000D01*
X149645000Y-129890000D02*
X149645000Y-140170000D01*
X157506000Y-129890000D02*
X147585000Y-129890000D01*
X157506000Y-129890000D02*
X157506000Y-140170000D01*
X153314000Y-138845000D02*
X153268000Y-138798000D01*
X151222000Y-136343000D02*
X151176000Y-136296000D01*
%TO.C,C14*%
X191085372Y-104698000D02*
X191317042Y-104698000D01*
X191085372Y-105418000D02*
X191317042Y-105418000D01*
%TO.C,R13*%
X159603387Y-106968019D02*
X159938629Y-106968019D01*
X159603387Y-107728019D02*
X159938629Y-107728019D01*
%TO.C,C35*%
X160978167Y-88740248D02*
X161209837Y-88740248D01*
X160978167Y-88020248D02*
X161209837Y-88020248D01*
%TO.C,WEN*%
X217201207Y-106800000D02*
G75*
G03*
X217201207Y-106800000I-1450000J0D01*
G01*
%TO.C,C3*%
X170826165Y-94763000D02*
X171057835Y-94763000D01*
X170826165Y-95483000D02*
X171057835Y-95483000D01*
%TO.C,J1*%
X157580000Y-101420000D02*
X157580000Y-104080000D01*
X160180000Y-101420000D02*
X160180000Y-102750000D01*
X157580000Y-104080000D02*
X149900000Y-104080000D01*
X157580000Y-101420000D02*
X149900000Y-101420000D01*
X158850000Y-101420000D02*
X160180000Y-101420000D01*
X149900000Y-101420000D02*
X149900000Y-104080000D01*
%TO.C,C29*%
X156060002Y-76702083D02*
X156060002Y-76470413D01*
X155340002Y-76702083D02*
X155340002Y-76470413D01*
%TO.C,TX_En*%
X184444002Y-80330248D02*
G75*
G03*
X184444002Y-80330248I-1450000J0D01*
G01*
%TO.C,C23*%
X164427512Y-84419583D02*
X164427512Y-84187913D01*
X163707512Y-84419583D02*
X163707512Y-84187913D01*
%TO.C,D+*%
X168500000Y-115450000D02*
G75*
G03*
X168500000Y-115450000I-1450000J0D01*
G01*
%TO.C,J5*%
X158555000Y-120950000D02*
X158555000Y-120265000D01*
X159858276Y-121635000D02*
X159945000Y-121635000D01*
X158555000Y-121635000D02*
X158641724Y-121635000D01*
X159945000Y-121635000D02*
X159945000Y-124510000D01*
X158555000Y-124510000D02*
X158855507Y-124510000D01*
X158555000Y-120265000D02*
X159250000Y-120265000D01*
X158555000Y-121635000D02*
X158555000Y-124510000D01*
X159644493Y-124510000D02*
X159945000Y-124510000D01*
%TO.C,TP16*%
X176850000Y-101050000D02*
G75*
G03*
X176850000Y-101050000I-1450000J0D01*
G01*
%TO.C,C31*%
X208991207Y-110092165D02*
X208991207Y-110323835D01*
X209711207Y-110092165D02*
X209711207Y-110323835D01*
%TO.C,C10*%
X195227335Y-107620000D02*
X194995665Y-107620000D01*
X195227335Y-108340000D02*
X194995665Y-108340000D01*
%TO.C,WDI*%
X217200000Y-118100000D02*
G75*
G03*
X217200000Y-118100000I-1450000J0D01*
G01*
%TO.C,C19*%
X179991207Y-117473835D02*
X179991207Y-117242165D01*
X180711207Y-117473835D02*
X180711207Y-117242165D01*
%TO.C,GND*%
X156444002Y-92380248D02*
G75*
G03*
X156444002Y-92380248I-1450000J0D01*
G01*
%TO.C,C24*%
X160827512Y-84187913D02*
X160827512Y-84419583D01*
X160107512Y-84187913D02*
X160107512Y-84419583D01*
%TO.C,C11*%
X197211207Y-110242165D02*
X197211207Y-110473835D01*
X196491207Y-110242165D02*
X196491207Y-110473835D01*
%TO.C,C1*%
X158870000Y-135213335D02*
X158870000Y-134981665D01*
X159590000Y-135213335D02*
X159590000Y-134981665D01*
%TO.C,C4*%
X196332000Y-129124000D02*
X192292000Y-129124000D01*
X192292000Y-131964000D02*
X196332000Y-131964000D01*
X197022000Y-130544000D02*
X196332000Y-130544000D01*
X192292000Y-129124000D02*
X192292000Y-131964000D01*
X196332000Y-131964000D02*
X196332000Y-129124000D01*
X191602000Y-130544000D02*
X192292000Y-130544000D01*
%TO.C,R12*%
X160438629Y-115468019D02*
X160103387Y-115468019D01*
X160438629Y-116228019D02*
X160103387Y-116228019D01*
%TO.C,L5*%
X160040002Y-62986048D02*
X160040002Y-63186448D01*
X160760002Y-62986048D02*
X160760002Y-63186448D01*
%TO.C,D-*%
X168450000Y-109600000D02*
G75*
G03*
X168450000Y-109600000I-1450000J0D01*
G01*
%TO.C,L4*%
X157334808Y-77581248D02*
X157535208Y-77581248D01*
X157334808Y-76861248D02*
X157535208Y-76861248D01*
D16*
%TO.C,D4*%
X178300000Y-136890000D02*
G75*
G03*
X178300000Y-136890000I-50000J0D01*
G01*
D14*
%TO.C,GND*%
X161300000Y-141200000D02*
G75*
G03*
X161300000Y-141200000I-1450000J0D01*
G01*
%TD*%
M02*
