%TF.GenerationSoftware,KiCad,Pcbnew,(6.0.6)*%
%TF.CreationDate,2023-03-24T13:47:12-05:00*%
%TF.ProjectId,DSAT_Telemetry_Board,44534154-5f54-4656-9c65-6d657472795f,rev?*%
%TF.SameCoordinates,Original*%
%TF.FileFunction,Paste,Top*%
%TF.FilePolarity,Positive*%
%FSLAX46Y46*%
G04 Gerber Fmt 4.6, Leading zero omitted, Abs format (unit mm)*
G04 Created by KiCad (PCBNEW (6.0.6)) date 2023-03-24 13:47:12*
%MOMM*%
%LPD*%
G01*
G04 APERTURE LIST*
G04 Aperture macros list*
%AMRoundRect*
0 Rectangle with rounded corners*
0 $1 Rounding radius*
0 $2 $3 $4 $5 $6 $7 $8 $9 X,Y pos of 4 corners*
0 Add a 4 corners polygon primitive as box body*
4,1,4,$2,$3,$4,$5,$6,$7,$8,$9,$2,$3,0*
0 Add four circle primitives for the rounded corners*
1,1,$1+$1,$2,$3*
1,1,$1+$1,$4,$5*
1,1,$1+$1,$6,$7*
1,1,$1+$1,$8,$9*
0 Add four rect primitives between the rounded corners*
20,1,$1+$1,$2,$3,$4,$5,0*
20,1,$1+$1,$4,$5,$6,$7,0*
20,1,$1+$1,$6,$7,$8,$9,0*
20,1,$1+$1,$8,$9,$2,$3,0*%
G04 Aperture macros list end*
%ADD10R,3.050000X2.750000*%
%ADD11R,2.200000X1.200000*%
%ADD12R,1.500000X0.400000*%
%ADD13RoundRect,0.155000X0.212500X0.155000X-0.212500X0.155000X-0.212500X-0.155000X0.212500X-0.155000X0*%
%ADD14RoundRect,0.155000X-0.212500X-0.155000X0.212500X-0.155000X0.212500X0.155000X-0.212500X0.155000X0*%
%ADD15RoundRect,0.155000X0.155000X-0.212500X0.155000X0.212500X-0.155000X0.212500X-0.155000X-0.212500X0*%
%ADD16RoundRect,0.160000X0.222500X0.160000X-0.222500X0.160000X-0.222500X-0.160000X0.222500X-0.160000X0*%
%ADD17RoundRect,0.075000X0.700000X0.075000X-0.700000X0.075000X-0.700000X-0.075000X0.700000X-0.075000X0*%
%ADD18RoundRect,0.075000X0.075000X0.700000X-0.075000X0.700000X-0.075000X-0.700000X0.075000X-0.700000X0*%
%ADD19RoundRect,0.160000X0.026517X0.252791X-0.252791X-0.026517X-0.026517X-0.252791X0.252791X0.026517X0*%
%ADD20RoundRect,0.160000X0.197500X0.160000X-0.197500X0.160000X-0.197500X-0.160000X0.197500X-0.160000X0*%
%ADD21R,2.450000X0.600000*%
%ADD22R,2.450000X0.300000*%
%ADD23RoundRect,0.160000X-0.160000X0.222500X-0.160000X-0.222500X0.160000X-0.222500X0.160000X0.222500X0*%
%ADD24RoundRect,0.050000X0.450000X0.050000X-0.450000X0.050000X-0.450000X-0.050000X0.450000X-0.050000X0*%
%ADD25RoundRect,0.350000X0.350000X1.050000X-0.350000X1.050000X-0.350000X-1.050000X0.350000X-1.050000X0*%
%ADD26RoundRect,0.250000X-0.315000X0.315000X-0.315000X-0.315000X0.315000X-0.315000X0.315000X0.315000X0*%
%ADD27RoundRect,0.062500X-0.062500X0.362500X-0.062500X-0.362500X0.062500X-0.362500X0.062500X0.362500X0*%
%ADD28RoundRect,0.062500X-0.362500X0.062500X-0.362500X-0.062500X0.362500X-0.062500X0.362500X0.062500X0*%
%ADD29RoundRect,0.155000X-0.155000X0.212500X-0.155000X-0.212500X0.155000X-0.212500X0.155000X0.212500X0*%
%ADD30R,1.470000X1.140000*%
%ADD31R,1.150000X1.000000*%
%ADD32R,0.250000X0.550000*%
%ADD33R,1.300000X0.800000*%
%ADD34RoundRect,0.160000X-0.222500X-0.160000X0.222500X-0.160000X0.222500X0.160000X-0.222500X0.160000X0*%
%ADD35R,2.500000X1.250000*%
%ADD36RoundRect,0.160000X-0.197500X-0.160000X0.197500X-0.160000X0.197500X0.160000X-0.197500X0.160000X0*%
%ADD37RoundRect,0.147500X0.172500X-0.147500X0.172500X0.147500X-0.172500X0.147500X-0.172500X-0.147500X0*%
G04 APERTURE END LIST*
D10*
%TO.C,U1*%
X164125000Y-136325000D03*
X164125000Y-133275000D03*
X167475000Y-136325000D03*
X167475000Y-133275000D03*
D11*
X172100000Y-137080000D03*
X172100000Y-134800000D03*
X172100000Y-132520000D03*
%TD*%
D12*
%TO.C,U7*%
X159855008Y-77321248D03*
X159855008Y-78621248D03*
X162515008Y-78621248D03*
X162515008Y-77321248D03*
%TD*%
D13*
%TO.C,C32*%
X161517502Y-64936248D03*
X160382502Y-64936248D03*
%TD*%
D14*
%TO.C,C18*%
X197750000Y-119442500D03*
X198885000Y-119442500D03*
%TD*%
D13*
%TO.C,C17*%
X192518707Y-120658000D03*
X191383707Y-120658000D03*
%TD*%
D15*
%TO.C,C28*%
X159785008Y-75921241D03*
X159785008Y-74786241D03*
%TD*%
D14*
%TO.C,C15*%
X197850000Y-115192500D03*
X198985000Y-115192500D03*
%TD*%
D15*
%TO.C,C27*%
X162067519Y-81071237D03*
X162067512Y-79936248D03*
%TD*%
D16*
%TO.C,L3*%
X162840012Y-84903748D03*
X161695012Y-84903748D03*
%TD*%
D17*
%TO.C,U5*%
X193825000Y-116950000D03*
X193825000Y-116450000D03*
X193825000Y-115950000D03*
X193825000Y-115450000D03*
X193825000Y-114950000D03*
X193825000Y-114450000D03*
X193825000Y-113950000D03*
X193825000Y-113450000D03*
X193825000Y-112950000D03*
X193825000Y-112450000D03*
X193825000Y-111950000D03*
X193825000Y-111450000D03*
X193825000Y-110950000D03*
X193825000Y-110450000D03*
X193825000Y-109950000D03*
X193825000Y-109450000D03*
D18*
X191900000Y-107525000D03*
X191400000Y-107525000D03*
X190900000Y-107525000D03*
X190400000Y-107525000D03*
X189900000Y-107525000D03*
X189400000Y-107525000D03*
X188900000Y-107525000D03*
X188400000Y-107525000D03*
X187900000Y-107525000D03*
X187400000Y-107525000D03*
X186900000Y-107525000D03*
X186400000Y-107525000D03*
X185900000Y-107525000D03*
X185400000Y-107525000D03*
X184900000Y-107525000D03*
X184400000Y-107525000D03*
D17*
X182475000Y-109450000D03*
X182475000Y-109950000D03*
X182475000Y-110450000D03*
X182475000Y-110950000D03*
X182475000Y-111450000D03*
X182475000Y-111950000D03*
X182475000Y-112450000D03*
X182475000Y-112950000D03*
X182475000Y-113450000D03*
X182475000Y-113950000D03*
X182475000Y-114450000D03*
X182475000Y-114950000D03*
X182475000Y-115450000D03*
X182475000Y-115950000D03*
X182475000Y-116450000D03*
X182475000Y-116950000D03*
D18*
X184400000Y-118875000D03*
X184900000Y-118875000D03*
X185400000Y-118875000D03*
X185900000Y-118875000D03*
X186400000Y-118875000D03*
X186900000Y-118875000D03*
X187400000Y-118875000D03*
X187900000Y-118875000D03*
X188400000Y-118875000D03*
X188900000Y-118875000D03*
X189400000Y-118875000D03*
X189900000Y-118875000D03*
X190400000Y-118875000D03*
X190900000Y-118875000D03*
X191400000Y-118875000D03*
X191900000Y-118875000D03*
%TD*%
D19*
%TO.C,R10*%
X188826496Y-121159504D03*
X187981504Y-122004496D03*
%TD*%
D20*
%TO.C,R11*%
X206048707Y-113408000D03*
X204853707Y-113408000D03*
%TD*%
D21*
%TO.C,USB1*%
X154871000Y-109573020D03*
X154871000Y-110348020D03*
D22*
X154871000Y-111048020D03*
X154871000Y-111548020D03*
X154871000Y-112048020D03*
X154871000Y-112548020D03*
X154871000Y-113048020D03*
X154871000Y-113548020D03*
X154871000Y-114048020D03*
X154871000Y-114548020D03*
D21*
X154871000Y-115248020D03*
X154871000Y-116023020D03*
%TD*%
D23*
%TO.C,L6*%
X160300002Y-66008748D03*
X160300002Y-67153748D03*
%TD*%
D24*
%TO.C,U8*%
X207499207Y-112273000D03*
X207499207Y-111623000D03*
X207499207Y-110973000D03*
X207499207Y-110323000D03*
X203689207Y-110323000D03*
X203689207Y-110973000D03*
X203689207Y-111623000D03*
X203689207Y-112273000D03*
D25*
X205451207Y-111358000D03*
%TD*%
D26*
%TO.C,U6*%
X164599994Y-88603759D03*
X165899994Y-88603759D03*
X164599994Y-89903759D03*
X165899994Y-89903759D03*
D27*
X166249994Y-87328759D03*
X165749994Y-87328759D03*
X165249994Y-87328759D03*
X164749994Y-87328759D03*
X164249994Y-87328759D03*
D28*
X163324994Y-88253759D03*
X163324994Y-88753759D03*
X163324994Y-89253759D03*
X163324994Y-89753759D03*
X163324994Y-90253759D03*
D27*
X164249994Y-91178759D03*
X164749994Y-91178759D03*
X165249994Y-91178759D03*
X165749994Y-91178759D03*
X166249994Y-91178759D03*
D28*
X167174994Y-90253759D03*
X167174994Y-89753759D03*
X167174994Y-89253759D03*
X167174994Y-88753759D03*
X167174994Y-88253759D03*
%TD*%
D29*
%TO.C,C16*%
X194201207Y-118258000D03*
X194201207Y-119393000D03*
%TD*%
%TO.C,C30*%
X211201207Y-109690500D03*
X211201207Y-110825500D03*
%TD*%
D13*
%TO.C,C33*%
X161367502Y-68513748D03*
X160232502Y-68513748D03*
%TD*%
D30*
%TO.C,FB1*%
X197294000Y-108120000D03*
X197294000Y-106340000D03*
%TD*%
D15*
%TO.C,C12*%
X182850000Y-107117500D03*
X182850000Y-105982500D03*
%TD*%
D31*
%TO.C,Y1*%
X199367500Y-116575000D03*
X197617500Y-116575000D03*
X197617500Y-117975000D03*
X199367500Y-117975000D03*
%TD*%
D15*
%TO.C,C34*%
X161844002Y-91097748D03*
X161844002Y-89962748D03*
%TD*%
D32*
%TO.C,IC1*%
X159800002Y-73686248D03*
X160300002Y-73686248D03*
X160800002Y-73686248D03*
X160800002Y-71986248D03*
X160300002Y-71986248D03*
X159800002Y-71986248D03*
D33*
X160300002Y-72836248D03*
%TD*%
D31*
%TO.C,Y2*%
X170539000Y-92245500D03*
X172289000Y-92245500D03*
X172289000Y-90845500D03*
X170539000Y-90845500D03*
%TD*%
D29*
%TO.C,C26*%
X173664000Y-90978000D03*
X173664000Y-92113000D03*
%TD*%
D13*
%TO.C,C9*%
X195611500Y-106330000D03*
X194476500Y-106330000D03*
%TD*%
D14*
%TO.C,C22*%
X170782502Y-83621248D03*
X171917502Y-83621248D03*
%TD*%
D29*
%TO.C,C25*%
X169164000Y-90678000D03*
X169164000Y-91813000D03*
%TD*%
D15*
%TO.C,C5*%
X174700000Y-136517500D03*
X174700000Y-135382500D03*
%TD*%
D14*
%TO.C,C20*%
X160300012Y-82221248D03*
X161435012Y-82221248D03*
%TD*%
D29*
%TO.C,C21*%
X168250002Y-81318748D03*
X168250002Y-82453748D03*
%TD*%
D34*
%TO.C,L2*%
X168277502Y-83621248D03*
X169422502Y-83621248D03*
%TD*%
D16*
%TO.C,L1*%
X164040012Y-82221248D03*
X162895012Y-82221248D03*
%TD*%
D23*
%TO.C,L7*%
X160250002Y-69691248D03*
X160250002Y-70836248D03*
%TD*%
D20*
%TO.C,R8*%
X177047500Y-136550000D03*
X175852500Y-136550000D03*
%TD*%
D14*
%TO.C,C2*%
X193615500Y-123825000D03*
X194750500Y-123825000D03*
%TD*%
D35*
%TO.C,SW2*%
X183901207Y-122708000D03*
X183901207Y-125208000D03*
X183901207Y-127708000D03*
%TD*%
D14*
%TO.C,C13*%
X205533707Y-131008000D03*
X206668707Y-131008000D03*
%TD*%
%TO.C,C14*%
X190633707Y-105058000D03*
X191768707Y-105058000D03*
%TD*%
D36*
%TO.C,R13*%
X159173508Y-107348019D03*
X160368508Y-107348019D03*
%TD*%
D14*
%TO.C,C35*%
X160526502Y-88380248D03*
X161661502Y-88380248D03*
%TD*%
%TO.C,C3*%
X170374500Y-95123000D03*
X171509500Y-95123000D03*
%TD*%
D15*
%TO.C,C29*%
X155700002Y-77153748D03*
X155700002Y-76018748D03*
%TD*%
%TO.C,C23*%
X164067512Y-84871248D03*
X164067512Y-83736248D03*
%TD*%
D29*
%TO.C,C31*%
X209351207Y-109640500D03*
X209351207Y-110775500D03*
%TD*%
D13*
%TO.C,C10*%
X195679000Y-107980000D03*
X194544000Y-107980000D03*
%TD*%
D15*
%TO.C,C19*%
X180351207Y-117925500D03*
X180351207Y-116790500D03*
%TD*%
D29*
%TO.C,C24*%
X160467512Y-83736248D03*
X160467512Y-84871248D03*
%TD*%
%TO.C,C11*%
X196851207Y-109790500D03*
X196851207Y-110925500D03*
%TD*%
D15*
%TO.C,C1*%
X159230000Y-135665000D03*
X159230000Y-134530000D03*
%TD*%
D20*
%TO.C,R12*%
X160868508Y-115848019D03*
X159673508Y-115848019D03*
%TD*%
D23*
%TO.C,L5*%
X160400002Y-62513748D03*
X160400002Y-63658748D03*
%TD*%
D34*
%TO.C,L4*%
X156862508Y-77221248D03*
X158007508Y-77221248D03*
%TD*%
D37*
%TO.C,D4*%
X178250000Y-136285000D03*
X178250000Y-135315000D03*
%TD*%
M02*
