M48
; DRILL file {KiCad (6.0.6)} date Fri Mar 24 13:47:00 2023
; FORMAT={-:-/ absolute / metric / decimal}
; #@! TF.CreationDate,2023-03-24T13:47:00-05:00
; #@! TF.GenerationSoftware,Kicad,Pcbnew,(6.0.6)
; #@! TF.FileFunction,Plated,1,3,Blind
FMAT,2
METRIC
; #@! TA.AperFunction,Plated,Buried,ViaDrill
T1C0.254
; #@! TA.AperFunction,Plated,Buried,ViaDrill
T2C0.400
; #@! TA.AperFunction,Plated,Buried,ViaDrill
T3C1.000
%
G90
G05
T1
X168.409Y-90.945
T2
X151.3Y-70.886
X151.3Y-72.936
X151.3Y-75.186
X151.3Y-77.936
X151.3Y-80.186
X151.3Y-83.386
X152.184Y-69.07
X152.194Y-85.63
X153.509Y-67.745
X153.944Y-86.83
X155.094Y-75.38
X155.259Y-65.995
X155.594Y-86.83
X155.7Y-108.1
X156.0Y-117.65
X157.134Y-64.12
X157.444Y-86.83
X157.91Y-56.976
X157.91Y-61.676
X158.294Y-78.58
X159.144Y-86.78
X159.2Y-83.736
X159.265Y-82.221
X160.29Y-54.396
X160.4Y-106.25
X160.794Y-91.08
X160.95Y-116.85
X160.994Y-86.83
X161.688Y-72.836
X161.794Y-65.88
X162.111Y-68.514
X162.99Y-56.896
X162.99Y-61.896
X163.225Y-63.961
X164.144Y-77.28
X164.725Y-65.461
X166.55Y-67.286
X168.45Y-69.186
X169.291Y-95.123
X169.344Y-85.58
X170.275Y-71.011
X171.044Y-85.58
X171.894Y-82.58
X171.9Y-72.636
X172.339Y-95.123
X172.72Y-55.88
X172.72Y-60.96
X172.72Y-66.04
X172.72Y-139.7
X172.72Y-144.78
X172.894Y-84.78
X173.7Y-93.1
X173.95Y-74.686
X174.144Y-83.48
X174.25Y-78.536
X174.25Y-81.936
X175.082Y-92.126
X175.26Y-58.42
X175.26Y-63.5
X175.26Y-68.58
X175.26Y-142.24
X175.26Y-147.32
X177.8Y-55.88
X177.8Y-60.96
X177.8Y-66.04
X177.8Y-71.12
X177.8Y-139.7
X177.8Y-144.78
X179.301Y-116.808
X180.34Y-58.42
X180.34Y-63.5
X180.34Y-68.58
X180.34Y-73.66
X180.34Y-142.24
X180.34Y-147.32
X181.801Y-105.958
X182.88Y-55.88
X182.88Y-60.96
X182.88Y-66.04
X182.88Y-71.12
X182.88Y-139.7
X182.88Y-144.78
X185.385Y-58.381
X185.385Y-63.461
X185.385Y-68.541
X185.385Y-142.201
X185.385Y-147.281
X185.42Y-73.66
X186.451Y-127.708
X187.96Y-55.88
X187.96Y-60.96
X187.96Y-66.04
X187.96Y-71.12
X187.96Y-76.2
X187.96Y-81.28
X187.96Y-86.36
X187.96Y-91.44
X187.96Y-139.7
X187.96Y-144.78
X190.465Y-73.621
X190.488Y-58.381
X190.488Y-63.461
X190.488Y-68.541
X190.488Y-142.201
X190.488Y-147.281
X190.5Y-78.74
X190.5Y-83.82
X190.5Y-88.9
X190.5Y-93.98
X191.352Y-121.616
X191.701Y-103.708
X193.04Y-55.88
X193.04Y-60.96
X193.04Y-66.04
X193.04Y-71.12
X193.04Y-76.2
X193.04Y-81.28
X193.04Y-86.36
X193.04Y-91.44
X193.04Y-139.7
X193.04Y-144.78
X193.501Y-107.558
X194.202Y-120.416
X194.451Y-105.158
X195.541Y-58.381
X195.541Y-63.461
X195.541Y-68.541
X195.541Y-142.201
X195.541Y-147.281
X195.568Y-73.621
X195.58Y-78.74
X195.58Y-83.82
X195.58Y-88.9
X195.58Y-93.98
X195.707Y-123.825
X197.001Y-115.263
X197.801Y-111.008
X198.12Y-55.88
X198.12Y-60.96
X198.12Y-66.04
X198.12Y-71.12
X198.12Y-76.2
X198.12Y-81.28
X198.12Y-86.36
X198.12Y-91.44
X198.12Y-96.52
X198.12Y-139.7
X198.12Y-144.78
X198.882Y-120.548
X199.901Y-119.458
X200.621Y-73.621
X200.625Y-78.701
X200.625Y-83.781
X200.625Y-88.861
X200.625Y-93.941
X200.644Y-58.381
X200.644Y-63.461
X200.644Y-68.541
X200.644Y-142.201
X200.644Y-147.281
X200.66Y-99.06
X203.2Y-55.88
X203.2Y-60.96
X203.2Y-66.04
X203.2Y-71.12
X203.2Y-76.2
X203.2Y-81.28
X203.2Y-86.36
X203.2Y-91.44
X203.2Y-96.52
X203.2Y-139.7
X203.2Y-144.78
X205.724Y-73.621
X205.728Y-78.701
X205.728Y-83.781
X205.728Y-88.861
X205.728Y-93.941
X205.74Y-58.42
X205.74Y-63.5
X205.74Y-68.58
X205.74Y-99.06
X205.74Y-142.24
X205.74Y-147.32
X208.201Y-109.608
X208.28Y-55.88
X208.28Y-60.96
X208.28Y-66.04
X208.28Y-71.12
X208.28Y-76.2
X208.28Y-81.28
X208.28Y-86.36
X208.28Y-91.44
X208.28Y-96.52
X208.28Y-139.7
X208.28Y-144.78
X208.451Y-130.908
X210.781Y-78.701
X210.781Y-83.781
X210.781Y-88.861
X210.781Y-93.941
X210.785Y-99.021
X210.82Y-58.42
X210.82Y-63.5
X210.82Y-68.58
X210.82Y-73.66
X210.82Y-142.24
X210.82Y-147.32
X213.36Y-55.88
X213.36Y-60.96
X213.36Y-66.04
X213.36Y-71.12
X213.36Y-76.2
X213.36Y-81.28
X213.36Y-86.36
X213.36Y-91.44
X213.36Y-96.52
X213.36Y-139.7
X213.36Y-144.78
X215.884Y-78.701
X215.884Y-83.781
X215.884Y-88.861
X215.884Y-93.941
X215.888Y-99.021
X215.9Y-58.42
X215.9Y-63.5
X215.9Y-68.58
X215.9Y-73.66
X215.9Y-142.24
X215.9Y-147.32
X218.44Y-55.88
X218.44Y-60.96
X218.44Y-66.04
X218.44Y-71.12
X218.44Y-76.2
X218.44Y-81.28
X218.44Y-86.36
X218.44Y-91.44
X218.44Y-96.52
X218.44Y-139.7
X218.44Y-144.78
T3
X167.65Y-141.35
T0
M30
